<svg width="40" height="40" viewBox="0 0 40 40" fill="none" xmlns="http://www.w3.org/2000/svg">
<g clip-path="url(#clip0_4058_2230)">
<path d="M17.777 14.1309H16.2389V15.6677H17.777V14.1309Z" fill="#D2A3CB"/>
<path d="M21.1112 14.1309H19.5731V15.6677H21.1112V14.1309Z" fill="#D2A3CB"/>
<path d="M24.4454 14.1309H22.9073V15.6677H24.4454V14.1309Z" fill="#D2A3CB"/>
<path d="M17.777 17.3838H16.2389V18.9218H17.777V17.3838Z" fill="#D2A3CB"/>
<path d="M21.1112 17.3838H19.5731V18.9218H21.1112V17.3838Z" fill="#D2A3CB"/>
<path d="M24.4454 17.3838H22.9073V18.9218H24.4454V17.3838Z" fill="#D2A3CB"/>
<path d="M17.777 20.6387H16.2389V22.1755H17.777V20.6387Z" fill="#D2A3CB"/>
<path d="M21.1112 20.6387H19.5731V22.1755H21.1112V20.6387Z" fill="#D2A3CB"/>
<path d="M24.4454 20.6387H22.9073V22.1755H24.4454V20.6387Z" fill="#D2A3CB"/>
<path d="M17.777 23.8916H16.2389V25.4296H17.777V23.8916Z" fill="#D2A3CB"/>
<path d="M21.1112 23.8916H19.5731V25.4296H21.1112V23.8916Z" fill="#D2A3CB"/>
<path d="M24.4454 23.8916H22.9073V25.4296H24.4454V23.8916Z" fill="#D2A3CB"/>
<path d="M17.777 27.1455H16.2389V28.683H17.777V27.1455Z" fill="#D2A3CB"/>
<path d="M7.09352 18.9229H5.55664V20.4604H7.09352V18.9229Z" fill="#D2A3CB"/>
<path d="M7.09352 22.1768H5.55664V23.7143H7.09352V22.1768Z" fill="#D2A3CB"/>
<path d="M7.09352 25.4307H5.55664V26.9681H7.09352V25.4307Z" fill="#D2A3CB"/>
<path d="M7.09352 28.6846H5.55664V30.2221H7.09352V28.6846Z" fill="#D2A3CB"/>
<path d="M7.09352 31.9385H5.55664V33.476H7.09352V31.9385Z" fill="#D2A3CB"/>
<path d="M10.9404 18.9229H9.40356V20.4604H10.9404V18.9229Z" fill="#D2A3CB"/>
<path d="M10.9404 22.1768H9.40356V23.7143H10.9404V22.1768Z" fill="#D2A3CB"/>
<path d="M10.9404 25.4307H9.40356V26.9681H10.9404V25.4307Z" fill="#D2A3CB"/>
<path d="M10.9404 28.6846H9.40356V30.2221H10.9404V28.6846Z" fill="#D2A3CB"/>
<path d="M10.9404 31.9385H9.40356V33.476H10.9404V31.9385Z" fill="#D2A3CB"/>
<path d="M21.1112 27.1455H19.5731V28.683H21.1112V27.1455Z" fill="#D2A3CB"/>
<path d="M24.4454 27.1455H22.9073V28.683H24.4454V27.1455Z" fill="#D2A3CB"/>
<path d="M17.777 30.4004H16.2389V31.9379H17.777V30.4004Z" fill="#D2A3CB"/>
<path d="M21.1112 30.4004H19.5731V31.9379H21.1112V30.4004Z" fill="#D2A3CB"/>
<path d="M24.4454 30.4004H22.9073V31.9379H24.4454V30.4004Z" fill="#D2A3CB"/>
<path d="M34.3592 23.5469H29.2312V24.4414H34.3592V23.5469Z" fill="#D2A3CB"/>
<path d="M34.3592 26.167H29.2312V27.061H34.3592V26.167Z" fill="#D2A3CB"/>
<path d="M34.3592 28.7852H29.2312V29.6798H34.3592V28.7852Z" fill="#D2A3CB"/>
<path d="M34.3592 31.4043H29.2312V32.2989H34.3592V31.4043Z" fill="#D2A3CB"/>
<path d="M37.9492 37.1514V19.716H28.0342V10.4842H24.6521V7.49102H23.6268V4.89953H20.9337V0.796875H19.7379V4.89953H17.0577V7.49102H16.0323V10.4842H12.6502V15.3074H2.05187V37.1514H0V39.2028H2.56461H13.1628H14.1881H26.4961H27.5214H37.4365H40V37.1514H37.9492ZM13.1628 37.6641H9.19914V34.9296H7.55367V37.6641H3.59V16.846H13.1629V37.6641H13.1628ZM18.5956 6.4382H22.0875V7.85711H18.5956V6.4382ZM17.5714 9.02906H23.114V10.9975H17.5714V9.02906ZM26.4962 20.2288V37.6641H21.6239V33.9042H19.0605V37.6641H14.1882V15.8207V12.0228H16.5449H24.1395H26.4962V20.2288ZM36.41 37.6641H32.7884V34.9296H31.143V37.6641H27.5214V21.2541H36.4099V37.6641H36.41Z" fill="#D2A3CB"/>
</g>
<defs>
<clipPath id="clip0_4058_2230">
<rect width="40" height="40" fill="white"/>
</clipPath>
</defs>
</svg>
