<svg width="40" height="40" viewBox="0 0 40 40" fill="none" xmlns="http://www.w3.org/2000/svg">
<g clip-path="url(#clip0_4058_3233)">
<path d="M7 40L33 40C36.866 40 40 36.866 40 33L40 7C40 3.13401 36.866 0 33 0L7 0C3.13401 0 0 3.13401 0 7L0 33C0 36.866 3.13401 40 7 40Z" fill="#06C755"/>
<path d="M35.25 17.75C35.25 12.25 28.75 6.25 20.25 6.25C11.9688 6.25 5.25 11.125 5.25 17.75C5.25 23.8625 10.4875 28.9125 17.8563 29.6563C18.0807 29.6748 18.298 29.744 18.4918 29.8588C18.6856 29.9736 18.8508 30.1308 18.975 30.3187C19.1521 30.5973 19.2473 30.92 19.25 31.25C19.2328 31.9281 19.1575 32.6035 19.025 33.2687C19.0046 33.3589 19.0096 33.453 19.0394 33.5405C19.0692 33.628 19.1227 33.7055 19.1939 33.7644C19.2652 33.8234 19.3513 33.8614 19.4429 33.8743C19.5344 33.8872 19.6278 33.8744 19.7125 33.8375C23.2438 32.275 35.25 25.85 35.25 17.75Z" fill="white"/>
<path d="M14.75 20.5H12.5V15.25C12.5 15.0511 12.421 14.8603 12.2803 14.7197C12.1397 14.579 11.9489 14.5 11.75 14.5C11.5511 14.5 11.3603 14.579 11.2197 14.7197C11.079 14.8603 11 15.0511 11 15.25V21.25C11 21.4489 11.079 21.6397 11.2197 21.7803C11.3603 21.921 11.5511 22 11.75 22H14.75C14.9489 22 15.1397 21.921 15.2803 21.7803C15.421 21.6397 15.5 21.4489 15.5 21.25C15.5 21.0511 15.421 20.8603 15.2803 20.7197C15.1397 20.579 14.9489 20.5 14.75 20.5Z" fill="#06C755"/>
<path d="M16.75 14.5C16.5511 14.5 16.3603 14.579 16.2197 14.7197C16.079 14.8603 16 15.0511 16 15.25V21.25C16 21.4489 16.079 21.6397 16.2197 21.7803C16.3603 21.921 16.5511 22 16.75 22C16.9489 22 17.1397 21.921 17.2803 21.7803C17.421 21.6397 17.5 21.4489 17.5 21.25V15.25C17.5 15.0511 17.421 14.8603 17.2803 14.7197C17.1397 14.579 16.9489 14.5 16.75 14.5Z" fill="#06C755"/>
<path d="M23.7499 14.5C23.6514 14.5 23.5539 14.5194 23.4629 14.5571C23.3719 14.5948 23.2892 14.65 23.2196 14.7197C23.1499 14.7893 23.0947 14.872 23.057 14.963C23.0193 15.054 22.9999 15.1515 22.9999 15.25V19L19.8749 14.8C19.7805 14.6741 19.6488 14.5811 19.4985 14.5341C19.3483 14.4872 19.1871 14.4887 19.0377 14.5385C18.8884 14.5883 18.7585 14.6838 18.6665 14.8115C18.5744 14.9392 18.5249 15.0926 18.5249 15.25V21.25C18.5568 21.4223 18.648 21.5781 18.7827 21.6902C18.9174 21.8023 19.0871 21.8636 19.2624 21.8636C19.4377 21.8636 19.6074 21.8023 19.7421 21.6902C19.8768 21.5781 19.968 21.4223 19.9999 21.25V17.5L23.1249 21.7C23.1969 21.797 23.2914 21.875 23.4003 21.9273C23.5092 21.9795 23.6292 22.0045 23.7499 22C23.8305 21.9997 23.9106 21.9871 23.9874 21.9625C24.1368 21.9126 24.2668 21.8169 24.3588 21.689C24.4507 21.5612 24.5001 21.4075 24.4999 21.25V15.25C24.4999 15.1515 24.4805 15.054 24.4428 14.963C24.4051 14.872 24.3499 14.7893 24.2802 14.7197C24.2106 14.65 24.1279 14.5948 24.0369 14.5571C23.9459 14.5194 23.8484 14.5 23.7499 14.5Z" fill="#06C755"/>
<path d="M29.25 19C29.3485 19 29.446 18.9806 29.537 18.9429C29.628 18.9052 29.7107 18.85 29.7803 18.7803C29.85 18.7107 29.9052 18.628 29.9429 18.537C29.9806 18.446 30 18.3485 30 18.25C30 18.1515 29.9806 18.054 29.9429 17.963C29.9052 17.872 29.85 17.7893 29.7803 17.7197C29.7107 17.65 29.628 17.5948 29.537 17.5571C29.446 17.5194 29.3485 17.5 29.25 17.5H27V16H29.25C29.4489 16 29.6397 15.921 29.7803 15.7803C29.921 15.6397 30 15.4489 30 15.25C30 15.0511 29.921 14.8603 29.7803 14.7197C29.6397 14.579 29.4489 14.5 29.25 14.5H26.25C26.0511 14.5 25.8603 14.579 25.7197 14.7197C25.579 14.8603 25.5 15.0511 25.5 15.25V21.25C25.5 21.4489 25.579 21.6397 25.7197 21.7803C25.8603 21.921 26.0511 22 26.25 22H29.25C29.4489 22 29.6397 21.921 29.7803 21.7803C29.921 21.6397 30 21.4489 30 21.25C30 21.0511 29.921 20.8603 29.7803 20.7197C29.6397 20.579 29.4489 20.5 29.25 20.5H27V19H29.25Z" fill="#06C755"/>
</g>
<defs>
<clipPath id="clip0_4058_3233">
<rect width="40" height="40" fill="white"/>
</clipPath>
</defs>
</svg>
