<svg width="40" height="40" viewBox="0 0 40 40" fill="none" xmlns="http://www.w3.org/2000/svg">
<path d="M29.7865 12.0076C27.9301 12.0076 26.1898 12.5028 24.6897 13.3677C24.6686 13.3802 24.6476 13.3939 24.6266 13.4064C24.6214 13.3933 24.6169 13.3808 24.6117 13.3677C22.7195 8.68402 18.1297 5.37988 12.7688 5.37988C5.71656 5.37988 0 11.0965 0 18.1482C0 22.8131 2.50289 26.8935 6.23789 29.1209V33.6457C6.23789 33.6457 12.1702 33.306 18.7824 29.4139C19.2855 29.1454 19.7687 28.8432 20.2285 28.5119C20.5444 28.2843 20.8488 28.0425 21.1413 27.7875C21.159 27.7726 21.1749 27.7573 21.1926 27.7431C21.2016 27.7573 21.2108 27.7727 21.2199 27.7875C21.9102 28.8493 22.7929 29.7742 23.819 30.5134C24.1873 30.7786 24.573 31.0193 24.9754 31.2356C30.2652 34.3479 35.0109 34.6206 35.0109 34.6206V31.0011C37.9997 29.2187 40 25.9544 40 22.2223C40 16.5808 35.4279 12.0076 29.7865 12.0076ZM21.728 22.8255C21.262 23.7162 20.6598 24.5368 19.9508 25.2533C19.5553 25.6534 19.1262 26.021 18.6709 26.3511C18.3067 26.6134 17.9209 26.8536 17.5259 27.0659L17.4781 27.091L17.4314 27.1188C14.3498 28.932 11.4371 29.8863 9.53578 30.3667C9.31664 30.4225 9.10492 30.4737 8.9018 30.5192V27.6088L7.60258 26.8337C6.12461 25.9516 4.8857 24.699 4.0218 23.2114C3.13406 21.6816 2.66398 19.9306 2.66398 18.1482C2.66398 15.4495 3.71508 12.9113 5.62328 11.0032C7.53203 9.09504 10.0697 8.04387 12.7688 8.04387C15.4675 8.04387 18.0051 9.09496 19.9133 11.0032C21.0754 12.1654 21.9199 13.5607 22.4025 15.0836C22.7127 16.0619 22.8726 17.0931 22.8726 18.1482C22.8725 19.8002 22.4878 21.3738 21.728 22.8255ZM32.6155 20.0677C33.0673 20.0677 33.432 20.4331 33.432 20.8844C33.432 21.3351 33.0673 21.7011 32.6155 21.7011C32.1647 21.7011 31.7999 21.3351 31.7999 20.8844C31.7999 20.4331 32.1647 20.0677 32.6155 20.0677ZM27.3661 20.0677C27.818 20.0677 28.1828 20.4331 28.1828 20.8844C28.1828 21.3351 27.818 21.7011 27.3661 21.7011C26.9154 21.7011 26.5506 21.3351 26.5506 20.8844C26.5505 20.4331 26.9154 20.0677 27.3661 20.0677ZM32.6872 24.967C31.9047 25.531 30.9446 25.8628 29.9072 25.8628C28.2852 25.8628 26.8534 25.0513 25.9946 23.8129H33.8197C33.5101 24.2586 33.1265 24.6495 32.6872 24.967Z" fill="#D2A3CB"/>
<path d="M9.3873 18.1632C9.98762 18.1632 10.4736 17.6767 10.4736 17.0762C10.4736 16.4758 9.98762 15.9893 9.3873 15.9893C8.78629 15.9893 8.2998 16.4758 8.2998 17.0762C8.29973 17.6767 8.78629 18.1632 9.3873 18.1632Z" fill="#D2A3CB"/>
<path d="M16.3751 18.1632C16.9749 18.1632 17.4621 17.6767 17.4621 17.0762C17.4621 16.4758 16.9749 15.9893 16.3751 15.9893C15.7747 15.9893 15.2876 16.4758 15.2876 17.0762C15.2876 17.6767 15.7747 18.1632 16.3751 18.1632Z" fill="#D2A3CB"/>
<path d="M12.7687 23.7039C14.1499 23.7039 15.4287 23.2612 16.4696 22.5105C17.0558 22.0883 17.5657 21.5681 17.9777 20.9746H7.55981C8.7031 22.6233 10.6096 23.7039 12.7687 23.7039Z" fill="#D2A3CB"/>
</svg>
