<svg width="150" height="81" viewBox="0 0 150 81" fill="none" xmlns="http://www.w3.org/2000/svg">
<g clip-path="url(#clip0_2576_1209)">
<path d="M45.4796 32.9956C42.4776 28.673 37.4916 26.1607 32.2286 26.3282C22.308 26.3282 15.6406 33.5818 15.6406 44.0821C15.6406 55.2524 23.3065 62.0035 32.2286 62.0035C37.556 62.0937 42.5549 59.4525 45.4796 55.0012V61.0888H48.81V27.0819H45.4796V32.9956ZM32.396 29.4976C38.2324 29.4976 45.6471 33.7493 45.6471 43.8373C45.6471 51.6707 40.9831 58.8405 32.4798 58.8405C23.9765 58.8405 19.145 51.5096 19.145 43.8373C19.145 34.5867 25.6449 29.4976 32.396 29.4976Z" fill="#D2A3CB"/>
<path d="M61.9789 61.0818H65.3094V41.4147C65.3094 34.6636 68.0601 29.4971 73.9737 29.4971C81.3046 29.4971 81.4786 37.0793 81.4786 39.2502V61.0883H84.809V40.5708C84.809 38.49 84.8928 29.4843 93.8921 29.4843C95.7796 29.3876 97.622 30.0833 98.9748 31.4104C100.508 33.4009 101.223 35.9068 100.972 38.4127V61.0883H104.302V38.4192C104.624 35.0694 103.574 31.726 101.384 29.1686C99.3227 27.2167 96.5527 26.1924 93.7182 26.3342C89.4086 26.1345 85.4146 28.5759 83.6302 32.4991C82.2001 28.5502 78.3156 26.0314 74.1283 26.3342C70.4758 26.1989 67.0551 28.1314 65.29 31.3331V27.0814H61.9531V61.0883H61.9789V61.0818Z" fill="#D2A3CB"/>
<path d="M120.168 55.0014C122.976 59.5365 128.007 62.2164 133.335 62.0038C143.674 62.0038 150 53.8355 150 43.8376C150 33.8398 143.751 26.3349 133.496 26.3349C128.226 26.219 123.234 28.7184 120.161 33.0023V27.0822H116.824V80.2602H120.155V55.0014H120.168ZM133.251 58.8344C124.664 58.8344 120 52.167 120 43.6637C120 34.2456 126.667 29.4915 133.335 29.4915C140.337 29.4915 146.502 34.4904 146.502 43.8312C146.502 52.167 141.838 58.8344 133.251 58.8344Z" fill="#D2A3CB"/>
<path d="M1.58389 80.9302H0.65625V72.6201H1.58389V73.3674C2.02194 72.807 2.69834 72.4849 3.41339 72.4913C4.8757 72.5106 6.04169 73.7153 6.02237 75.1776V75.3257C6.13188 76.7559 5.05608 78.0056 3.62597 78.1151C3.568 78.1151 3.51646 78.1215 3.45848 78.1215C2.7241 78.1409 2.02838 77.8059 1.59033 77.2197V80.9302H1.58389ZM5.06252 75.3257C5.15915 74.3208 4.42477 73.4189 3.41339 73.3223C3.38118 73.3223 3.34253 73.3223 3.30388 73.3159C2.27961 73.3545 1.48082 74.2177 1.51947 75.242V75.3129C1.43572 76.3178 2.17654 77.2068 3.18792 77.2905H3.31032C4.30237 77.2583 5.08829 76.4338 5.05608 75.4353C5.05608 75.3966 5.05608 75.358 5.04964 75.3193" fill="#D2A3CB"/>
<path d="M9.56528 69.9463C9.92603 69.9463 10.2224 70.2426 10.2224 70.6034C10.2224 70.9641 9.92603 71.2604 9.56528 71.2604C9.20453 71.2604 8.9082 70.9641 8.9082 70.6034C8.9082 70.2426 9.20453 69.9527 9.56528 69.9463ZM10.0291 77.9729H9.10146V72.6326H10.0291V77.9729Z" fill="#D2A3CB"/>
<path d="M14.3847 68.5742H13.457V77.9665H14.3847V68.5742Z" fill="#D2A3CB"/>
<path d="M21.9093 72.6322H22.8369V77.9725H21.9093V77.2252C21.4777 77.7986 20.8013 78.1336 20.0798 78.1271C18.5273 78.0112 17.3548 76.6584 17.4708 75.1059C17.5739 73.708 18.6819 72.6 20.0798 72.4969C20.7948 72.4776 21.4777 72.8125 21.9093 73.3859V72.6322ZM18.4306 75.2991C18.3083 76.2783 19.004 77.1737 19.9831 77.2961C20.0476 77.3026 20.1184 77.309 20.1828 77.309C21.2844 77.1802 22.0703 76.1817 21.935 75.0801C21.8255 74.1589 21.0976 73.431 20.1828 73.3279C19.2037 73.3343 18.4113 74.1396 18.4178 75.1187C18.4178 75.1767 18.4178 75.2411 18.4306 75.2991Z" fill="#D2A3CB"/>
<path d="M27.2172 73.4704V77.9604H26.2895V73.4704H25.7227V72.6136H26.2895V70.6875H27.2172V72.6136H28.1448V73.4704H27.2172Z" fill="#D2A3CB"/>
<path d="M35.4371 76.6012C35.2696 76.9233 35.0442 77.2131 34.78 77.4579C34.2905 77.896 33.6591 78.1279 33.0021 78.115C31.5849 78.1665 30.3995 77.0521 30.3544 75.6413C30.3544 75.5318 30.3544 75.4287 30.3544 75.3192C30.2256 73.8956 31.2756 72.6329 32.7057 72.5041C32.7895 72.4977 32.8668 72.4912 32.9505 72.4912C33.7429 72.459 34.503 72.8262 34.9733 73.4704C35.334 74.0759 35.508 74.7717 35.4758 75.4803H31.3078C31.2499 76.4208 31.9649 77.2325 32.9054 77.2904H33.015C33.4144 77.3033 33.8073 77.1616 34.1101 76.9039C34.3484 76.7042 34.5352 76.453 34.6641 76.1695L35.4307 76.5947L35.4371 76.6012ZM34.5224 74.7072C34.4193 73.9149 33.7493 73.3222 32.9505 73.3158C32.1582 73.3351 31.4947 73.9213 31.3787 74.7072H34.5224Z" fill="#D2A3CB"/>
<path d="M40.7717 73.8567C40.6557 73.541 40.3594 73.3284 40.0244 73.3155C39.6959 73.2898 39.4124 73.5281 39.3867 73.8567V73.9211C39.3867 74.3076 39.6443 74.4236 40.2434 74.6812C40.7523 74.8423 41.2097 75.1257 41.5834 75.5058C41.7766 75.7441 41.8797 76.0534 41.8668 76.3626C41.8926 77.3095 41.1517 78.0954 40.2048 78.1212H40.0244C39.1676 78.1341 38.4075 77.5737 38.1562 76.7555L38.955 76.4205C39.0968 76.9101 39.5284 77.2644 40.0373 77.2967C40.4947 77.3224 40.8876 76.9746 40.9134 76.5172V76.4399C40.9134 75.9374 40.5526 75.7699 40.0566 75.5509C39.567 75.3898 39.129 75.1193 38.7553 74.765C38.5814 74.5395 38.4912 74.2625 38.5106 73.9791C38.4783 73.1867 39.0903 72.5168 39.8827 72.4781H40.0695C40.7137 72.4652 41.2999 72.8453 41.5383 73.4444L40.7781 73.8567H40.7717Z" fill="#D2A3CB"/>
<path d="M51.6584 73.8564C51.5424 73.5408 51.2461 73.3282 50.9111 73.3153C50.5826 73.2895 50.2991 73.5279 50.2734 73.8564V73.9208C50.2734 74.3074 50.5311 74.4233 51.1302 74.681C51.6391 74.842 52.0964 75.1255 52.4701 75.5056C52.6633 75.7439 52.7664 76.0531 52.7535 76.3623C52.7793 77.3093 52.0385 78.0952 51.0915 78.121H50.9111C50.0544 78.1339 49.2942 77.5734 49.043 76.7553L49.8418 76.4203C49.9835 76.9099 50.4151 77.2642 50.924 77.2964C51.3814 77.3222 51.7743 76.9743 51.8001 76.5169V76.4396C51.8001 75.9372 51.4394 75.7697 50.9433 75.5506C50.4602 75.3896 50.0157 75.119 49.6421 74.7647C49.4681 74.5393 49.378 74.2623 49.3973 73.9788C49.3651 73.1865 49.977 72.5165 50.7694 72.4779H50.9562C51.6004 72.465 52.1866 72.845 52.425 73.4441L51.6648 73.8564H51.6584Z" fill="#D2A3CB"/>
<path d="M56.6176 73.4704V77.9604H55.6899V73.4704H55.123V72.6136H55.6899V70.6875H56.6176V72.6136H57.5452V73.4704H56.6176Z" fill="#D2A3CB"/>
<path d="M61.0248 75.738C60.9797 76.1374 61.0698 76.5432 61.2824 76.8847C61.7656 77.4065 62.5773 77.4322 63.0926 76.9555C63.1184 76.9362 63.1377 76.9104 63.1635 76.8847C63.3761 76.5432 63.4662 76.1374 63.4211 75.738V72.6201H64.3488V75.8475C64.4132 76.4273 64.2393 77.0135 63.8592 77.458C62.9509 78.3534 61.495 78.3534 60.5867 77.458C60.2066 77.0135 60.0327 76.4273 60.0971 75.8475V72.6266H61.0248V75.738Z" fill="#D2A3CB"/>
<path d="M71.8722 68.5742H72.7998V77.9665H71.8722V77.2193C71.4406 77.7926 70.7642 78.1276 70.0427 78.1211C68.4902 78.0052 67.3177 76.6524 67.4337 75.0999C67.5368 73.702 68.6448 72.594 70.0427 72.4909C70.7577 72.4716 71.4406 72.8066 71.8722 73.3799V68.5742ZM68.3935 75.2867C68.2711 76.2659 68.9669 77.1613 69.946 77.2837C70.0105 77.2901 70.0813 77.2966 70.1457 77.2966C71.2473 77.1677 72.0332 76.1692 71.8979 75.0677C71.7884 74.1465 71.0605 73.4185 70.1457 73.3155C69.1666 73.3219 68.3742 74.1271 68.3807 75.1063C68.3807 75.1643 68.3807 75.2287 68.3935 75.2867Z" fill="#D2A3CB"/>
<path d="M76.5555 69.9463C76.9163 69.9463 77.2126 70.2426 77.2126 70.6034C77.2126 70.9641 76.9163 71.2604 76.5555 71.2604C76.1948 71.2604 75.8984 70.9641 75.8984 70.6034C75.8984 70.2426 76.1948 69.9527 76.5555 69.9463ZM77.0193 77.9729H76.0917V72.6326H77.0193V77.9729Z" fill="#D2A3CB"/>
<path d="M3.33047 0H0V60.7601H3.33047V0Z" fill="#D2A3CB"/>
<path d="M80.1114 75.3125C80.0985 73.7471 81.3547 72.4651 82.9201 72.4522C84.4855 72.4394 85.7674 73.6955 85.7803 75.2609C85.7932 76.8263 84.537 78.1082 82.9716 78.1211H82.9459C81.432 78.1727 80.163 76.9809 80.1114 75.4671V75.3125ZM81.0648 75.3125C81.1292 76.3496 82.0182 77.142 83.0554 77.084C84.0925 77.026 84.8849 76.1306 84.8269 75.0934C84.7689 74.0949 83.9444 73.3219 82.9459 73.3219C81.9216 73.3026 81.0777 74.1207 81.0584 75.145V75.3189" fill="#D2A3CB"/>
</g>
<defs>
<clipPath id="clip0_2576_1209">
<rect width="150" height="80.9298" fill="white"/>
</clipPath>
</defs>
</svg>
