<svg width="150" height="81" viewBox="0 0 150 81" fill="none" xmlns="http://www.w3.org/2000/svg">
<g clip-path="url(#clip0_4058_3134)">
<path d="M45.4796 32.9956C42.4776 28.673 37.4916 26.1607 32.2286 26.3282C22.308 26.3282 15.6406 33.5818 15.6406 44.0821C15.6406 55.2524 23.3065 62.0035 32.2286 62.0035C37.556 62.0937 42.5549 59.4525 45.4796 55.0012V61.0888H48.81V27.0819H45.4796V32.9956ZM32.396 29.4976C38.2324 29.4976 45.6471 33.7493 45.6471 43.8373C45.6471 51.6707 40.9831 58.8405 32.4798 58.8405C23.9765 58.8405 19.145 51.5096 19.145 43.8373C19.145 34.5867 25.6449 29.4976 32.396 29.4976Z" fill="#D2A3CB"/>
<path d="M61.9779 61.0818H65.3084V41.4147C65.3084 34.6636 68.0591 29.4971 73.9728 29.4971C81.3037 29.4971 81.4776 37.0793 81.4776 39.2502V61.0883H84.8081V40.5708C84.8081 38.49 84.8918 29.4843 93.8912 29.4843C95.7786 29.3876 97.621 30.0833 98.9738 31.4104C100.507 33.4009 101.222 35.9068 100.971 38.4127V61.0883H104.301V38.4192C104.623 35.0694 103.573 31.726 101.383 29.1686C99.3217 27.2167 96.5517 26.1924 93.7172 26.3342C89.4076 26.1345 85.4136 28.5759 83.6292 32.4991C82.1991 28.5502 78.3146 26.0314 74.1274 26.3342C70.4748 26.1989 67.0541 28.1314 65.2891 31.3331V27.0814H61.9521V61.0883H61.9779V61.0818Z" fill="#D2A3CB"/>
<path d="M120.168 55.0014C122.976 59.5365 128.007 62.2164 133.335 62.0038C143.674 62.0038 150 53.8355 150 43.8376C150 33.8398 143.751 26.3349 133.496 26.3349C128.226 26.219 123.234 28.7184 120.161 33.0023V27.0822H116.824V80.2602H120.155V55.0014H120.168ZM133.251 58.8344C124.664 58.8344 120 52.167 120 43.6637C120 34.2456 126.667 29.4915 133.335 29.4915C140.337 29.4915 146.502 34.4904 146.502 43.8312C146.502 52.167 141.838 58.8344 133.251 58.8344Z" fill="#D2A3CB"/>
<path d="M1.58486 80.9302H0.657227V72.6201H1.58486V73.3674C2.02291 72.807 2.69931 72.4849 3.41437 72.4913C4.87668 72.5106 6.04267 73.7153 6.02334 75.1776V75.3257C6.13285 76.7559 5.05705 78.0056 3.62695 78.1151C3.56897 78.1151 3.51744 78.1215 3.45946 78.1215C2.72508 78.1409 2.02935 77.8059 1.5913 77.2197V80.9302H1.58486ZM5.0635 75.3257C5.16013 74.3208 4.42575 73.4189 3.41437 73.3223C3.38216 73.3223 3.34351 73.3223 3.30485 73.3159C2.28059 73.3545 1.48179 74.2177 1.52044 75.242V75.3129C1.4367 76.3178 2.17752 77.2068 3.1889 77.2905H3.3113C4.30335 77.2583 5.08926 76.4338 5.05705 75.4353C5.05705 75.3966 5.05705 75.358 5.05061 75.3193" fill="#D2A3CB"/>
<path d="M9.56626 69.9463C9.927 69.9463 10.2233 70.2426 10.2233 70.6034C10.2233 70.9641 9.927 71.2604 9.56626 71.2604C9.20551 71.2604 8.90918 70.9641 8.90918 70.6034C8.90918 70.2426 9.20551 69.9527 9.56626 69.9463ZM10.0301 77.9729H9.10244V72.6326H10.0301V77.9729Z" fill="#D2A3CB"/>
<path d="M14.3847 68.5742H13.457V77.9665H14.3847V68.5742Z" fill="#D2A3CB"/>
<path d="M21.9093 72.6322H22.8369V77.9725H21.9093V77.2252C21.4777 77.7986 20.8013 78.1336 20.0798 78.1271C18.5273 78.0112 17.3548 76.6584 17.4708 75.1059C17.5739 73.708 18.6819 72.6 20.0798 72.4969C20.7948 72.4776 21.4777 72.8125 21.9093 73.3859V72.6322ZM18.4306 75.2991C18.3083 76.2783 19.004 77.1737 19.9831 77.2961C20.0476 77.3026 20.1184 77.309 20.1828 77.309C21.2844 77.1802 22.0703 76.1817 21.935 75.0801C21.8255 74.1589 21.0976 73.431 20.1828 73.3279C19.2037 73.3343 18.4113 74.1396 18.4178 75.1187C18.4178 75.1767 18.4178 75.2411 18.4306 75.2991Z" fill="#D2A3CB"/>
<path d="M27.2172 73.4704V77.9604H26.2895V73.4704H25.7227V72.6136H26.2895V70.6875H27.2172V72.6136H28.1448V73.4704H27.2172Z" fill="#D2A3CB"/>
<path d="M35.4371 76.6012C35.2696 76.9233 35.0442 77.2131 34.78 77.4579C34.2905 77.896 33.6591 78.1279 33.0021 78.115C31.5849 78.1665 30.3995 77.0521 30.3544 75.6413C30.3544 75.5318 30.3544 75.4287 30.3544 75.3192C30.2256 73.8956 31.2756 72.6329 32.7057 72.5041C32.7895 72.4977 32.8668 72.4912 32.9505 72.4912C33.7429 72.459 34.503 72.8262 34.9733 73.4704C35.334 74.0759 35.508 74.7717 35.4758 75.4803H31.3078C31.2499 76.4208 31.9649 77.2325 32.9054 77.2904H33.015C33.4144 77.3033 33.8073 77.1616 34.1101 76.9039C34.3484 76.7042 34.5352 76.453 34.6641 76.1695L35.4307 76.5947L35.4371 76.6012ZM34.5224 74.7072C34.4193 73.9149 33.7493 73.3222 32.9505 73.3158C32.1582 73.3351 31.4947 73.9213 31.3787 74.7072H34.5224Z" fill="#D2A3CB"/>
<path d="M40.7707 73.8564C40.6547 73.5408 40.3584 73.3282 40.0234 73.3153C39.6949 73.2895 39.4114 73.5279 39.3857 73.8564V73.9208C39.3857 74.3074 39.6434 74.4233 40.2425 74.681C40.7514 74.842 41.2087 75.1255 41.5824 75.5056C41.7756 75.7439 41.8787 76.0531 41.8658 76.3623C41.8916 77.3093 41.1508 78.0952 40.2038 78.121H40.0234C39.1667 78.1339 38.4065 77.5734 38.1553 76.7553L38.9541 76.4203C39.0958 76.9099 39.5274 77.2642 40.0363 77.2964C40.4937 77.3222 40.8866 76.9743 40.9124 76.5169V76.4396C40.9124 75.9372 40.5517 75.7697 40.0556 75.5506C39.5661 75.3896 39.128 75.119 38.7544 74.7647C38.5804 74.5393 38.4903 74.2623 38.5096 73.9788C38.4774 73.1865 39.0894 72.5165 39.8817 72.4779H40.0685C40.7127 72.465 41.2989 72.845 41.5373 73.4441L40.7771 73.8564H40.7707Z" fill="#D2A3CB"/>
<path d="M51.6574 73.8564C51.5415 73.5408 51.2451 73.3282 50.9101 73.3153C50.5816 73.2895 50.2982 73.5279 50.2724 73.8564V73.9208C50.2724 74.3074 50.5301 74.4233 51.1292 74.681C51.6381 74.842 52.0955 75.1255 52.4691 75.5056C52.6623 75.7439 52.7654 76.0531 52.7525 76.3623C52.7783 77.3093 52.0375 78.0952 51.0905 78.121H50.9101C50.0534 78.1339 49.2932 77.5734 49.042 76.7553L49.8408 76.4203C49.9825 76.9099 50.4141 77.2642 50.923 77.2964C51.3804 77.3222 51.7734 76.9743 51.7991 76.5169V76.4396C51.7991 75.9372 51.4384 75.7697 50.9424 75.5506C50.4592 75.3896 50.0147 75.119 49.6411 74.7647C49.4672 74.5393 49.377 74.2623 49.3963 73.9788C49.3641 73.1865 49.9761 72.5165 50.7684 72.4779H50.9552C51.5994 72.465 52.1856 72.845 52.424 73.4441L51.6639 73.8564H51.6574Z" fill="#D2A3CB"/>
<path d="M56.6176 73.4704V77.9604H55.6899V73.4704H55.123V72.6136H55.6899V70.6875H56.6176V72.6136H57.5452V73.4704H56.6176Z" fill="#D2A3CB"/>
<path d="M61.0248 75.738C60.9797 76.1374 61.0698 76.5432 61.2824 76.8847C61.7656 77.4065 62.5773 77.4322 63.0926 76.9555C63.1184 76.9362 63.1377 76.9104 63.1635 76.8847C63.3761 76.5432 63.4662 76.1374 63.4211 75.738V72.6201H64.3488V75.8475C64.4132 76.4273 64.2393 77.0135 63.8592 77.458C62.9509 78.3534 61.495 78.3534 60.5867 77.458C60.2066 77.0135 60.0327 76.4273 60.0971 75.8475V72.6266H61.0248V75.738Z" fill="#D2A3CB"/>
<path d="M71.8722 68.5742H72.7998V77.9665H71.8722V77.2193C71.4406 77.7926 70.7642 78.1276 70.0427 78.1211C68.4902 78.0052 67.3177 76.6524 67.4337 75.0999C67.5368 73.702 68.6448 72.594 70.0427 72.4909C70.7577 72.4716 71.4406 72.8066 71.8722 73.3799V68.5742ZM68.3935 75.2867C68.2711 76.2659 68.9669 77.1613 69.946 77.2837C70.0105 77.2901 70.0813 77.2966 70.1457 77.2966C71.2473 77.1677 72.0332 76.1692 71.8979 75.0677C71.7884 74.1465 71.0605 73.4185 70.1457 73.3155C69.1666 73.3219 68.3742 74.1271 68.3807 75.1063C68.3807 75.1643 68.3807 75.2287 68.3935 75.2867Z" fill="#D2A3CB"/>
<path d="M76.5555 69.9463C76.9163 69.9463 77.2126 70.2426 77.2126 70.6034C77.2126 70.9641 76.9163 71.2604 76.5555 71.2604C76.1948 71.2604 75.8984 70.9641 75.8984 70.6034C75.8984 70.2426 76.1948 69.9527 76.5555 69.9463ZM77.0193 77.9729H76.0917V72.6326H77.0193V77.9729Z" fill="#D2A3CB"/>
<path d="M3.33047 0H0V60.7601H3.33047V0Z" fill="#D2A3CB"/>
<path d="M80.1114 75.3125C80.0985 73.7471 81.3547 72.4651 82.9201 72.4522C84.4855 72.4394 85.7674 73.6955 85.7803 75.2609C85.7932 76.8263 84.537 78.1082 82.9716 78.1211H82.9459C81.432 78.1727 80.163 76.9809 80.1114 75.4671V75.3125ZM81.0648 75.3125C81.1292 76.3496 82.0182 77.142 83.0554 77.084C84.0925 77.026 84.8849 76.1306 84.8269 75.0934C84.7689 74.0949 83.9444 73.3219 82.9459 73.3219C81.9216 73.3026 81.0777 74.1207 81.0584 75.145V75.3189" fill="#D2A3CB"/>
</g>
<defs>
<clipPath id="clip0_4058_3134">
<rect width="150" height="80.9298" fill="white"/>
</clipPath>
</defs>
</svg>
