<svg width="184" height="85" viewBox="0 0 184 85" fill="none" xmlns="http://www.w3.org/2000/svg">
<path d="M80.4522 11.9483C82.0623 13.4717 83.9055 15.5836 84.5482 16.6413C85.7039 18.5434 86.3953 21.6596 85.8495 22.5062C85.6942 22.747 85.9408 24.0922 86.3972 25.4957C87.5859 29.1516 87.0666 32.5005 84.7552 36.0856C82.3484 39.8186 78.7576 42.0177 75.1309 41.9797C73.7787 41.9656 72.6033 42.0781 72.5187 42.2299C72.2809 42.6546 86.7946 65.2694 92.3809 73.1794C99.0914 82.6813 117.103 105.689 118.573 106.637C118.773 106.766 119.069 105.384 119.23 103.566C119.392 101.748 119.762 99.3203 120.053 98.1705C122.425 88.7823 124.807 67.1832 123.209 69.551C122.622 70.4193 119.242 70.9619 117.266 70.5045C111.816 69.2436 105.297 60.9402 102.427 51.6025C101.185 47.5608 100.891 42.7441 101.802 41.3321C102.567 40.1451 104.272 40.3916 110.6 42.6049C118.06 45.2135 123.831 49.8262 125.861 54.802C126.838 57.1961 126.929 58.0847 126.596 61.9726C126.502 63.0815 126.513 65.6871 126.622 67.7628C127.029 75.5338 126.075 83.8679 123.105 98.4953C122.488 101.539 122.041 104.874 122.113 105.908C122.188 106.986 121.918 108.048 121.48 108.4C120.699 109.027 122.662 111.198 134.462 122.758C136.856 125.104 137.481 126.002 137.243 126.758C136.976 127.607 137.23 127.873 139.188 128.799C161.066 139.155 172.078 144.772 179.351 149.286C184.093 152.229 184.337 152.446 183.813 153.258C183.293 154.065 182.675 153.802 173.544 148.887C155.069 138.94 131.974 128.185 116.345 122.249C107.838 119.017 96.861 115.945 89.795 114.817C84.515 113.974 73.632 113.652 71.1191 114.265C70.3255 114.458 69.3399 114.428 68.9291 114.196C68.5171 113.967 68.8757 114.478 69.7243 115.338C70.6381 116.263 71.5417 117.981 71.9417 119.553C73.7427 126.631 67.8858 134.695 59.5494 136.616C57.311 137.132 56.7477 137.502 55.9817 138.958C54.5388 141.702 49.9894 146.675 47.8244 147.875C45.1193 149.375 42.9458 149.424 38.5584 148.084C36.5069 147.458 32.3465 146.691 29.3132 146.38C24.1173 145.848 23.6026 145.689 20.4225 143.639C16.4683 141.089 13.8979 138.334 12.1615 134.783C11.2606 132.941 10.1625 131.649 8.22095 130.146C5.09271 127.724 2.13367 123.342 0.747152 119.077C-0.417778 115.494 -0.291988 114.098 1.63302 109.243C3.32128 104.985 3.51933 103.7 3.38137 97.8961C3.2866 93.9087 4.33636 91.3826 6.82304 89.6142C8.7831 88.2203 14.7541 87.1677 16.9387 87.8311C18.691 88.3632 19.1076 88.2593 20.251 87.0047C21.9731 85.1153 26.4739 83.344 30.0309 83.1558C34.7568 82.9059 37.9952 84.2055 44.3219 88.8913C47.294 91.0921 53.9129 95.6039 59.0311 98.9169C68.165 104.828 68.3458 104.972 68.8184 106.679C69.0833 107.634 69.1855 109.116 69.0455 109.971L68.7911 111.525L73.2831 111.152C86.9897 110.013 102.851 113.56 125.125 122.747C128.802 124.263 132.274 125.784 132.841 126.127C133.83 126.724 133.845 126.711 133.221 125.778C132.864 125.243 129.33 121.589 125.37 117.658C117.01 109.36 112.033 103.756 104.794 94.4889C101.901 90.7853 99.2922 87.857 98.9157 87.8903C97.7722 87.9912 85.3014 81.9905 67.4886 72.7679C58.1434 67.9294 49.8121 63.6966 48.9747 63.3616C46.354 62.3134 44.2551 62.3228 42.6422 63.3901C41.7865 63.9563 39.9992 64.4798 38.6704 64.5535C36.5659 64.6702 35.6298 64.3528 31.4115 62.0921C26.5485 59.486 19.1968 54.0401 17.456 51.7537C16.5136 50.5162 17.1471 49.0792 18.7011 48.9296C19.2641 48.8753 21.1225 48.1897 22.8309 47.4058C25.1232 46.354 26.7106 46.0563 28.8889 46.2699C32.0312 46.5781 36.466 48.2298 39.6325 50.2713C42.1972 51.9249 45.336 56.0753 45.3906 57.8852C45.4326 59.2788 45.5277 59.3642 47.7522 60.0049C49.027 60.372 56.8434 64.2027 65.1218 68.5174C73.4003 72.8322 83.5203 77.9838 87.6107 79.9654C91.701 81.947 95.2429 83.6943 95.4814 83.8481C95.7203 84.0021 96.0397 83.9346 96.192 83.6984C96.3443 83.462 96.2562 83.132 95.9962 82.9643C94.9294 82.2766 84.5289 67.1211 77.693 56.2932L70.38 44.7095L68.8382 46.4362C65.3147 50.3821 60.3675 52.0593 55.0324 51.1165C51.0568 50.4139 45.5108 47.2439 42.4371 43.9174C39.7286 40.9862 38.1254 37.135 39.016 35.6988C39.4096 35.0604 39.2014 33.9352 38.372 32.2412C37.1128 29.6696 37.2321 28.007 38.7907 26.4022C39.4669 25.7064 39.4273 25.1568 38.599 23.7247C36.7879 20.5934 36.8433 17.8407 38.7818 14.6423C39.7113 13.1091 40.4309 11.5 40.3815 11.0669C40.094 8.54858 42.1944 4.1927 44.4917 2.54282C46.5774 1.04489 50.0314 -0.0853583 52.2463 0.00516048C53.4077 0.0525499 55.913 0.838169 57.8812 1.772C60.4455 2.98865 61.9134 3.38018 63.192 3.18818C66.6887 2.6632 68.4639 3.21681 73.1318 6.28804C75.548 7.87733 78.8421 10.4247 80.4522 11.9483ZM66.4964 6.05531C65.3798 5.91986 63.7876 6.05526 62.9582 6.35621C61.0746 7.03966 58.8712 9.19119 59.5842 9.65087C59.8631 9.83068 60.2212 9.77688 60.3795 9.53127C60.888 8.74259 64.2967 7.78599 66.3058 7.86803C68.9503 7.97605 72.7237 10.4589 75.3197 13.7991C76.4303 15.2282 77.4476 16.6749 77.5802 17.0138C77.713 17.3526 78.9547 18.2184 80.3399 18.9375C82.4133 20.0144 82.8346 20.0815 82.7238 19.3188C82.6494 18.8091 81.6805 17.3734 80.57 16.1277C75.8388 10.8211 69.7272 6.44729 66.4964 6.05531ZM66.1008 10.8068C64.993 10.7549 63.9756 10.8849 63.8399 11.0954C63.4708 11.6678 67.879 16.3405 70.9504 18.6326C73.6164 20.6222 73.6517 20.6315 74.3668 19.5224C74.8957 18.7021 74.8395 18.0597 74.1572 17.1245C70.3928 11.965 69.0943 10.9467 66.1008 10.8068ZM52.5726 2.96052C50.698 2.74362 46.9693 4.22845 45.1327 5.92315C44.5576 6.45383 43.8819 7.73 43.6312 8.75912L43.1753 10.6301L45.9834 10.3169C47.5279 10.1446 49.5467 10.3193 50.4697 10.7052C51.3926 11.0911 52.2906 11.1871 52.4648 10.9189C52.639 10.6507 53.6592 10.0396 54.7317 9.56114C55.8475 9.06341 57.1762 7.9542 57.8374 6.96849L58.993 5.24577L56.6911 4.2082C55.425 3.63744 53.5716 3.07611 52.5726 2.96052ZM78.2749 21.0546C77.035 20.7703 76.7845 20.9549 75.6157 23.0149C74.9063 24.2659 74.3719 25.3828 74.4279 25.4969C74.4841 25.6114 75.0564 26.4897 75.6995 27.4488C77.3567 29.9207 76.9589 32.6643 74.4551 36.031C72.164 39.1117 72.4431 39.6128 76.0661 38.9229C80.1754 38.1404 83.4344 34.6678 83.9476 30.5248C84.2894 27.7658 83.7874 26.0007 82.0322 23.7889C80.3974 21.7288 80.0209 21.4551 78.2749 21.0546ZM115.532 50.4326C115.37 52.4515 114.93 53.6876 113.868 55.1073C112.466 56.9814 112.462 57.0511 113.717 57.5066C116.129 58.3811 120.581 58.6998 122.017 58.1005C123.598 57.4408 123.73 56.4475 122.518 54.3348C121.739 52.9769 118.452 49.549 116.908 48.4844L115.753 47.6879L115.532 50.4326ZM57.1236 12.0012C56.2909 11.9888 55.4403 12.2412 55.2332 12.5624C54.92 13.0482 55.2443 13.2476 57.1644 13.7495C59.8216 14.4442 63.9542 17.508 65.4837 19.9171C66.3402 21.2661 66.5309 21.3695 67.5154 21.0188C68.4966 20.6689 68.4553 20.4943 67.0903 19.2183C66.2589 18.4412 64.7488 16.8644 63.7347 15.7144C61.6332 13.3316 59.3233 12.0341 57.1236 12.0012ZM107.228 44.4824L104.122 43.5387L104.323 46.1119C104.5 48.3866 106.049 53.794 107.072 55.7074C107.325 56.1801 108.132 55.9606 109.638 55.0096C112.09 53.4614 112.889 51.61 112.505 48.3668C112.27 46.3848 111.414 45.7543 107.228 44.4824ZM67.5688 24.2381C66.499 24.7461 65.3071 25.6528 64.9201 26.2529C64.5332 26.8531 63.5532 27.7782 62.7422 28.3086C60.1964 29.974 58.3286 31.5403 58.423 31.9304C58.6117 32.7109 63.0989 33.4296 64.5561 32.9127C67.2848 31.9447 71.7099 26.4259 71.7023 24.0002C71.6997 23.1704 69.5578 23.2937 67.5688 24.2381ZM56.0952 16.4846C53.8602 16.1131 53.58 16.215 52.342 17.85C51.1543 19.4195 50.8803 19.5369 49.8972 18.903C49.094 18.3852 48.9007 17.8438 49.1933 16.9299C49.4876 16.0094 49.0028 16.3866 47.3924 18.3292C45.2108 20.9612 45.1912 21.0202 45.4573 24.1736C46.1048 31.8472 48.8511 35.2748 52.3551 32.7828C53.576 31.9146 53.5741 31.9098 51.5381 30.5971C47.8614 28.2267 46.0913 23.3764 48.0197 20.9563C48.944 19.7961 49.2713 19.7111 50.314 20.3588C51.0894 20.8407 52.697 20.9408 54.7497 20.6355C58.232 20.1178 59.8828 20.7605 61.1817 23.1398C62.1565 24.9251 62.4747 25.0951 63.081 24.1547C63.8384 22.9799 63.069 21.0468 61.105 19.1893C58.6497 16.8673 58.7617 16.9277 56.0952 16.4846ZM117.317 61.3053C116.024 61.1459 113.615 60.5003 111.964 59.8708C109.255 58.8382 109.006 58.8353 109.42 59.8418C109.672 60.4554 110.95 62.1985 112.259 63.7154C117.41 69.6839 122.452 69.1963 123.506 62.6277L123.822 60.6566L121.745 61.1259C120.603 61.384 118.61 61.4647 117.317 61.3053ZM66.8784 35.3399C64.3225 36.6812 60.3577 36.2835 57.4231 34.3914C56.1461 33.5681 55.8243 33.5994 54.7891 34.6464C54.1407 35.3027 52.7209 36.0283 51.6347 36.2594C50.0024 36.6065 49.278 36.4333 47.4597 35.261C45.0107 33.682 44.1695 32.5312 43.3647 29.6595C42.8422 27.7946 42.7698 27.7275 41.6952 28.1087C40.1072 28.672 40.0909 29.6612 41.63 32.0822C43.8328 35.5472 48.1456 37.5766 53.7014 37.7624C55.5744 37.8251 59.0419 38.0234 61.4069 38.2031C66.8276 38.615 68.3301 38.2475 70.8048 35.9046C73.0141 33.8128 74.0248 31.6132 73.5943 29.8334C73.3311 28.7453 73.1075 28.8872 70.6059 31.73C69.1188 33.4201 67.4414 35.0445 66.8784 35.3399ZM42.946 14.2319C40.2048 15.9133 39.4765 19.5258 41.2751 22.5217L42.1669 24.0071L42.3638 21.5725C42.5408 19.3859 42.7666 18.93 44.5817 17.0973C45.693 15.9749 46.899 14.597 47.2613 14.0351C47.9109 13.0275 47.8941 13.0118 46.3238 13.0763C45.4459 13.1108 43.9259 13.6308 42.946 14.2319ZM53.6647 23.7782L50.2309 24.3144L51.1434 26.1009C52.281 28.3283 52.9077 28.7363 55.3674 28.8513C57.8466 28.9673 59.1191 27.9831 59.0592 25.9961C58.9923 23.7749 57.532 23.1744 53.6647 23.7782ZM62.087 41.1596C60.7473 40.9955 57.9462 40.8618 55.8624 40.8625C51.502 40.8638 46.662 39.6003 43.6194 37.6664L41.5094 36.3239L42.0829 38.1731C42.8604 40.6797 45.1473 43.1651 48.9357 45.6208C51.6139 47.3566 52.7004 47.7517 56.0437 48.2035C60.5388 48.811 63.1692 47.9116 66.5176 44.6218C69.3362 41.8525 69.3752 40.9567 66.6646 41.2361C65.4868 41.3576 63.4266 41.3237 62.087 41.1596ZM32.6618 49.9617C32.2504 49.9294 32.116 50.9602 32.3047 52.6999L32.6073 55.4903L34.233 54.0572C35.1274 53.2691 36.14 52.4255 36.4837 52.1828C36.9758 51.8352 36.7062 51.5579 35.2149 50.8776C34.1735 50.4026 33.0246 49.9904 32.6618 49.9617ZM39.3386 54.2484C38.8914 54.2353 37.5951 55.0535 36.458 56.0667C35.321 57.0798 33.7629 58.1706 32.9958 58.4908C31.6024 59.0723 31.6028 59.074 33.3028 60.1692C38.3806 63.4407 44.3687 60.5912 41.6252 56.2092C40.4303 54.3005 40.4062 54.2798 39.3386 54.2484ZM23.8665 50.2834L21.1465 51.6235L22.6708 52.9453C26.3145 56.1053 28.0779 57.1235 28.7363 56.4477C29.5057 55.6582 29.5557 52.0068 28.8207 50.3157C28.1083 48.6769 27.14 48.6706 23.8665 50.2834ZM33.384 86.2855C32.0246 86.1209 29.8501 86.1181 28.5518 86.2794C25.5778 86.6488 21.6663 89.0928 21.0175 90.9871C20.3559 92.9187 20.2282 96.7191 20.8129 97.0748C21.0813 97.2388 22.3294 97.2261 23.5856 97.0477C25.3464 96.7976 26.0955 96.3729 26.856 95.1933C28.1208 93.2315 30.0739 92.1779 33.1555 91.7951C37.9312 91.2019 40.4434 92.6601 50.606 101.924C59.004 109.58 60.4081 111.386 60.8366 115.083L61.079 117.174L63.2377 114.53C65.7015 111.512 66.268 110.137 65.9702 107.899L65.76 106.319L54.7098 99.1945C48.6322 95.2761 43.5977 91.7946 43.5221 91.4579C43.2624 90.302 36.0167 86.6009 33.384 86.2855ZM37.4481 95.1249C34.779 94.2573 30.1184 95.0841 29.1421 96.5983C28.2972 97.9089 29.2811 98.3539 32.1076 97.9398C35.4513 97.45 38.7735 98.368 42.6501 100.853C46.1348 103.082 46.3502 103.331 49.6663 108.784C53.7988 115.579 54.5477 117.245 54.5378 119.616L54.53 121.439L55.8629 120.057C56.7013 119.187 57.3458 117.935 57.6001 116.682C58.1167 114.137 55.9748 110.454 51.8165 106.737C50.2002 105.292 47.1742 102.519 45.0922 100.574C40.4709 96.258 40.0826 95.9812 37.4481 95.1249ZM63.4434 118.563C61.7271 120.375 60.5368 121.23 59.7687 121.202C59.1439 121.179 58.3777 121.546 58.0663 122.017C57.066 123.527 53.4616 125.436 52.6248 124.896C51.9888 124.486 51.9259 124.775 52.2899 126.434C52.5887 127.797 53.0813 128.594 53.7688 128.829C54.4338 129.056 55.1254 130.086 55.7172 131.733C56.5499 134.05 56.7444 134.271 57.8187 134.12C60.3331 133.767 64.9816 131.182 66.6162 129.228C70.0423 125.131 70.0877 118.801 66.7082 116.399C66.1468 115.996 65.4109 116.485 63.4434 118.563ZM36.0641 101.093C31.2304 100.335 29.1201 101.661 29.7185 105.08C30.0444 106.941 30.0751 106.972 30.6882 106.051C31.1155 105.416 32.196 105.11 33.9704 105.128C36.3838 105.154 36.9832 105.393 40.7097 107.813C46.062 111.291 47.8797 113.994 48.0302 118.71C48.117 121.428 48.3052 121.952 49.231 122.046C50.7743 122.203 51.975 120.115 51.4318 118.219C51.1888 117.37 49.3675 113.96 47.3845 110.641C43.1579 103.567 41.1737 101.893 36.0641 101.093ZM12.5826 90.76C7.82332 91.556 6.00131 93.3423 6.32068 96.8995C6.76395 101.837 6.31399 105.36 4.75615 109.15C2.9063 113.649 2.66203 115.64 3.61146 118.479C4.43921 120.954 6.65618 124.673 8.51098 126.697L9.85266 128.161L10.351 125.84C10.6949 124.238 10.5637 123.12 9.92746 122.234C8.76463 120.614 7.75789 115.66 7.99527 112.726C8.30718 108.871 9.82965 104.491 12.1434 100.791C14.0825 97.6909 14.5743 97.1897 15.9309 96.9314L17.49 96.6344L17.3869 94.4255C17.3302 93.2106 17.4503 91.9586 17.6536 91.6432C18.2197 90.7652 15.4429 90.2813 12.5826 90.76ZM25.2679 99.9381C21.4758 99.7608 19.5557 101.398 19.8407 104.566C19.9411 105.682 20.0345 105.746 21.5812 105.769C22.51 105.783 23.5686 106.17 24.0333 106.664C24.483 107.143 25.3599 107.587 25.9817 107.65C27.048 107.759 27.089 107.629 26.6989 105.388C26.4366 103.881 26.5856 102.544 27.1058 101.737C28.0723 100.238 27.892 100.061 25.2679 99.9381ZM34.369 108.047C31.3835 107.69 31.7325 108.541 35.9864 111.992C37.0854 112.884 38.3792 114.219 38.8617 114.959C39.4165 115.809 40.7491 116.84 42.487 117.762C45.2306 119.217 45.235 119.218 45.1435 117.79C44.8875 113.8 39.1612 108.622 34.369 108.047ZM14.2886 102.613C11.2959 107.563 10.2299 115.174 11.9249 119.485C12.8536 121.848 16.0121 125.602 18.3263 127.094L19.9014 128.109L19.5496 126.426C19.314 125.299 19.5074 124.37 20.135 123.613C21.2218 122.302 20.9015 121.022 18.6757 117.783C17.0027 115.348 16.0919 111.261 16.7653 109.21C17.0128 108.457 17.144 106.464 17.0569 104.783C16.9609 102.928 17.2372 101.201 17.7595 100.39L18.6204 99.0552L17.2037 99.5946C16.2317 99.9648 15.3166 100.912 14.2886 102.613ZM28.0985 111.24C26.5705 110.772 25.3209 110.614 25.3218 110.888C25.3248 111.85 29.1713 114.483 32.7263 115.958C36.8799 117.681 37.3414 117.713 36.2281 116.2C34.9772 114.499 31.1816 112.184 28.0985 111.24ZM46.2964 125.442C45.5143 126.655 41.8211 126.93 36.5717 126.167C33.558 125.729 32.5349 125.313 29.2378 123.185C26.7473 121.577 25.1038 120.203 24.5421 119.26C23.7565 117.942 23.6489 117.884 23.3604 118.621C22.9662 119.628 24.4695 122.516 26.3845 124.429C27.6128 125.656 29.0898 126.2 36.3525 128.109C41.0418 129.341 45.7161 130.445 46.7397 130.564C49.0308 130.829 50.0408 129.528 49.5255 126.977C49.073 124.736 47.2957 123.892 46.2964 125.442ZM39.0673 119.821C38.758 120.301 38.0803 120.572 37.5611 120.425C37.042 120.277 36.1001 120.066 35.4683 119.957C34.8365 119.848 32.7652 119.05 30.8657 118.184C26.6586 116.267 25.7701 116.334 27.5195 118.437C30.3718 121.867 36.1917 123.895 42.4541 123.64C44.9685 123.538 44.7188 122.23 41.8291 120.367C39.9189 119.135 39.5556 119.064 39.0673 119.821ZM20.7019 108.799C19.4283 109.167 19.134 111.259 19.9936 113.83L20.7009 115.945L22.5209 115.405C23.522 115.109 24.4197 114.76 24.516 114.63C24.613 114.5 24.0454 113.725 23.2563 112.906C22.3496 111.965 21.8871 110.957 21.9993 110.165C22.2051 108.714 21.945 108.44 20.7019 108.799ZM50.9404 132.46C49.0815 134.043 46.8098 133.869 37.2396 131.41C30.2753 129.621 28.3171 128.915 25.7953 127.286C24.122 126.206 22.6509 125.48 22.5258 125.674C22.1483 126.259 24.0122 129.469 24.8382 129.655C25.2617 129.751 25.7529 130.263 25.9349 130.785C26.4408 132.264 29.09 133.1 34.1972 133.393C38.5377 133.641 40.8734 134.267 47.8824 137.061C49.4801 137.698 51.4646 138.162 52.2928 138.092C53.7839 137.967 53.7979 137.948 53.745 136.193C53.692 134.434 53.0235 131.898 52.5167 131.532C52.3726 131.426 51.6622 131.845 50.9404 132.46ZM44.3207 138.692C42.1627 137.798 39.1932 136.929 37.7217 136.761C36.2503 136.592 33.4358 136.279 31.4674 136.065C27.931 135.679 27.8008 135.62 20.5344 131.093L13.1804 126.511L13.1463 128.16C13.1274 129.068 13.3655 129.973 13.6754 130.173C13.9851 130.373 14.2094 131.021 14.1735 131.613C14.069 133.337 17.8742 138.556 20.8288 140.741C23.2961 142.566 23.8214 142.727 29.8943 143.513C33.4399 143.973 37.5742 144.801 39.0817 145.354C42.5844 146.638 45.2056 146.354 47.7314 144.416C50.6903 142.146 51.0966 141.32 49.5261 140.768C48.8212 140.52 46.4788 139.586 44.3207 138.692Z" fill="white" fill-opacity="0.2"/>
</svg>
