<svg width="161" height="100" viewBox="0 0 161 100" fill="none" xmlns="http://www.w3.org/2000/svg">
<path d="M152.593 72.184C150.677 73.9084 146.83 76.3691 144.499 77.3609C141.231 78.7522 139.971 78.1998 137.443 74.2687L135.655 71.4881L130.421 74.2125C114.178 82.6674 103.177 89.4791 87.9826 100.491C53.917 125.178 33.0276 148.038 18.393 176.643C15.3236 182.642 13.3542 186.006 11.8846 187.759C9.22201 190.934 7.71502 193.523 4.53101 200.393C2.25248 205.31 1.89359 205.867 1.07263 205.766C0.568782 205.704 0.0879923 205.371 0.00403794 205.027C-0.0799312 204.683 1.15324 201.534 2.74428 198.03C4.33531 194.525 6.80623 188.58 8.23516 184.817C9.66413 181.054 11.9635 175.013 13.345 171.393C14.7264 167.773 18.1964 159.62 21.0561 153.276C35.9995 120.127 40.141 106.879 42.5073 84.6575C43.4927 75.4033 43.5387 68.1859 42.659 60.8163C42.0329 55.5701 41.8406 54.9958 40.4527 54.227L38.9323 53.3848L39.2892 55.4697C39.6769 57.7348 38.389 60.8365 36.8618 61.3158C35.5708 61.7209 32.2786 59.6558 30.9618 57.6148C29.6475 55.5779 28.3067 50.2206 28.2269 46.6878C28.192 45.1421 27.8458 44.1765 27.1975 43.8174C25.6898 42.9823 24.2618 39.448 24.4586 37.0394C24.585 35.4936 25.1004 34.1671 26.2492 32.4313C28.49 29.0456 30.8317 28.3391 35.3511 29.6855C37.3513 30.2814 39.5956 30.5246 40.9517 30.2924C43.7253 29.8174 48.2774 30.3462 50.0984 31.355C52.1864 32.5116 52.9645 34.5659 51.9847 36.3347C51.5292 37.1569 50.808 37.939 50.382 38.0727C49.8204 38.2489 50.0905 38.7036 51.3639 39.7261C54.8402 42.5173 54.2423 45.6762 50.0713 46.5554L47.7037 47.0545L48.9291 48.8809C50.0125 50.4959 50.0484 50.9349 49.2388 52.6731C48.5051 54.2487 47.9815 54.7345 46.6015 55.1207L44.8799 55.6025L45.5291 60.0275C46.4403 66.2374 46.5286 71.5626 45.8601 79.9866C43.9861 103.602 39.1712 119.992 25.0347 150.88C20.7198 160.308 15.947 171.883 13.2992 179.342C11.8612 183.392 11.8977 183.338 16.2911 174.865C25.8765 156.38 39.3615 138.445 54.058 124.635L58.1646 120.776L64.6335 109.331C73.2294 94.1243 76.2671 86.698 78.8501 74.5772C80.7605 65.6126 82.1009 55.6658 83.0483 43.4228C83.5135 37.4113 84.0891 32.1408 84.3275 31.7105C84.6316 31.1616 84.3773 30.7157 83.4751 30.2159C82.7679 29.8242 82.1118 29.0317 82.017 28.4549C81.8661 27.5366 81.6737 27.5456 80.4699 28.5274C79.7138 29.144 78.7002 29.5999 78.2175 29.5404C76.7961 29.3651 75.7228 27.3293 75.8976 25.1405C76.0312 23.4678 75.7956 22.9243 74.5791 22.099C72.5078 20.6936 72.3346 18.306 74.0395 14.6574C75.679 11.1487 78.7812 8.47334 81.3182 8.38034C82.953 8.3204 83.0356 8.23344 84.7407 4.773C86.4689 1.26556 86.515 1.21861 88.9681 0.448676C91.1616 -0.239722 91.7142 -0.18237 93.7493 0.944964C97.1297 2.81751 99.9667 7.69488 98.8491 9.71238C98.5185 10.3092 98.5175 10.9468 98.8469 11.1293C100.417 11.9991 103.376 17.6298 104.137 21.1954C105.043 25.4445 104.787 27.2552 103.096 28.556C102.159 29.277 101.65 29.2434 100.045 28.3543C98.9862 27.7675 97.5959 26.4765 96.956 25.4852L95.7925 23.6829L95.4378 25.1042C95.2427 25.8859 94.381 27.7927 93.523 29.3416C91.9676 32.1494 91.9592 32.1561 90.4945 31.53C89.4535 31.0851 88.8173 30.315 88.3099 28.8852L87.5939 26.8681L86.9511 28.0285C86.527 28.7941 86.5661 29.4407 87.066 29.9293C87.4827 30.3367 87.625 31.0285 87.3822 31.4669C87.1394 31.9052 86.4548 37.8312 85.8608 44.6358C83.2475 74.577 80.7269 84.3546 70.7105 103.404L64.6292 114.97L69.6857 110.81C86.99 96.5754 106.013 83.817 124.601 73.9801C133.554 69.2418 134.405 68.6754 134.532 67.367C134.608 66.58 134.428 65.8019 134.132 65.6379C133.836 65.4739 133.295 64.5789 132.93 63.6491C132.481 62.508 131.599 61.5706 130.215 60.7652C128.333 59.6696 128.21 59.4625 128.721 58.2403C129.028 57.5079 130.174 56.2794 131.267 55.5103L133.256 54.112L131.996 53.4139C130.378 52.5174 130.092 51.3486 131.062 49.5966C132.807 46.4478 141.533 45.8159 146.358 48.489C148.247 49.535 148.879 49.6286 150.164 49.0514C152.318 48.0842 154.714 48.2107 156.871 49.4055C158.955 50.5599 159.832 51.7319 160.641 54.4434C161.126 56.0728 161.004 56.6799 159.737 58.9281C158.931 60.3585 157.63 62.3074 156.847 63.2596C155.832 64.4933 155.458 65.3334 155.545 66.1826C155.665 67.352 153.84 71.0621 152.593 72.184ZM152.567 66.6088C152.629 64.8256 152.142 64.9108 149.776 67.0966C148.578 68.2039 145.983 70.112 144.011 71.3368C141.161 73.1063 140.504 73.7166 140.81 74.3078C141.022 74.7172 141.342 75.1376 141.522 75.2424C142.129 75.5971 147.428 72.7177 149.62 70.8435C152.169 68.6632 152.513 68.1689 152.567 66.6088ZM158.089 55.8714C157.984 54.5352 156.687 52.3701 155.645 51.7932C154.244 51.0169 151.037 51.4881 150.444 52.5574C150.127 53.1299 150.371 53.7486 151.195 54.4611C151.959 55.1216 152.308 55.9178 152.129 56.5883C151.942 57.2863 152.216 57.8675 152.916 58.2553C153.629 58.65 153.943 59.3407 153.85 60.3058C153.772 61.1062 153.864 61.8472 154.054 61.9525C154.697 62.3089 158.182 57.0574 158.089 55.8714ZM150.661 60.0728C150.292 59.8686 149.883 59.8948 149.753 60.1309C149.462 60.6553 140.727 65.4247 138.795 66.1136C138.03 66.3864 137.311 66.7778 137.198 66.9833C137.084 67.1888 137.628 67.0815 138.407 66.7446C140.95 65.6445 141.583 68.0745 139.176 69.6991C138.583 70.0998 138.376 70.4425 138.641 70.589C139.206 70.9018 145.011 67.4031 147.58 65.2016C150.126 63.02 151.588 60.5864 150.661 60.0728ZM147.866 55.6994C147.012 55.4831 144.62 56.3038 140.849 58.1064L135.128 60.8413L135.675 62.2941C136.367 64.1329 136.855 64.0454 142.322 61.1022C146.336 58.9407 149.368 56.8296 149.229 56.2925C149.191 56.1466 148.578 55.8799 147.866 55.6994ZM141.18 53.9591C138.82 54.363 137.419 54.9863 133.868 57.2106L131.789 58.5126L133.598 57.9814C135.161 57.5225 143.064 54.0514 143.357 53.6953C143.415 53.626 142.434 53.7442 141.18 53.9591ZM140.737 49.8559C137.306 49.7006 133.666 50.3419 133.852 51.0691C133.92 51.3365 134.623 51.5435 135.413 51.5289C138.101 51.4794 143.933 50.6409 143.849 50.3163C143.802 50.1384 142.402 49.9313 140.737 49.8559ZM101.344 22.1162C100.749 19.387 97.9668 13.8585 97.2938 14.0697C96.7233 14.2487 98.0756 21.7367 98.9119 23.0296C101.46 26.9696 102.329 26.6431 101.344 22.1162ZM92.5068 24.7496C93.3085 21.3719 93.7546 13.8287 93.1717 13.5058C92.5537 13.1634 92.1467 14.2486 91.3369 18.3983C90.4032 23.183 90.2837 25.3727 90.857 27.1944C91.3906 28.8904 91.5962 28.5856 92.5068 24.7496ZM95.2679 6.53217C94.9171 5.70227 93.885 4.46161 92.9742 3.7752C91.6071 2.74484 91.0467 2.62303 89.7621 3.07654C88.0778 3.67112 86.6709 5.71623 86.2847 8.13153C86.0867 9.36971 86.2641 9.64621 87.4599 9.96314C89.7805 10.5782 92.1988 10.5067 93.9965 9.76998C95.9745 8.95937 96.1282 8.56779 95.2679 6.53217ZM87.673 19.1851C87.9626 17.4142 88.5031 15.3712 88.874 14.6452C89.3293 13.7539 89.312 13.2961 88.8204 13.2355C88.4201 13.186 87.8767 13.0262 87.6129 12.8801C87.3491 12.734 87.2468 13.1604 87.3857 13.8277C87.5314 14.5285 86.9005 16.9227 85.8915 19.497C84.7948 22.2953 84.236 24.496 84.3894 25.4121C84.6316 26.8581 84.6447 26.8513 85.8901 24.638C86.5815 23.4101 87.3834 20.956 87.673 19.1851ZM83.4212 16.845C84.8693 12.6925 84.9646 12.0262 84.173 11.5877C83.3632 11.1391 83.3083 11.1906 83.6586 12.0695C83.9622 12.8312 83.4726 14.1877 81.4909 18.0758C79.8947 21.2075 78.9242 23.6717 78.9129 24.6216L78.8947 26.145L79.985 24.9088C80.5846 24.2289 81.23 23.2063 81.4191 22.6363C81.6081 22.0664 82.5092 19.4603 83.4212 16.845ZM81.6279 11.376C81.0113 11.3799 79.6105 12.1633 78.5147 13.117C76.7268 14.6732 76.4781 15.0856 76.089 17.1406C75.8436 18.4364 75.9508 19.6809 76.3358 20.0077C76.9339 20.5155 77.3424 20.0381 79.7148 16.0592C81.1991 13.5698 82.4889 11.4961 82.5811 11.451C82.6734 11.4059 82.2444 11.372 81.6279 11.376ZM46.2272 50.1541C44.4224 47.8667 42.0923 46.2151 37.0024 43.6155C32.9594 41.5508 31.8041 41.1404 31.5126 41.6667C31.2101 42.2127 31.3607 42.3169 32.3461 42.2431C33.3775 42.1659 33.8652 42.6738 35.7717 45.8099C37.7204 49.0154 38.3604 49.6708 40.9575 51.1203C43.2541 52.4003 44.2437 52.69 45.3572 52.4016C47.2351 51.915 47.3606 51.5907 46.2272 50.1541ZM47.6877 41.1926C45.6025 40.2348 43.436 39.7 41.2468 39.6028C38.6652 39.4881 37.8772 39.2614 37.6229 38.5601C37.1676 37.3049 35.1973 36.6877 34.4731 37.5734C33.9305 38.237 34.3218 38.5631 38.314 40.7745C42.8055 43.2626 45.5696 44.0527 48.7134 43.747C51.3819 43.4875 51.0875 42.7542 47.6877 41.1926ZM44.8162 33.2169C42.8332 33.1633 40.1438 33.3854 38.8397 33.7105L36.4684 34.3014L38.3207 34.9536C40.7737 35.8173 44.9045 36.1321 47.6392 35.6638C49.7862 35.2961 49.8284 35.2577 49.135 34.2999C48.5788 33.5317 47.6268 33.2928 44.8162 33.2169ZM36.3603 56.0269C36.0203 53.5591 33.9281 49.3101 32.3419 47.8662C31.0034 46.6478 31.0024 46.648 31.2418 48.1052C32.1461 53.6101 33.6479 57.2044 35.4638 58.2103C36.3961 58.7268 36.6478 58.1137 36.3603 56.0269ZM31.4063 44.2303C31.0131 43.2338 30.9914 43.2506 31.1167 44.4548C31.1912 45.1708 31.2604 45.8762 31.2703 46.0223C31.2804 46.1683 31.4111 46.0665 31.56 45.7977C31.7093 45.5282 31.6401 44.8229 31.4063 44.2303ZM33.8192 32.1509C32.6512 31.5039 28.9245 32.6347 28.2577 33.8384C27.3341 35.5057 27.1077 38.1573 27.7746 39.4961C28.138 40.2257 28.543 40.8823 28.6745 40.9551C28.806 41.028 29.5516 39.992 30.3315 38.6528C31.1113 37.3137 32.2538 35.6694 32.8704 34.9989C34.685 33.0256 34.7961 32.6921 33.8192 32.1509Z" fill="white" fill-opacity="0.2"/>
</svg>
