<svg width="210" height="120" viewBox="0 0 210 120" fill="none" xmlns="http://www.w3.org/2000/svg">
<path d="M70.0731 15.826C70.98 16.725 73.8643 20.9108 76.4826 25.1281C80.4502 31.5185 81.4236 33.5354 82.3258 37.2358C82.9484 39.7892 83.2716 43.1178 83.0863 45.069C82.635 49.8225 79.7167 54.3615 75.1523 57.411C73.421 58.5674 72.0388 59.6269 72.0807 59.7657C72.123 59.9042 73.8412 60.7464 75.8997 61.637C81.7108 64.1509 97.1354 72.0253 105.673 76.8368C115.756 82.5186 149.506 104.197 159.075 111.136C175.858 123.309 208.283 150.16 209.783 153.127C210.174 153.899 209.316 154.914 208.439 154.717C208.008 154.621 203.758 151.073 198.995 146.834C175.938 126.314 158.799 113.368 131.441 95.8095C107.628 80.5279 91.8914 71.7413 74.4548 63.9981C68.1554 61.2007 68.9496 60.7799 61.8374 70.6865C56.1331 78.6321 55.8144 78.8641 50.6569 78.8247C42.9768 78.7661 35.942 76.2887 25.0597 69.8104C16.2074 64.5408 11.8908 61.0392 8.1389 56.0843C3.53086 49.9991 0.246034 41.8287 0.0264541 35.9062C-0.17489 30.475 0.717906 27.5529 4.808 20.2578C15.9529 0.379514 16.1897 0.0726238 20.996 -0.730719C24.7503 -1.35817 31.3176 -0.931289 35.9571 0.241644C38.0591 0.773095 41.6462 1.57624 43.9284 2.02638C46.2105 2.47652 49.8982 3.59759 52.1231 4.51769C56.6271 6.3804 67.3758 13.1522 70.0731 15.826ZM53.8511 9.71223C50.0355 12.3291 44.6511 21.6738 42.0427 30.2059L40.8017 34.2654L43.9605 30.6105C50.7803 22.7199 55.6775 19.3739 62.5551 17.906C65.5128 17.2747 66.8971 16.7397 66.6033 16.3417C66.358 16.0085 63.7223 14.1521 60.747 12.2147L55.3371 8.69292L53.8511 9.71223ZM42.5617 4.64942C40.4356 4.22963 37.5146 3.6032 36.0708 3.25738C34.6271 2.91158 33.3701 2.74651 33.2777 2.89052C32.9106 3.46215 32.9994 11.8993 33.4188 16.2911C33.859 20.9027 36.7653 33.7982 37.4656 34.2479C37.6656 34.3763 37.9551 33.8109 38.1095 32.9919C39.2469 26.9501 46.6754 12.3016 50.3872 8.78115L51.9595 7.28998L49.1936 6.35128C47.6723 5.83504 44.688 5.06924 42.5617 4.64942ZM67.038 20.1788C61.9337 20.4713 56.6064 22.6433 52.4739 26.1168C49.8331 28.3365 44.453 34.1362 43.2448 36.0656L42.265 37.6335L43.7018 36.7108C46.9548 34.6219 55.4863 31.1872 59.1931 30.4743C63.366 29.6717 68.6564 29.9461 72.2595 31.1521C73.4407 31.5472 74.9809 31.7303 75.6825 31.5587C76.9069 31.2592 76.8278 31.0386 73.7202 26.0833C71.9393 23.2435 70.2041 20.7249 69.8642 20.4866C69.5234 20.2498 68.2517 20.1092 67.038 20.1788ZM26.0819 1.94189L22.4369 1.91822L22.4856 4.81583C22.5817 10.5219 25.6553 19.1348 30.279 26.6542C31.6047 28.8102 32.8158 30.6554 32.9702 30.7546C33.1247 30.8538 32.7085 28.5947 32.0455 25.7346C30.5852 19.4345 29.9134 13.045 30.0622 6.8732C30.1233 4.33775 30.0729 2.1963 29.9501 2.11442C29.8268 2.03295 28.0867 1.95493 26.0819 1.94189ZM71.1314 33.8772C64.7299 31.7345 59.0486 32.6396 48.7283 37.4463L46.6159 38.4301L49.1883 38.5064C53.2833 38.6279 60.8895 40.3193 64.3718 41.8828C66.133 42.6737 69.9288 44.7146 72.8069 46.4184C77.1996 49.0189 78.0145 49.6491 77.8827 50.343C77.5765 51.9556 75.5144 51.3954 70.9369 48.4561C68.535 46.9138 65.4119 45.1729 63.9965 44.5875C60.5492 43.1617 53.104 41.6045 49.1645 41.4855L45.9685 41.3891L54.5417 47.3166C59.257 50.5766 64.6572 54.1444 66.5424 55.2444L69.9702 57.2446L73.4153 54.9039C79.7685 50.5875 81.3671 45.9815 79.3961 37.6713L78.5106 33.9377L76.0832 34.33C74.7008 34.5533 72.569 34.3584 71.1314 33.8772ZM14.4913 8.81098C12.3631 12.1254 11.1452 14.444 11.2249 15.0292C11.4061 16.3599 7.68747 23.3701 6.81845 23.3362C6.44413 23.3218 5.74788 23.9308 5.271 24.6901C4.51614 25.8936 4.53322 26.0077 5.40985 25.5821C7.41812 24.6069 24.0393 28.0551 27.2413 30.1112C29.0014 31.2414 28.8719 30.2193 26.8006 26.6325C25.5965 24.5474 23.8747 21.0287 22.9743 18.813C21.2013 14.4498 18.8383 4.52384 19.3741 3.68951C19.6226 3.3025 19.4789 3.21843 18.7934 3.35254C18.1642 3.47387 16.838 5.15637 14.4913 8.81098ZM43.2079 43.0353C42.9628 43.417 45.5854 47.779 52.2434 58.0634C56.0906 64.0062 59.2966 68.9059 59.3677 68.9516C59.4387 68.9971 60.7732 67.3272 62.3331 65.2405C63.8927 63.1536 65.6956 60.9031 66.3391 60.2393L67.5089 59.0323L59.7539 53.8706C55.4884 51.032 50.0457 47.3938 47.6587 45.786C45.2717 44.1783 43.2688 42.9406 43.2079 43.0353ZM25.9009 32.5509C21.5024 30.8289 15.3445 29.3067 10.1152 28.6489C7.84487 28.3633 5.73008 27.7959 5.32173 27.3628C4.67825 26.6801 4.52293 26.774 4.0211 28.1479C3.27329 30.1949 2.83495 34.9216 3.16444 37.3856L3.42645 39.3454L5.23392 38.7145C8.90428 37.4334 21.8599 35.3006 26.4919 35.2148C31.747 35.1175 31.6796 34.8134 25.9009 32.5509ZM28.1372 38.2044C22.6656 38.1967 7.52096 40.5881 5.22568 41.822C4.27635 42.3324 4.29721 42.7481 5.40945 45.5165C6.76573 48.8918 11.1393 55.8245 13.1185 57.7363L14.3445 58.9207L18.1145 53.5713C22.2276 47.7352 26.5064 43.6935 32.3034 40.1683C33.9825 39.1473 35.0221 38.2895 34.6135 38.2621C34.2049 38.2346 31.2907 38.2088 28.1372 38.2044ZM38.7082 47.35C37.9212 55.8829 40.1437 66.7226 43.8457 72.4067L45.9085 75.5739L49.2839 75.8175C53.1462 76.0963 54.4786 75.6439 56.4938 73.3696C57.7647 71.9352 57.8364 71.6445 57.1263 70.8125C55.7271 69.1732 43.0307 49.354 41.3231 46.1435C40.4215 44.4486 39.551 43.0869 39.3886 43.1175C39.2262 43.148 38.9201 45.0528 38.7082 47.35ZM29.4827 45.8017C24.9335 49.2423 21.8755 52.461 19.167 56.6599C16.7703 60.3715 16.7536 60.4464 17.6793 61.6903C19.6034 64.2718 38.058 74.2944 41.1059 74.4132C41.3857 74.4245 41.0362 73.5098 40.3291 72.3814C38.5887 69.6041 36.2628 61.0721 35.7696 55.6563C35.358 51.1354 35.5926 44.8805 36.2601 42.5798C36.6235 41.327 36.5888 41.3232 34.5815 42.398C33.4541 43.0016 31.1596 44.5333 29.4827 45.8017Z" fill="white" fill-opacity="0.2"/>
</svg>
