<svg width="171" height="91" viewBox="0 0 171 91" fill="none" xmlns="http://www.w3.org/2000/svg">
<path d="M153.475 82.0181C149.496 80.7118 145.122 77.0431 136.717 67.9633L134.276 65.3258L135.576 68.1841C140.356 78.693 141.143 90.5367 137.256 93.4676C136.125 94.3205 135.392 94.4763 134.269 94.1018C131.197 93.0774 125.61 82.7124 123.945 74.952C123.58 73.2503 123.199 71.7478 123.097 71.6131C122.995 71.4782 122.497 73.7247 121.989 76.6049C120.13 87.1544 117.189 94.5636 113.317 98.4559C109.573 102.219 106.541 99.3567 106.365 91.8934C106.272 87.9524 107.645 78.6444 109.075 73.5157C109.425 72.2635 109.478 71.5604 109.193 71.9532C108.909 72.3459 107.431 74.3965 105.909 76.5097C103.511 79.8399 102.276 81.0434 96.6404 85.5423C89.1394 91.5299 87.5959 92.2626 86.2483 90.4756C85.7363 89.7967 85.5029 88.653 85.6871 87.7263C86.2399 84.9453 90.1247 78.5525 94.1585 73.7855C96.3084 71.245 98.5421 68.5928 99.1224 67.8919C100.844 65.8124 85.9044 76.3064 78.2552 82.5497C52.0305 103.954 15.6362 143.725 -0.588587 168.708C-2.51035 171.667 -2.92002 172.689 -2.49677 173.468C-2.14765 174.11 -2.25974 174.687 -2.81455 175.106C-3.52857 175.644 -3.87638 175.48 -4.90159 174.121C-6.05437 172.592 -6.053 172.341 -4.88063 170.138C-4.19242 168.845 -1.42475 164.696 1.26975 160.917C13.7954 143.351 30.1331 124.517 49.622 105.178C65.317 89.6026 68.3316 86.9606 83.4501 75.531L97.6189 64.8176L93.474 66.2547C83.6997 69.6433 74.1666 69.9989 71.9485 67.0576C70.4614 65.0856 70.8121 64.2404 74.1673 61.7102C78.851 58.1781 91.2022 54.4181 100.236 53.7741L103.106 53.5696L98.7531 52.8831C88.76 51.3072 79.6923 47.4582 74.8796 42.7495C72.6441 40.5623 72.1316 39.8193 71.9957 38.5688C71.7327 36.1482 72.32 35.2466 74.7781 34.2981C78.9831 32.6754 89.6125 35.012 100.578 39.9697L105.167 42.0441L99.1231 34.0298C92.2729 24.9461 90.2088 20.9402 89.6529 15.6667C89.2824 12.1514 89.7823 10.7465 91.8607 9.46259C93.536 8.4279 96.257 9.05867 99.1351 11.1493C101.295 12.7181 108.223 21.9485 110.34 26.0775C111.178 27.7121 111.981 29.063 112.124 29.0795C112.267 29.0958 112.212 27.5712 112.001 25.691C111.261 19.0962 111.32 12.8576 112.173 7.61821C112.959 2.78827 113.184 2.21747 114.771 1.02044C117.157 -0.778148 118.602 -0.289517 121.239 3.20718C124.812 7.94549 125.928 13.4282 125.181 22.5763L124.877 26.3006L125.87 23.6069C128.7 15.9268 133.476 8.30455 138.041 4.18286C141.431 1.12275 142.911 0.755734 144.321 2.62568C146.594 5.64031 145.543 12.4252 141.541 20.5693L139.625 24.4695L144.577 20.7541C148.846 17.5535 149.888 16.9651 152.131 16.5135C154.28 16.0811 154.926 16.1963 155.832 17.1727C156.716 18.1258 156.808 18.7127 156.302 20.1935C155.516 22.4952 151.535 27.3735 147.355 31.1553L144.159 34.0467L149.72 31.6177C158.948 27.5864 165.272 26.1128 168.593 27.2201C170.511 27.8599 170.959 28.8952 170.264 31.0816C169.764 32.6553 169.159 33.2525 164.873 36.4091C161.67 38.7681 158.764 40.5136 156.237 41.5971L152.428 43.2298L157.278 43.7765C167.831 44.9661 170.991 48.9823 164.018 52.3425C158.475 55.0137 152.64 55.5614 140.25 54.574L132.994 53.9958L137.013 55.9407C139.224 57.0104 143.263 59.61 145.99 61.7175C150.085 64.8831 151.598 66.3938 154.689 70.4052C157.92 74.5983 158.476 75.5757 158.767 77.566C159.067 79.618 158.922 80.0302 157.438 81.3224C155.898 82.6652 155.602 82.7168 153.475 82.0181ZM155.635 77.2089C154.033 72.0031 143.95 62.6793 135.54 58.6269L131.389 56.6268L133.82 59.9114C137.469 64.8399 144.092 71.9705 147.888 75.0573C151.336 77.8612 155.157 79.9686 155.848 79.4477C156.06 79.2875 155.964 78.2799 155.635 77.2089ZM136.696 86.6932C137.146 79.1724 132.811 66.6952 127.117 59.1267C126.224 57.9425 125.644 56.6842 125.776 56.2282C126.157 54.9069 127.968 53.0275 128.841 53.0471C129.435 53.0605 129.427 52.7737 128.81 51.9781C128.162 51.1403 128.173 50.6861 128.864 50.0024C129.718 49.158 129.697 49.1034 128.453 48.8969C126.986 48.6532 126.358 47.3052 127.36 46.5497C128.166 45.9422 128.168 45.9448 126.213 45.0176C125.009 44.4477 124.449 44.4773 123.913 45.139C123.394 45.7801 122.963 45.8272 122.301 45.3175C121.601 44.7777 121.345 44.8208 121.165 45.5093C121.037 45.9977 120.15 47.0779 119.193 47.9097C118.237 48.7415 117.226 49.6211 116.947 49.8643C116.662 50.113 116.847 50.8456 117.373 51.5425C118.478 53.0081 117.816 54.503 116.252 54.0709C115.685 53.9139 114.768 54.1446 114.216 54.5834L113.213 55.3827L114.467 55.0208C116.06 54.5611 117.263 55.2755 117.359 56.7379C117.413 57.5589 117.567 57.7756 117.912 57.5154C118.176 57.3169 119.145 57.2267 120.066 57.315C120.987 57.4033 122.189 57.1442 122.738 56.7391C124.466 55.4644 125.121 57.0078 125.415 63.0454C125.571 66.2417 126.05 70.5484 126.481 72.6158C127.996 79.8937 131.882 88.7413 134.452 90.7641C135.353 91.4736 135.602 91.4437 136.026 90.5743C136.302 90.0063 136.603 88.2598 136.696 86.6932ZM114.747 90.9129C116.857 86.6624 118.751 79.6006 119.598 72.8252C120.214 67.8944 120.427 60.9431 119.98 60.3499C119.253 59.3865 114.606 67.2313 112.375 73.1874C109.706 80.3129 108.4 96.3688 110.429 97.1069C111.105 97.3527 112.65 95.1364 114.747 90.9129ZM161.987 47.7417C158.672 46.4453 152.78 46.0992 146.977 46.8602C142.058 47.5054 133.874 49.718 133.273 50.5655C132.763 51.2843 148.282 52.4037 153.388 52.0167C157.208 51.7273 164.24 49.7806 164.4 48.9683C164.428 48.8238 163.342 48.272 161.987 47.7417ZM166.484 31.7106C167.724 30.1336 167.728 30.023 166.552 29.8277C164.749 29.5282 158.387 31.1572 153.004 33.2972C147.379 35.5332 136.648 40.9622 132.181 43.832L128.925 45.9237L131.011 46.0163C136.254 46.2488 151.51 41.2291 160.893 36.1838C163.231 34.9268 165.186 33.363 166.484 31.7106ZM100.606 78.5098C103.498 75.2897 108.274 68.1013 111.215 62.5402L112.877 59.3975L108.983 62.6998C104.119 66.8254 97.5466 73.6539 94.4767 77.7719C91.6554 81.5564 88.4904 87.2108 88.8939 87.7459C89.3658 88.3717 97.5318 81.9317 100.606 78.5098ZM111.149 56.2153C110.835 56.1005 110.396 56.1439 110.174 56.3111C109.952 56.4783 109.909 56.7986 110.078 57.0229C110.248 57.2474 110.687 57.2041 111.054 56.9271C111.421 56.6501 111.464 56.3299 111.149 56.2153ZM146.306 28.4019C149.705 25.1601 152.726 21.3861 153.168 19.8312C153.936 17.1266 145.078 22.9117 139.553 28.722C133.625 34.9581 128.334 41.4418 129.253 41.3464C130.446 41.2225 142.293 32.2295 146.306 28.4019ZM108.182 56.291C107.89 55.9034 96.4657 57.1175 92.0063 58.0101C83.6454 59.6836 73.0835 64.107 74.1312 65.4963C74.2787 65.6919 75.8169 65.9575 77.5492 66.0862C83.2682 66.511 93.2722 63.8758 102.541 59.5032C106.765 57.5102 108.4 56.5794 108.182 56.291ZM110.366 49.026C104.42 44.5785 94.8822 40.2558 85.6104 37.8064C81.1405 36.6256 76.402 36.355 75.2611 37.2154C72.8925 39.0015 80.9541 44.7156 90.057 47.7047C94.6526 49.2134 112.891 52.1054 113.017 51.3453C113.044 51.1807 111.851 50.1369 110.366 49.026ZM130.131 33.249C139.33 20.3539 143.747 10.0967 142.298 4.99457C142.045 4.10045 141.861 4.18095 140.01 5.99896C133.989 11.9115 129.027 21.4972 126.188 32.6992C125.141 36.8284 124.796 40.1663 125.468 39.6597C125.575 39.5789 127.673 36.6941 130.131 33.249ZM113.599 42.0527C111.148 32.8808 104.472 20.206 99.7221 15.7058C96.707 12.8492 93.4397 11.2394 92.767 12.2789C92.1283 13.2657 92.8656 17.6745 94.2774 21.3103C95.8359 25.3242 102.375 34.7937 106.785 39.4235C110.289 43.1019 114.33 46.7789 114.625 46.5568C114.706 46.4956 114.244 44.4687 113.599 42.0527ZM120.893 32.3931C123.368 17.7912 122.75 9.23485 118.896 4.73572C117.865 3.53103 116.956 2.88553 116.514 3.0428C115.397 3.44049 114.256 12.6195 114.515 19.1294C114.734 24.6432 116.931 39.5166 117.894 42.0119C118.132 42.6279 118.517 42.9818 118.754 42.8029C118.991 42.6247 119.953 37.9403 120.893 32.3931Z" fill="white" fill-opacity="0.2"/>
</svg>
