<svg width="161" height="100" viewBox="0 0 161 100" fill="none" xmlns="http://www.w3.org/2000/svg">
<path d="M152.593 72.1838C150.677 73.9082 146.83 76.3689 144.499 77.3607C141.231 78.7519 139.971 78.1996 137.443 74.2685L135.655 71.4878L130.421 74.2123C114.178 82.6671 103.177 89.4789 87.9826 100.491C53.917 125.178 33.0276 148.037 18.393 176.643C15.3236 182.642 13.3542 186.006 11.8846 187.758C9.22201 190.933 7.71502 193.523 4.531 200.393C2.25248 205.309 1.89359 205.867 1.07263 205.766C0.568781 205.704 0.0879908 205.371 0.00403785 205.027C-0.0799334 204.683 1.15324 201.534 2.74428 198.029C4.33531 194.525 6.80622 188.579 8.23516 184.817C9.66413 181.054 11.9635 175.013 13.345 171.393C14.7264 167.772 18.1964 159.62 21.0561 153.276C35.9995 120.127 40.141 106.879 42.5073 84.6572C43.4927 75.403 43.5387 68.1856 42.659 60.816C42.0329 55.5699 41.8406 54.9956 40.4527 54.2268L38.9323 53.3845L39.2892 55.4694C39.6769 57.7345 38.389 60.8362 36.8618 61.3155C35.5708 61.7207 32.2786 59.6555 30.9618 57.6146C29.6475 55.5777 28.3067 50.2204 28.2269 46.6876C28.192 45.1418 27.8458 44.1763 27.1974 43.8171C25.6898 42.982 24.2618 39.4478 24.4586 37.0391C24.585 35.4934 25.1004 34.1669 26.2492 32.431C28.4901 29.0453 30.8317 28.3389 35.3511 29.6853C37.3513 30.2812 39.5956 30.5243 40.9517 30.2921C43.7253 29.8172 48.2774 30.346 50.0984 31.3547C52.1864 32.5114 52.9645 34.5656 51.9847 36.3344C51.5292 37.1566 50.808 37.9387 50.382 38.0724C49.8204 38.2487 50.0905 38.7034 51.3639 39.7259C54.8402 42.5171 54.2423 45.676 50.0713 46.5552L47.7037 47.0542L48.9291 48.8806C50.0125 50.4956 50.0484 50.9346 49.2388 52.6728C48.5051 54.2485 47.9815 54.7342 46.6015 55.1204L44.8799 55.6022L45.5291 60.0273C46.4403 66.2372 46.5286 71.5624 45.8601 79.9864C43.9861 103.601 39.1712 119.992 25.0347 150.88C20.7198 160.308 15.947 171.883 13.2992 179.341C11.8612 183.392 11.8977 183.337 16.2911 174.865C25.8765 156.38 39.3615 138.445 54.0581 124.634L58.1646 120.775L64.6335 109.331C73.2294 94.1241 76.2672 86.6977 78.8501 74.5769C80.7605 65.6123 82.1009 55.6655 83.0483 43.4225C83.5135 37.4111 84.0891 32.1406 84.3275 31.7103C84.6316 31.1613 84.3773 30.7155 83.4751 30.2157C82.7679 29.824 82.1118 29.0315 82.017 28.4547C81.8661 27.5363 81.6737 27.5453 80.4699 28.5271C79.7138 29.1438 78.7002 29.5997 78.2175 29.5401C76.7961 29.3648 75.7228 27.3291 75.8976 25.1402C76.0312 23.4676 75.7956 22.9241 74.5791 22.0987C72.5078 20.6933 72.3346 18.3058 74.0395 14.6572C75.679 11.1484 78.7812 8.4731 81.3182 8.3801C82.953 8.32016 83.0356 8.2332 84.7407 4.77275C86.4689 1.26532 86.515 1.21837 88.9681 0.448433C91.1616 -0.239965 91.7142 -0.182613 93.7493 0.94472C97.1297 2.81726 99.9667 7.69464 98.8491 9.71214C98.5185 10.309 98.5175 10.9466 98.8469 11.129C100.417 11.9988 103.376 17.6296 104.137 21.1952C105.043 25.4442 104.787 27.2549 103.096 28.5557C102.159 29.2768 101.65 29.2431 100.045 28.354C98.9862 27.7673 97.5959 26.4762 96.956 25.4849L95.7925 23.6827L95.4378 25.1039C95.2427 25.8857 94.381 27.7924 93.523 29.3413C91.9676 32.1491 91.9592 32.1558 90.4945 31.5297C89.4535 31.0849 88.8173 30.3148 88.3099 28.885L87.5939 26.8679L86.9511 28.0282C86.527 28.7939 86.5661 29.4405 87.066 29.9291C87.4827 30.3364 87.625 31.0283 87.3822 31.4666C87.1394 31.905 86.4548 37.831 85.8608 44.6356C83.2475 74.5767 80.7269 84.3543 70.7105 103.404L64.6292 114.97L69.6857 110.81C86.99 96.5752 106.013 83.8168 124.601 73.9798C133.554 69.2416 134.405 68.6751 134.532 67.3668C134.608 66.5798 134.428 65.8016 134.132 65.6376C133.836 65.4737 133.295 64.5787 132.93 63.6488C132.481 62.5077 131.599 61.5703 130.215 60.7649C128.333 59.6694 128.21 59.4623 128.721 58.24C129.028 57.5076 130.174 56.2792 131.267 55.5101L133.256 54.1117L131.996 53.4136C130.378 52.5171 130.092 51.3483 131.062 49.5963C132.807 46.4475 141.533 45.8156 146.358 48.4887C148.247 49.5348 148.879 49.6284 150.164 49.0512C152.318 48.0839 154.714 48.2105 156.871 49.4053C158.955 50.5597 159.832 51.7316 160.641 54.4431C161.126 56.0725 161.004 56.6797 159.737 58.9278C158.931 60.3582 157.63 62.3071 156.847 63.2594C155.832 64.4931 155.458 65.3332 155.545 66.1824C155.665 67.3517 153.84 71.0619 152.593 72.1838ZM152.567 66.6086C152.629 64.8254 152.142 64.9105 149.776 67.0964C148.578 68.2037 145.983 70.1117 144.011 71.3366C141.161 73.1061 140.504 73.7163 140.81 74.3076C141.022 74.7169 141.342 75.1374 141.522 75.2421C142.129 75.5968 147.428 72.7174 149.62 70.8432C152.169 68.663 152.513 68.1686 152.567 66.6086ZM158.089 55.8711C157.984 54.5349 156.687 52.3699 155.645 51.793C154.244 51.0166 151.037 51.4879 150.444 52.5572C150.127 53.1296 150.371 53.7483 151.195 54.4608C151.959 55.1213 152.308 55.9175 152.129 56.5881C151.942 57.2861 152.216 57.8673 152.916 58.255C153.629 58.6497 153.943 59.3405 153.85 60.3056C153.772 61.106 153.864 61.847 154.054 61.9522C154.697 62.3087 158.182 57.0572 158.089 55.8711ZM150.661 60.0725C150.292 59.8683 149.883 59.8945 149.753 60.1306C149.462 60.6551 140.727 65.4245 138.795 66.1134C138.03 66.3861 137.311 66.7775 137.198 66.9831C137.084 67.1885 137.628 67.0813 138.407 66.7444C140.95 65.6443 141.583 68.0742 139.176 69.6988C138.583 70.0995 138.376 70.4422 138.641 70.5887C139.206 70.9015 145.011 67.4028 147.58 65.2014C150.126 63.0197 151.588 60.5861 150.661 60.0725ZM147.866 55.6992C147.012 55.4829 144.62 56.3035 140.849 58.1061L135.128 60.8411L135.675 62.2939C136.367 64.1327 136.855 64.0451 142.322 61.1019C146.336 58.9404 149.368 56.8294 149.229 56.2922C149.191 56.1463 148.578 55.8797 147.866 55.6992ZM141.18 53.9588C138.82 54.3628 137.419 54.986 133.868 57.2104L131.789 58.5124L133.598 57.9812C135.161 57.5223 143.064 54.0512 143.357 53.695C143.415 53.6258 142.434 53.744 141.18 53.9588ZM140.737 49.8557C137.306 49.7004 133.666 50.3417 133.852 51.0688C133.92 51.3362 134.623 51.5432 135.413 51.5286C138.101 51.4792 143.933 50.6407 143.849 50.316C143.802 50.1382 142.402 49.931 140.737 49.8557ZM101.344 22.1159C100.749 19.3867 97.9668 13.8582 97.2938 14.0694C96.7233 14.2485 98.0756 21.7364 98.9119 23.0294C101.46 26.9693 102.329 26.6429 101.344 22.1159ZM92.5068 24.7493C93.3085 21.3716 93.7546 13.8284 93.1717 13.5056C92.5537 13.1632 92.1467 14.2484 91.3369 18.3981C90.4032 23.1828 90.2838 25.3725 90.857 27.1942C91.3906 28.8901 91.5962 28.5854 92.5068 24.7493ZM95.2679 6.53192C94.9171 5.70202 93.885 4.46136 92.9742 3.77495C91.6071 2.74459 91.0467 2.62278 89.7621 3.07629C88.0778 3.67087 86.6709 5.71598 86.2847 8.13129C86.0867 9.36947 86.2641 9.64597 87.4599 9.9629C89.7805 10.5779 92.1988 10.5065 93.9965 9.76973C95.9745 8.95912 96.1282 8.56755 95.2679 6.53192ZM87.673 19.1849C87.9627 17.4139 88.5031 15.371 88.874 14.645C89.3293 13.7537 89.312 13.2959 88.8204 13.2352C88.4201 13.1858 87.8767 13.026 87.6129 12.8799C87.3491 12.7338 87.2468 13.1602 87.3857 13.8274C87.5314 14.5283 86.9005 16.9224 85.8915 19.4968C84.7948 22.2951 84.236 24.4958 84.3894 25.4118C84.6316 26.8579 84.6447 26.8511 85.8901 24.6377C86.5815 23.4099 87.3834 20.9558 87.673 19.1849ZM83.4212 16.8447C84.8693 12.6922 84.9646 12.0259 84.173 11.5874C83.3632 11.1389 83.3083 11.1903 83.6586 12.0692C83.9622 12.831 83.4726 14.1875 81.4909 18.0756C79.8947 21.2073 78.9242 23.6715 78.9129 24.6214L78.8947 26.1448L79.985 24.9086C80.5846 24.2287 81.23 23.206 81.4191 22.6361C81.6081 22.0661 82.5092 19.46 83.4212 16.8447ZM81.6279 11.3757C81.0113 11.3796 79.6105 12.163 78.5147 13.1167C76.7268 14.6729 76.4781 15.0854 76.089 17.1403C75.8436 18.4361 75.9508 19.6806 76.3358 20.0075C76.9339 20.5153 77.3424 20.0379 79.7148 16.0589C81.1991 13.5696 82.4889 11.4959 82.5811 11.4508C82.6734 11.4057 82.2444 11.3718 81.6279 11.3757ZM46.2272 50.1539C44.4224 47.8664 42.0923 46.2149 37.0024 43.6152C32.9594 41.5506 31.8041 41.1402 31.5126 41.6664C31.2101 42.2125 31.3607 42.3167 32.3461 42.2429C33.3775 42.1657 33.8652 42.6736 35.7717 45.8097C37.7204 49.0152 38.3604 49.6705 40.9575 51.1201C43.2541 52.4 44.2437 52.6897 45.3572 52.4013C47.2351 51.9147 47.3606 51.5904 46.2272 50.1539ZM47.6877 41.1923C45.6025 40.2345 43.436 39.6997 41.2468 39.6025C38.6652 39.4879 37.8772 39.2611 37.6229 38.5599C37.1676 37.3046 35.1973 36.6874 34.4731 37.5732C33.9305 38.2367 34.3218 38.5628 38.314 40.7743C42.8055 43.2623 45.5696 44.0524 48.7134 43.7467C51.3819 43.4872 51.0875 42.7539 47.6877 41.1923ZM44.8162 33.2167C42.8332 33.1631 40.1438 33.3852 38.8397 33.7102L36.4684 34.3012L38.3207 34.9534C40.7737 35.817 44.9045 36.1318 47.6392 35.6635C49.7862 35.2959 49.8284 35.2574 49.135 34.2997C48.5788 33.5314 47.6268 33.2926 44.8162 33.2167ZM36.3603 56.0267C36.0203 53.5588 33.9281 49.3099 32.3419 47.8659C31.0034 46.6475 31.0024 46.6477 31.2418 48.105C32.1461 53.6099 33.6479 57.2042 35.4638 58.2101C36.3961 58.7265 36.6478 58.1135 36.3603 56.0267ZM31.4063 44.2301C31.0131 43.2335 30.9914 43.2504 31.1167 44.4546C31.1912 45.1706 31.2604 45.8759 31.2703 46.022C31.2804 46.1681 31.4111 46.0663 31.56 45.7975C31.7093 45.528 31.6401 44.8226 31.4063 44.2301ZM33.8192 32.1507C32.6512 31.5036 28.9245 32.6345 28.2577 33.8382C27.3341 35.5055 27.1077 38.1571 27.7746 39.4959C28.138 40.2255 28.543 40.882 28.6745 40.9549C28.806 41.0278 29.5516 39.9917 30.3315 38.6526C31.1113 37.3134 32.2538 35.6692 32.8704 34.9987C34.685 33.0254 34.7961 32.6918 33.8192 32.1507Z" fill="white" fill-opacity="0.2"/>
</svg>
