<svg width="210" height="120" viewBox="0 0 210 120" fill="none" xmlns="http://www.w3.org/2000/svg">
<path d="M70.0726 15.826C70.9795 16.725 73.8638 20.9108 76.4821 25.1281C80.4497 31.5185 81.4231 33.5354 82.3253 37.2358C82.9479 39.7892 83.2711 43.1178 83.0858 45.069C82.6346 49.8225 79.7162 54.3615 75.1518 57.411C73.4205 58.5674 72.0383 59.6269 72.0802 59.7657C72.1225 59.9042 73.8407 60.7464 75.8992 61.637C81.7103 64.1509 97.1349 72.0253 105.673 76.8368C115.755 82.5186 149.506 104.197 159.075 111.136C175.858 123.309 208.282 150.16 209.783 153.127C210.173 153.899 209.315 154.914 208.439 154.717C208.007 154.621 203.757 151.073 198.994 146.834C175.937 126.314 158.798 113.368 131.441 95.8095C107.628 80.5279 91.8909 71.7413 74.4543 63.9981C68.1549 61.2007 68.9491 60.7799 61.8369 70.6865C56.1327 78.6321 55.8139 78.8641 50.6564 78.8247C42.9763 78.7661 35.9415 76.2887 25.0592 69.8104C16.2069 64.5408 11.8903 61.0392 8.13841 56.0843C3.53037 49.9991 0.245546 41.8287 0.0259656 35.9062C-0.175378 30.475 0.717418 27.5529 4.80752 20.2578C15.9524 0.379514 16.1892 0.0726248 20.9955 -0.73072C24.7498 -1.35817 31.3171 -0.931287 35.9566 0.241641C38.0586 0.773093 41.6457 1.57624 43.9279 2.02638C46.21 2.47652 49.8977 3.59759 52.1226 4.51769C56.6266 6.3804 67.3753 13.1522 70.0726 15.826ZM53.8507 9.71223C50.035 12.3291 44.6506 21.6738 42.0423 30.2059L40.8012 34.2654L43.96 30.6105C50.7798 22.7199 55.677 19.3739 62.5546 17.906C65.5123 17.2747 66.8967 16.7397 66.6028 16.3417C66.3575 16.0085 63.7218 14.1521 60.7465 12.2147L55.3366 8.69292L53.8507 9.71223ZM42.5612 4.64942C40.4351 4.22963 37.5141 3.6032 36.0703 3.25738C34.6266 2.91158 33.3697 2.74651 33.2772 2.89052C32.9101 3.46215 32.999 11.8993 33.4183 16.2911C33.8585 20.9027 36.7648 33.7982 37.4651 34.2479C37.6651 34.3763 37.9546 33.8109 38.109 32.9919C39.2464 26.9501 46.6749 12.3016 50.3868 8.78116L51.959 7.28998L49.1931 6.35128C47.6718 5.83505 44.6875 5.06924 42.5612 4.64942ZM67.0375 20.1788C61.9332 20.4713 56.6059 22.6433 52.4734 26.1168C49.8326 28.3365 44.4525 34.1362 43.2443 36.0656L42.2645 37.6335L43.7013 36.7108C46.9543 34.6219 55.4858 31.1872 59.1927 30.4743C63.3655 29.6717 68.6559 29.9461 72.2591 31.1521C73.4402 31.5472 74.9804 31.7303 75.6821 31.5587C76.9064 31.2592 76.8273 31.0386 73.7197 26.0833C71.9388 23.2435 70.2037 20.7249 69.8637 20.4866C69.5229 20.2498 68.2512 20.1092 67.0375 20.1788ZM26.0814 1.94188L22.4364 1.91822L22.4851 4.81583C22.5812 10.5219 25.6548 19.1348 30.2785 26.6542C31.6043 28.8102 32.8153 30.6554 32.9697 30.7546C33.1242 30.8538 32.708 28.5947 32.045 25.7346C30.5847 19.4345 29.9129 13.045 30.0617 6.8732C30.1228 4.33775 30.0724 2.1963 29.9496 2.11442C29.8263 2.03295 28.0862 1.95493 26.0814 1.94188ZM71.1309 33.8772C64.7294 31.7345 59.0482 32.6396 48.7278 37.4463L46.6155 38.4301L49.1878 38.5064C53.2828 38.6279 60.889 40.3193 64.3714 41.8828C66.1325 42.6737 69.9283 44.7146 72.8064 46.4184C77.1991 49.0189 78.014 49.6491 77.8822 50.343C77.5761 51.9556 75.5139 51.3954 70.9364 48.4561C68.5345 46.9138 65.4114 45.1729 63.996 44.5875C60.5487 43.1617 53.1036 41.6046 49.164 41.4855L45.968 41.3891L54.5412 47.3166C59.2565 50.5766 64.6567 54.1444 66.5419 55.2445L69.9697 57.2447L73.4148 54.9039C79.768 50.5875 81.3666 45.9815 79.3956 37.6713L78.5101 33.9377L76.0827 34.33C74.7003 34.5533 72.5685 34.3584 71.1309 33.8772ZM14.4908 8.81098C12.3626 12.1254 11.1447 14.444 11.2244 15.0292C11.4056 16.3599 7.68698 23.3701 6.81796 23.3362C6.44364 23.3218 5.74739 23.9308 5.27051 24.6901C4.51565 25.8936 4.53273 26.0077 5.40936 25.5821C7.41763 24.6069 24.0388 28.0551 27.2409 30.1112C29.0009 31.2414 28.8714 30.2193 26.8001 26.6325C25.596 24.5474 23.8742 21.0287 22.9738 18.813C21.2008 14.4498 18.8378 4.52384 19.3736 3.68951C19.6221 3.3025 19.4784 3.21843 18.7929 3.35254C18.1638 3.47387 16.8375 5.15637 14.4908 8.81098ZM43.2074 43.0353C42.9624 43.417 45.585 47.7791 52.2429 58.0634C56.0901 64.0062 59.2961 68.9059 59.3672 68.9516C59.4382 68.9971 60.7727 67.3272 62.3326 65.2405C63.8923 63.1536 65.6951 60.9031 66.3386 60.2393L67.5085 59.0323L59.7534 53.8706C55.4879 51.032 50.0452 47.3938 47.6582 45.786C45.2712 44.1783 43.2683 42.9406 43.2074 43.0353ZM25.9004 32.5509C21.5019 30.8289 15.344 29.3067 10.1147 28.6489C7.84438 28.3633 5.72959 27.7959 5.32124 27.3628C4.67776 26.6801 4.52244 26.774 4.02061 28.1479C3.2728 30.1949 2.83447 34.9216 3.16395 37.3856L3.42596 39.3454L5.23343 38.7145C8.90379 37.4334 21.8594 35.3006 26.4914 35.2148C31.7465 35.1175 31.6791 34.8134 25.9004 32.5509ZM28.1367 38.2044C22.6651 38.1967 7.52047 40.5881 5.22519 41.822C4.27586 42.3324 4.29672 42.7481 5.40896 45.5165C6.76524 48.8918 11.1388 55.8245 13.118 57.7363L14.344 58.9207L18.114 53.5713C22.2271 47.7352 26.5059 43.6935 32.3029 40.1683C33.982 39.1473 35.0216 38.2895 34.613 38.2621C34.2044 38.2346 31.2902 38.2088 28.1367 38.2044ZM38.7077 47.35C37.9207 55.8829 40.1432 66.7226 43.8452 72.4067L45.908 75.5739L49.2834 75.8175C53.1457 76.0963 54.4781 75.6439 56.4933 73.3696C57.7642 71.9352 57.8359 71.6445 57.1258 70.8125C55.7266 69.1732 43.0303 49.354 41.3226 46.1435C40.4211 44.4486 39.5505 43.0869 39.3881 43.1175C39.2257 43.148 38.9196 45.0528 38.7077 47.35ZM29.4822 45.8017C24.933 49.2423 21.875 52.461 19.1666 56.6599C16.7698 60.3715 16.7531 60.4464 17.6788 61.6903C19.6029 64.2718 38.0575 74.2943 41.1054 74.4132C41.3852 74.4245 41.0357 73.5098 40.3286 72.3814C38.5883 69.6041 36.2623 61.0721 35.7691 55.6563C35.3575 51.1354 35.5921 44.8805 36.2596 42.5798C36.623 41.327 36.5883 41.3232 34.581 42.398C33.4536 43.0016 31.1591 44.5333 29.4822 45.8017Z" fill="white" fill-opacity="0.2"/>
</svg>
