<svg width="176" height="107" viewBox="0 0 176 107" fill="none" xmlns="http://www.w3.org/2000/svg">
<path d="M165.139 39.3624C161.913 40.9579 158.032 41.6545 154.518 41.2685C151.371 40.9227 146.744 38.8313 145.919 37.3814C145.588 36.7988 143.577 36.5158 139.373 36.4599C133.633 36.3835 133.097 36.4886 129.452 38.4014C124.957 40.761 113.729 47.1717 113.247 47.6538C113.065 47.8356 115.7 47.9205 119.102 47.8423C123.088 47.7507 125.937 47.3564 127.113 46.7334C133.406 43.3985 147.847 43.3215 151.131 46.6054C152.926 48.4006 148.809 52.2423 143.172 54.0313C137.757 55.7501 127.041 54.3853 124.281 51.625C122.273 49.6172 109.473 50.908 103.258 53.745C102.112 54.2682 96.6868 57.5506 91.2027 61.0393C85.7185 64.5279 80.4005 67.9061 79.3849 68.5464C78.3692 69.1867 77.5359 69.8046 77.5331 69.9196C77.5302 70.0348 79.676 69.6305 82.3014 69.0214C84.9268 68.4124 89.4439 67.6441 92.3394 67.3142C96.7532 66.8113 98.0248 66.4273 100.207 64.9381C105.687 61.1986 112.843 60.3916 124.088 62.245C133.191 63.7452 133.57 64.3166 127.914 68.0048C123.471 70.9012 118.529 73.1641 114.4 74.192C107.604 75.8839 100.418 74.7885 96.8882 71.5226C95.1158 69.8828 95.0232 69.8708 89.7661 70.6053C83.8324 71.4342 74.6001 73.8198 71.593 75.3013C70.5133 75.8331 68.8558 76.5185 67.9095 76.8243C66.4916 77.2826 51.5472 87.6815 49.81 89.4188C49.5284 89.7003 50.5358 89.7032 52.0484 89.4255C53.5611 89.1476 57.3461 88.6986 60.4596 88.4276C64.7228 88.0565 66.6901 87.5913 68.4273 86.5434C74.6653 82.7807 82.0002 81.6748 89.7426 83.3297C92.247 83.865 95.847 84.5094 97.7426 84.7617C102.084 85.3394 102.513 86.2887 99.6205 88.9124C95.5391 92.6145 87.1327 96.3251 80.8132 97.2139C74.8355 98.0546 68.1676 96.2796 64.1585 92.7803C62.2364 91.1029 62.1847 91.0966 56.3098 91.8393C53.0572 92.2504 48.4483 93.2252 46.068 94.0054C41.8936 95.3736 41.4717 95.6403 34.1796 101.522C30.0214 104.876 25.2425 108.804 23.5597 110.251C21.877 111.699 19.8208 113.399 18.9906 114.029C17.7043 115.006 18.0018 114.981 21.0014 113.866C22.9377 113.146 26.8513 112.011 29.6985 111.345C32.5457 110.678 35.1296 109.878 35.4406 109.567C35.7516 109.256 36.5196 109.22 37.1472 109.486C39.2417 110.375 42.2914 109.425 44.8615 107.083C49.5023 102.854 54.5454 100.865 61.5784 100.487C65.8074 100.26 67.6159 100.528 73.1531 102.203C76.7625 103.295 81.0811 104.338 82.7498 104.522C85.8966 104.868 87.1115 105.751 86.2194 107.044C85.4618 108.141 70.3101 113.658 64.4342 114.975C54.4774 117.207 45.7374 116.904 39.6788 114.117C37.7984 113.252 36.3983 113.071 34.2521 113.415C29.5334 114.17 22.2944 116.412 16.3375 118.962C11.3751 121.086 10.2865 121.765 6.51279 125.094C2.86623 128.311 2.27942 128.992 2.34395 129.934C2.44511 131.41 1.63845 132.116 0.283811 131.736C-0.762475 131.443 -1.31025 131.888 -8.41474 138.809C-15.7058 145.912 -16.0244 146.168 -16.7191 145.473C-17.4201 144.772 -17.1732 144.48 -8.38393 135.597C-0.0568113 127.182 0.948922 126.015 4.08641 121.13C8.88729 113.655 11.2827 108.918 14.3435 100.845L17.0032 93.8305L15.241 92.0683C13.0628 89.8901 11.9672 87.1891 11.978 84.0244C11.9889 80.8374 12.7012 78.9249 16.755 71.1977C18.6219 67.6392 20.7087 63.0204 21.3924 60.9339C23.3042 55.1 24.7828 55.0477 26.2857 60.761C29.3438 72.3865 29.5447 80.778 26.934 87.8448C25.1362 92.7112 23.7585 94.9964 19.9485 99.4316C18.0599 101.63 16.5216 104.058 15.2401 106.864C14.1932 109.156 12.2437 113.011 10.9079 115.431C9.56124 117.871 8.93982 119.389 9.51309 118.839C11.6657 116.771 26.1533 104.474 31.4007 100.261C34.4098 97.8443 37.7044 95.1633 38.7221 94.303C39.7397 93.4426 42.3469 91.442 44.5156 89.857C48.1627 87.1916 48.4466 86.8954 48.297 85.9127C48.208 85.3283 48.6552 83.9151 49.2908 82.7722C49.9265 81.6293 50.9597 79.4346 51.5869 77.8953C52.6405 75.3092 52.6307 74.8987 51.4586 72.4958C48.0248 65.4563 47.4058 60.4038 49.3092 54.952C50.8481 50.5444 60.2648 35.0454 61.8522 34.3075C63.2832 33.6423 64.31 35.6841 65.3116 41.1858C66.4902 47.6603 66.1768 55.2311 64.537 59.8969C63.6174 62.5133 62.8385 63.7583 60.7422 65.9624C58.5845 68.231 57.8776 69.3884 56.8578 72.3218C56.1721 74.2942 54.7846 77.813 53.7743 80.1415C52.7641 82.4699 52.0449 84.2736 52.1762 84.1495C52.8579 83.5053 70.4182 71.1591 72.9596 69.537C76.4414 67.3146 78.0443 65.0964 82.6057 56.1882C85.2852 50.9552 85.3047 50.8758 84.118 50.0061C81.5151 48.0986 81.108 39.4623 83.3455 33.6189C84.529 30.5282 84.6656 30.3627 92.5143 22.514L100.482 14.5466L101.518 15.3572C102.363 16.0183 102.503 17.4214 102.275 22.9629C102.121 26.7002 101.647 30.9856 101.222 32.4859C100.094 36.4592 96.8479 41.105 93.3191 43.7953C90.7319 45.7678 90.3747 46.2263 89.232 49.0411C88.5433 50.7376 86.6864 54.6349 85.1055 57.7018L82.2312 63.278L96.5436 54.413L110.856 45.5481L113.761 41.2397C115.359 38.8702 117.414 35.3074 118.328 33.3226C119.984 29.7265 119.985 29.7081 118.614 28.1117C114.666 23.5159 115.871 18.672 123.703 7.64094C129.715 -0.827296 131.16 -1.71973 132.286 2.33914C133.152 5.46309 132.86 13.2551 131.757 16.4062C130.438 20.1772 127.975 24.257 125.556 26.676C124.29 27.9419 122.925 30.1499 121.485 33.2592C120.294 35.8324 118.74 38.894 118.03 40.0629C117.321 41.2317 116.969 42.0745 117.247 41.9355C120.07 40.5272 129.562 34.9506 130.168 34.3441C130.6 33.9127 131.267 33.55 131.652 33.5381C132.581 33.5094 146.164 26.4622 147.01 25.57C147.374 25.1866 148.32 23.728 149.112 22.329C150.389 20.0745 150.442 19.6781 149.578 18.8423C148.131 17.4428 148.753 15.0378 151.457 11.5778C158.661 2.36052 162.289 1.17619 161.102 8.42965C160.344 13.0637 159.506 14.6823 156.649 17.028C155.374 18.0747 153.921 19.534 153.42 20.2709L152.509 21.6106L153.877 21.1787C154.821 20.8805 156.012 19.8507 157.722 17.852C159.924 15.2798 160.571 14.8081 163.532 13.6198C167.792 11.9102 173.468 11.8229 174.742 13.4474C175.586 14.5241 175.542 14.6201 172.924 17.4475C169.384 21.2688 166.162 22.9299 161.8 23.1825C158.818 23.3553 157.407 23.9014 148.977 28.1459C143.767 30.769 139.502 33.0444 139.498 33.2024C139.478 34.0036 146.903 33.5544 149.535 32.5952C154.942 30.6245 168.221 31.3473 169.969 33.7074C170.569 34.518 170.435 34.9163 169.046 36.4447C168.152 37.4285 166.394 38.7416 165.139 39.3624ZM163.604 34.68C162.146 34.4496 160.183 34.3081 159.241 34.3657L157.53 34.4703L158.518 35.4304C160.264 37.1258 158.815 37.8284 154.719 37.2725C150.337 36.6777 149.607 37.1199 153.457 38.0362C157.441 38.9842 163.423 37.8662 165.565 35.7733C166.159 35.1931 165.886 35.0406 163.604 34.68ZM145.996 47.5928C143.233 46.9553 135.564 47.0057 133.168 47.677L131.36 48.1834L134.507 48.6235C137.905 49.0986 139.067 49.8082 138.488 51.0544C138.186 51.7039 138.306 51.8576 139.161 51.9175C140.47 52.0091 146.571 49.725 147.502 48.7952C148.149 48.1489 148.044 48.0652 145.996 47.5928ZM121.474 64.8913C115.366 63.8917 110.062 64.0514 106.101 65.354L102.99 66.3767L105.752 66.4246C111.005 66.5156 114.018 67.0467 114.728 68.0063C115.97 69.6851 114.608 70.3082 110.802 69.8022C108.777 69.5328 105.262 69.382 102.992 69.4671C99.6502 69.5924 99.0889 69.7408 100.046 70.2458C103.909 72.2852 109.77 72.5917 115.052 71.0306C117.704 70.2467 125.041 66.8498 125.968 65.9767C126.143 65.8131 124.12 65.3243 121.474 64.8913ZM168.648 15.3979C166.984 15.5221 164.574 16.1581 163.294 16.8112C160.351 18.3126 160.231 18.8729 163.131 17.5728C165.127 16.6779 165.379 16.7021 166.136 17.8621C167.042 19.25 167.565 19.0753 170.313 16.4655L171.675 15.172L168.648 15.3979ZM72.4934 105.14C63.5362 102.433 57.6566 102.747 50.8596 106.295C49.351 107.083 47.9014 107.942 47.6383 108.205C47.3752 108.469 51.0904 108.545 55.8942 108.376C60.8782 108.201 64.9178 108.358 65.3025 108.743C66.9397 110.38 65.1099 110.962 57.3942 111.257C43.0074 111.807 40.6073 112.33 48.08 113.285C52.545 113.856 57.0912 113.53 63.2725 112.196C67.6714 111.246 78.7013 107.712 78.7127 107.249C78.7159 107.123 75.9171 106.174 72.4934 105.14ZM96.1393 87.6972C91.4504 86.6153 84.6688 85.4937 82.7529 85.4832C79.7903 85.467 75.6136 86.2909 73.0422 87.3988L71.1069 88.2326L74.3737 88.4553C79.6359 88.8139 84.6 89.8784 84.9604 90.7254C85.6071 92.2454 83.9128 92.9405 81.0194 92.3424C77.9832 91.7146 68.2427 90.8054 67.2659 91.0585C66.2829 91.3132 68.9925 92.681 72.4879 93.6952C78.1061 95.3248 85.41 93.9853 93.119 89.9114C95.037 88.8979 96.6663 88.0232 96.7396 87.9676C96.8139 87.9126 96.5432 87.7899 96.1393 87.6972ZM157.809 10.1771C158.415 7.83985 157.718 7.83875 156.09 10.1744C155.245 11.3872 155.219 11.7683 155.956 12.1875C157.089 12.8321 157.134 12.7834 157.809 10.1771ZM121.959 23.6403C122.303 22.0316 122.752 19.4343 122.955 17.8684C123.17 16.2086 123.651 14.8697 124.107 14.6576C125.641 13.9442 126.298 15.6857 125.822 19.21L125.349 22.7204L126.412 21.1279C128.543 17.9367 129.799 13.5282 129.836 9.11039C129.856 6.68938 129.64 4.82919 129.355 4.97665C129.07 5.12412 127.182 7.58124 125.158 10.4369C121.665 15.3643 119.208 20.379 119.34 22.3089C119.422 23.4949 120.833 27.0642 121.111 26.7864C121.233 26.6646 121.614 25.2489 121.959 23.6403ZM90.1573 35.3792C90.8982 30.8174 91.4716 29.6866 92.765 30.2368C93.7514 30.6565 93.7875 32.2325 92.92 37.0212C92.1484 41.281 92.8527 41.5581 95.3516 37.978C97.8731 34.3655 98.9888 30.4791 99.2136 24.5256L99.4295 18.806L93.4647 24.9819C87.031 31.6434 86.0526 33.2349 84.8671 38.9693C84.4385 41.0421 85.2546 47.5032 86.0447 48.2933C86.5678 48.8164 89.4397 39.7984 90.1573 35.3792ZM55.4621 66.6683C56.7973 61.6417 57.2613 58.5713 57.473 53.3615C57.6562 48.8534 58.4922 47.2988 59.9496 48.7562C60.684 49.4906 60.5534 57.0522 59.7306 61.4368C59.1114 64.7369 59.8701 63.7333 61.6754 58.8644C63.1556 54.8723 63.4855 48.8806 62.5497 42.9825C62.1314 40.3457 61.7185 38.4608 61.6321 38.7938C61.5459 39.1269 59.8728 41.8675 57.9143 44.884C52.5793 53.101 50.4034 59.2464 51.3175 63.515C51.8532 66.0167 53.8778 70.903 54.2319 70.5489C54.3812 70.3997 54.9349 68.6533 55.4621 66.6683ZM22.2116 91.4509C23.0519 89.9959 24.2096 87.1096 24.7843 85.037C26.4765 78.9347 26.3828 74.6071 24.3648 65.6727L23.8863 63.5543L19.9252 71.3149C15.3414 80.2954 14.4943 82.7262 14.9578 85.5702C15.2872 87.5913 17.2082 90.9576 17.7328 90.433C18.3378 89.8279 19.0692 84.596 19.1314 80.4271C19.1982 75.9539 19.8767 74.2928 21.3765 74.9308C21.9231 75.1636 22.1471 76.9083 22.0781 80.3988C21.9857 85.0733 21.5802 87.7634 20.0511 93.8432C19.4972 96.0459 19.6665 95.8583 22.2116 91.4509Z" fill="white" fill-opacity="0.2"/>
</svg>
