<svg width="184" height="85" viewBox="0 0 184 85" fill="none" xmlns="http://www.w3.org/2000/svg">
<path d="M80.4522 11.9478C82.0623 13.4713 83.9054 15.5832 84.5481 16.6408C85.7039 18.5429 86.3953 21.6591 85.8495 22.5057C85.6942 22.7465 85.9408 24.0917 86.3971 25.4952C87.5858 29.1511 87.0666 32.5 84.7551 36.0851C82.3484 39.8181 78.7576 42.0172 75.1309 41.9793C73.7787 41.9651 72.6032 42.0777 72.5187 42.2294C72.2808 42.6542 86.7946 65.2689 92.3809 73.1789C99.0913 82.6808 117.103 105.689 118.573 106.636C118.773 106.765 119.069 105.383 119.23 103.566C119.392 101.748 119.762 99.3198 120.053 98.17C122.425 88.7818 124.807 67.1827 123.209 69.5505C122.622 70.4188 119.242 70.9614 117.266 70.504C111.816 69.2431 105.297 60.9397 102.427 51.602C101.184 47.5604 100.891 42.7436 101.802 41.3316C102.567 40.1446 104.272 40.3911 110.6 42.6044C118.06 45.213 123.831 49.8257 125.861 54.8016C126.837 57.1956 126.929 58.0843 126.596 61.9721C126.502 63.081 126.513 65.6866 126.622 67.7623C127.029 75.5333 126.075 83.8674 123.105 98.4949C122.488 101.538 122.041 104.874 122.113 105.907C122.188 106.986 121.918 108.048 121.48 108.399C120.699 109.027 122.662 111.198 134.461 122.757C136.856 125.103 137.481 126.001 137.243 126.758C136.976 127.606 137.23 127.872 139.188 128.799C161.066 139.155 172.078 144.771 179.351 149.286C184.093 152.229 184.337 152.446 183.813 153.257C183.293 154.064 182.675 153.801 173.544 148.886C155.069 138.94 131.974 128.185 116.345 122.248C107.838 119.017 96.861 115.944 89.795 114.816C84.515 113.974 73.6319 113.652 71.1191 114.265C70.3254 114.458 69.3399 114.427 68.929 114.196C68.517 113.966 68.8757 114.478 69.7242 115.337C70.638 116.263 71.5417 117.981 71.9417 119.553C73.7427 126.63 67.8858 134.694 59.5493 136.616C57.311 137.131 56.7477 137.501 55.9817 138.958C54.5388 141.701 49.9893 146.675 47.8244 147.875C45.1192 149.374 42.9457 149.423 38.5584 148.084C36.5069 147.457 32.3465 146.69 29.3132 146.379C24.1172 145.847 23.6026 145.688 20.4225 143.638C16.4683 141.089 13.8979 138.333 12.1614 134.783C11.2606 132.941 10.1625 131.649 8.22092 130.146C5.09268 127.724 2.13364 123.341 0.747122 119.077C-0.417809 115.494 -0.292019 114.097 1.63299 109.242C3.32125 104.985 3.5193 103.699 3.38134 97.8956C3.28657 93.9082 4.33633 91.3821 6.82301 89.6137C8.78307 88.2198 14.754 87.1672 16.9387 87.8306C18.691 88.3627 19.1076 88.2588 20.251 87.0042C21.973 85.1148 26.4739 83.3435 30.0309 83.1554C34.7568 82.9054 37.9952 84.205 44.3219 88.8908C47.2939 91.0916 53.9129 95.6034 59.0311 98.9164C68.165 104.828 68.3458 104.972 68.8183 106.678C69.0832 107.634 69.1854 109.116 69.0455 109.97L68.7911 111.525L73.2831 111.151C86.9897 110.012 102.851 113.56 125.125 122.746C128.802 124.263 132.274 125.784 132.841 126.127C133.83 126.724 133.845 126.71 133.221 125.777C132.864 125.243 129.33 121.589 125.369 117.657C117.01 109.359 112.033 103.755 104.794 94.4884C101.901 90.7848 99.2921 87.8565 98.9156 87.8898C97.7721 87.9908 85.3014 81.99 67.4886 72.7674C58.1433 67.9289 49.8121 63.6961 48.9747 63.3611C46.354 62.313 44.2551 62.3223 42.6422 63.3896C41.7865 63.9558 39.9992 64.4793 38.6704 64.553C36.5659 64.6697 35.6298 64.3523 31.4115 62.0917C26.5484 59.4855 19.1968 54.0396 17.456 51.7532C16.5136 50.5158 17.1471 49.0787 18.701 48.9291C19.2641 48.8748 21.1225 48.1892 22.8309 47.4053C25.1231 46.3535 26.7105 46.0559 28.8889 46.2694C32.0312 46.5776 36.466 48.2293 39.6324 50.2709C42.1971 51.9244 45.336 56.0748 45.3905 57.8847C45.4325 59.2783 45.5277 59.3637 47.7521 60.0044C49.027 60.3716 56.8433 64.2022 65.1218 68.517C73.4003 72.8317 83.5202 77.9833 87.6106 79.9649C91.701 81.9465 95.2428 83.6938 95.4814 83.8476C95.7202 84.0016 96.0396 83.9341 96.1919 83.6979C96.3443 83.4616 96.2562 83.1315 95.9962 82.9638C94.9294 82.2761 84.5289 67.1206 77.693 56.2927L70.3799 44.7091L68.8381 46.4357C65.3147 50.3816 60.3675 52.0588 55.0323 51.116C51.0568 50.4134 45.5107 47.2435 42.437 43.9169C39.7285 40.9857 38.1254 37.1345 39.0159 35.6983C39.4096 35.0599 39.2014 33.9347 38.3719 32.2407C37.1128 29.6691 37.232 28.0065 38.7907 26.4017C39.4669 25.7059 39.4273 25.1563 38.599 23.7242C36.7879 20.5929 36.8433 17.8402 38.7818 14.6418C39.7113 13.1087 40.4309 11.4995 40.3815 11.0664C40.094 8.5481 42.1943 4.19222 44.4917 2.54233C46.5773 1.0444 50.0314 -0.0858471 52.2463 0.0046722C53.4076 0.0520677 55.913 0.837683 57.8812 1.77152C60.4455 2.98816 61.9134 3.37969 63.192 3.18769C66.6887 2.66271 68.4638 3.21633 73.1318 6.28756C75.548 7.87684 78.8421 10.4243 80.4522 11.9478ZM66.4964 6.05482C65.3798 5.91938 63.7875 6.05477 62.9582 6.35572C61.0746 7.03917 58.8712 9.1907 59.5842 9.65038C59.8631 9.8302 60.2212 9.77639 60.3795 9.53078C60.888 8.74211 64.2966 7.7855 66.3058 7.86754C68.9503 7.97555 72.7236 10.4584 75.3196 13.7986C76.4303 15.2277 77.4475 16.6744 77.5802 17.0134C77.7129 17.3521 78.9546 18.2179 80.3399 18.937C82.4133 20.0139 82.8346 20.081 82.7237 19.3183C82.6494 18.8086 81.6805 17.3729 80.5699 16.1272C75.8388 10.8206 69.7271 6.44681 66.4964 6.05482ZM66.1007 10.8063C64.993 10.7545 63.9756 10.8844 63.8398 11.0949C63.4708 11.6673 67.879 16.34 70.9504 18.6321C73.6164 20.6217 73.6517 20.631 74.3667 19.522C74.8956 18.7016 74.8395 18.0592 74.1572 17.124C70.3927 11.9645 69.0943 10.9463 66.1007 10.8063ZM52.5726 2.96003C50.698 2.74314 46.9693 4.22797 45.1327 5.92266C44.5576 6.45334 43.8818 7.72951 43.6311 8.75863L43.1753 10.6297L45.9834 10.3164C47.5279 10.1441 49.5466 10.3188 50.4697 10.7047C51.3926 11.0906 52.2905 11.1866 52.4648 10.9184C52.639 10.6502 53.6592 10.0392 54.7317 9.56065C55.8475 9.06293 57.1761 7.95371 57.8373 6.968L58.993 5.24529L56.691 4.20771C55.4249 3.63696 53.5715 3.07562 52.5726 2.96003ZM78.2748 21.0541C77.0349 20.7698 76.7844 20.9544 75.6157 23.0144C74.9063 24.2654 74.3719 25.3824 74.4279 25.4965C74.484 25.6109 75.0564 26.4892 75.6994 27.4484C77.3566 29.9202 76.9589 32.6638 74.4551 36.0305C72.164 39.1112 72.4431 39.6123 76.0661 38.9224C80.1754 38.1399 83.4344 34.6673 83.9476 30.5243C84.2893 27.7653 83.7874 26.0002 82.0322 23.7884C80.3973 21.7283 80.0209 21.4546 78.2748 21.0541ZM115.532 50.4321C115.37 52.451 114.93 53.6871 113.868 55.1068C112.466 56.9809 112.462 57.0506 113.717 57.5061C116.129 58.3806 120.581 58.6993 122.017 58.1C123.598 57.4403 123.73 56.447 122.518 54.3343C121.739 52.9764 118.452 49.5485 116.908 48.4839L115.753 47.6874L115.532 50.4321ZM57.1236 12.0007C56.2909 11.9883 55.4403 12.2407 55.2332 12.5619C54.92 13.0477 55.2442 13.2472 57.1644 13.7491C59.8215 14.4437 63.9541 17.5075 65.4837 19.9166C66.3402 21.2657 66.5309 21.369 67.5153 21.0183C68.4965 20.6684 68.4553 20.4938 67.0903 19.2178C66.2589 18.4407 64.7488 16.8639 63.7347 15.7139C61.6331 13.3311 59.3233 12.0336 57.1236 12.0007ZM107.228 44.4819L104.122 43.5382L104.323 46.1114C104.5 48.3861 106.049 53.7935 107.072 55.7069C107.325 56.1796 108.132 55.9601 109.638 55.0091C112.09 53.4609 112.889 51.6095 112.505 48.3663C112.27 46.3843 111.414 45.7538 107.228 44.4819ZM67.5688 24.2376C66.4989 24.7456 65.307 25.6523 64.9201 26.2525C64.5332 26.8526 63.5531 27.7777 62.7422 28.3082C60.1964 29.9735 58.3286 31.5398 58.4229 31.9299C58.6117 32.7104 63.0989 33.4292 64.556 32.9122C67.2848 31.9442 71.7099 26.4254 71.7023 23.9997C71.6997 23.1699 69.5578 23.2932 67.5688 24.2376ZM56.0952 16.4841C53.8602 16.1126 53.58 16.2145 52.342 17.8495C51.1543 19.419 50.8803 19.5364 49.8971 18.9025C49.094 18.3847 48.9007 17.8433 49.1932 16.9294C49.4876 16.0089 49.0027 16.3861 47.3924 18.3287C45.2107 20.9607 45.1912 21.0197 45.4573 24.1731C46.1048 31.8467 48.851 35.2743 52.3551 32.7823C53.5759 31.9141 53.5741 31.9093 51.5381 30.5966C47.8614 28.2262 46.0913 23.3759 48.0196 20.9558C48.9439 19.7956 49.2713 19.7106 50.314 20.3583C51.0894 20.8402 52.697 20.9403 54.7497 20.6351C58.232 20.1173 59.8827 20.76 61.1817 23.1393C62.1564 24.9246 62.4746 25.0946 63.081 24.1542C63.8384 22.9794 63.069 21.0463 61.1049 19.1888C58.6497 16.8669 58.7617 16.9272 56.0952 16.4841ZM117.317 61.3048C116.024 61.1454 113.615 60.4998 111.964 59.8703C109.255 58.8377 109.006 58.8348 109.42 59.8413C109.672 60.4549 110.95 62.198 112.259 63.7149C117.41 69.6834 122.452 69.1959 123.506 62.6272L123.822 60.6561L121.745 61.1254C120.602 61.3835 118.61 61.4642 117.317 61.3048ZM66.8784 35.3394C64.3225 36.6807 60.3577 36.283 57.4231 34.3909C56.1461 33.5676 55.8243 33.5989 54.7891 34.646C54.1406 35.3022 52.7209 36.0278 51.6347 36.2589C50.0024 36.606 49.278 36.4328 47.4597 35.2605C45.0107 33.6815 44.1694 32.5307 43.3647 29.659C42.8421 27.7941 42.7698 27.727 41.6952 28.1082C40.1071 28.6716 40.0909 29.6607 41.63 32.0817C43.8328 35.5467 48.1456 37.5761 53.7014 37.7619C55.5744 37.8246 59.0419 38.0229 61.4069 38.2026C66.8276 38.6145 68.33 38.247 70.8048 35.9041C73.014 33.8124 74.0247 31.6127 73.5942 29.833C73.3311 28.7448 73.1074 28.8867 70.6059 31.7295C69.1187 33.4196 67.4414 35.0441 66.8784 35.3394ZM42.946 14.2314C40.2048 15.9128 39.4765 19.5253 41.2751 22.5212L42.1668 24.0066L42.3638 21.572C42.5407 19.3854 42.7666 18.9295 44.5817 17.0968C45.693 15.9744 46.899 14.5966 47.2613 14.0346C47.9109 13.027 47.8941 13.0113 46.3237 13.0758C45.4458 13.1103 43.9259 13.6303 42.946 14.2314ZM53.6647 23.7777L50.2309 24.3139L51.1434 26.1004C52.2809 28.3278 52.9076 28.7358 55.3674 28.8509C57.8466 28.9668 59.119 27.9826 59.0592 25.9956C58.9922 23.7745 57.5319 23.174 53.6647 23.7777ZM62.0869 41.1591C60.7473 40.995 57.9462 40.8613 55.8623 40.862C51.502 40.8633 46.662 39.5998 43.6194 37.6659L41.5094 36.3235L42.0829 38.1726C42.8603 40.6792 45.1472 43.1647 48.9356 45.6204C51.6139 47.3561 52.7003 47.7512 56.0436 48.203C60.5388 48.8106 63.1691 47.9111 66.5176 44.6213C69.3362 41.852 69.3751 40.9562 66.6646 41.2357C65.4868 41.3571 63.4265 41.3232 62.0869 41.1591ZM32.6617 49.9612C32.2504 49.929 32.116 50.9597 32.3046 52.6994L32.6072 55.4898L34.233 54.0567C35.1274 53.2687 36.14 52.425 36.4836 52.1823C36.9758 51.8347 36.7062 51.5574 35.2149 50.8771C34.1734 50.4022 33.0246 49.9899 32.6617 49.9612ZM39.3386 54.2479C38.8914 54.2348 37.595 55.053 36.458 56.0662C35.3209 57.0793 33.7629 58.1701 32.9958 58.4903C31.6024 59.0718 31.6027 59.0735 33.3028 60.1687C38.3805 63.4402 44.3686 60.5908 41.6252 56.2087C40.4303 54.3 40.4061 54.2793 39.3386 54.2479ZM23.8664 50.2829L21.1465 51.623L22.6708 52.9448C26.3145 56.1048 28.0779 57.1231 28.7363 56.4472C29.5056 55.6578 29.5556 52.0063 28.8206 50.3153C28.1083 48.6764 27.1399 48.6701 23.8664 50.2829ZM33.384 86.285C32.0246 86.1204 29.8501 86.1176 28.5518 86.2789C25.5777 86.6483 21.6662 89.0923 21.0175 90.9866C20.3559 92.9182 20.2281 96.7186 20.8128 97.0743C21.0812 97.2384 22.3294 97.2256 23.5855 97.0472C25.3463 96.7971 26.0954 96.3724 26.8559 95.1928C28.1208 93.231 30.0739 92.1774 33.1555 91.7946C37.9312 91.2014 40.4434 92.6596 50.606 101.924C59.004 109.579 60.4081 111.385 60.8366 115.083L61.0789 117.174L63.2377 114.529C65.7015 111.512 66.268 110.137 65.9702 107.898L65.76 106.319L54.7098 99.194C48.6322 95.2756 43.5977 91.7941 43.5221 91.4575C43.2624 90.3015 36.0167 86.6004 33.384 86.285ZM37.4481 95.1244C34.779 94.2568 30.1184 95.0836 29.1421 96.5978C28.2971 97.9084 29.281 98.3534 32.1076 97.9394C35.4512 97.4495 38.7734 98.3675 42.6501 100.853C46.1348 103.081 46.3501 103.331 49.6663 108.784C53.7988 115.579 54.5477 117.244 54.5378 119.616L54.53 121.438L55.8628 120.056C56.7013 119.187 57.3457 117.935 57.6001 116.682C58.1166 114.137 55.9747 110.454 51.8165 106.736C50.2001 105.291 47.1742 102.518 45.0922 100.574C40.4709 96.2575 40.0826 95.9807 37.4481 95.1244ZM63.4433 118.562C61.7271 120.375 60.5368 121.229 59.7687 121.202C59.1438 121.179 58.3776 121.546 58.0663 122.017C57.0659 123.526 53.4616 125.435 52.6247 124.896C51.9887 124.486 51.9259 124.774 52.2899 126.434C52.5887 127.796 53.0812 128.594 53.7688 128.828C54.4337 129.055 55.1254 130.086 55.7172 131.733C56.5498 134.049 56.7444 134.27 57.8187 134.12C60.3331 133.767 64.9816 131.182 66.6162 129.227C70.0422 125.13 70.0877 118.8 66.7082 116.398C66.1467 115.996 65.4108 116.485 63.4433 118.562ZM36.0641 101.092C31.2304 100.335 29.1201 101.661 29.7185 105.079C30.0444 106.941 30.0751 106.971 30.6882 106.051C31.1154 105.416 32.196 105.109 33.9704 105.128C36.3838 105.153 36.9832 105.392 40.7097 107.812C46.062 111.29 47.8797 113.994 48.0301 118.709C48.1169 121.428 48.3052 121.951 49.231 122.045C50.7742 122.202 51.975 120.115 51.4318 118.218C51.1888 117.37 49.3675 113.96 47.3844 110.641C43.1578 103.566 41.1737 101.893 36.0641 101.092ZM12.5825 90.7595C7.82329 91.5555 6.00128 93.3419 6.32065 96.899C6.76392 101.836 6.31396 105.36 4.75612 109.149C2.90627 113.649 2.662 115.64 3.61143 118.479C4.43918 120.954 6.65615 124.672 8.51095 126.696L9.85263 128.16L10.351 125.839C10.6949 124.238 10.5637 123.12 9.92743 122.233C8.7646 120.613 7.75786 115.659 7.99524 112.725C8.30715 108.871 9.82962 104.49 12.1433 100.791C14.0825 97.6904 14.5743 97.1893 15.9309 96.9309L17.4899 96.6339L17.3869 94.425C17.3302 93.2101 17.4503 91.9581 17.6536 91.6427C18.2197 90.7647 15.4428 90.2808 12.5825 90.7595ZM25.2679 99.9376C21.4758 99.7603 19.5557 101.398 19.8407 104.565C19.9411 105.681 20.0344 105.746 21.5812 105.769C22.51 105.783 23.5686 106.169 24.0333 106.664C24.483 107.143 25.3599 107.586 25.9817 107.65C27.048 107.758 27.089 107.629 26.6989 105.387C26.4366 103.88 26.5855 102.543 27.1058 101.737C28.0723 100.237 27.892 100.06 25.2679 99.9376ZM34.3689 108.047C31.3834 107.689 31.7325 108.54 35.9863 111.992C37.0853 112.883 38.3792 114.218 38.8616 114.958C39.4164 115.809 40.7491 116.839 42.487 117.762C45.2306 119.217 45.235 119.217 45.1434 117.79C44.8874 113.799 39.1612 108.621 34.3689 108.047ZM14.2885 102.612C11.2959 107.562 10.2299 115.174 11.9248 119.485C12.8536 121.847 16.012 125.601 18.3263 127.093L19.9014 128.109L19.5496 126.426C19.314 125.299 19.5074 124.369 20.1349 123.612C21.2217 122.301 20.9015 121.021 18.6757 117.782C17.0026 115.348 16.0918 111.261 16.7653 109.21C17.0128 108.456 17.144 106.464 17.0569 104.782C16.9609 102.928 17.2372 101.2 17.7595 100.39L18.6204 99.0547L17.2037 99.5942C16.2317 99.9643 15.3166 100.912 14.2885 102.612ZM28.0985 111.239C26.5704 110.771 25.3209 110.613 25.3218 110.888C25.3248 111.849 29.1712 114.483 32.7263 115.957C36.8799 117.681 37.3414 117.712 36.228 116.199C34.9772 114.499 31.1815 112.183 28.0985 111.239ZM46.2963 125.441C45.5143 126.654 41.8211 126.93 36.5716 126.167C33.558 125.729 32.5348 125.313 29.2377 123.184C26.7472 121.577 25.1037 120.203 24.5421 119.26C23.7565 117.941 23.6489 117.883 23.3604 118.62C22.9662 119.628 24.4695 122.515 26.3845 124.428C27.6128 125.655 29.0898 126.2 36.3524 128.108C41.0418 129.34 45.7161 130.445 46.7397 130.563C49.0307 130.828 50.0408 129.528 49.5255 126.976C49.073 124.736 47.2957 123.891 46.2963 125.441ZM39.0672 119.821C38.758 120.3 38.0802 120.572 37.561 120.424C37.042 120.276 36.1001 120.066 35.4683 119.957C34.8364 119.848 32.7652 119.05 30.8657 118.184C26.6586 116.266 25.7701 116.333 27.5195 118.437C30.3718 121.867 36.1916 123.894 42.4541 123.64C44.9685 123.537 44.7188 122.23 41.8291 120.367C39.9189 119.135 39.5556 119.063 39.0672 119.821ZM20.7019 108.798C19.4283 109.166 19.134 111.258 19.9936 113.829L20.7009 115.944L22.5209 115.405C23.5219 115.108 24.4197 114.759 24.516 114.629C24.6129 114.5 24.0454 113.724 23.2563 112.906C22.3496 111.965 21.887 110.957 21.9993 110.165C22.205 108.713 21.945 108.44 20.7019 108.798ZM50.9403 132.46C49.0814 134.043 46.8098 133.869 37.2396 131.41C30.2753 129.62 28.3171 128.915 25.7953 127.286C24.122 126.205 22.6508 125.479 22.5258 125.673C22.1483 126.259 24.0122 129.468 24.8382 129.655C25.2617 129.751 25.7529 130.263 25.9349 130.784C26.4408 132.264 29.09 133.1 34.1972 133.392C38.5377 133.641 40.8733 134.267 47.8823 137.061C49.4801 137.698 51.4646 138.162 52.2927 138.092C53.7839 137.966 53.7978 137.948 53.745 136.192C53.692 134.434 53.0235 131.897 52.5167 131.532C52.3726 131.425 51.6622 131.845 50.9403 132.46ZM44.3207 138.692C42.1627 137.798 39.1931 136.929 37.7217 136.76C36.2502 136.592 33.4357 136.279 31.4673 136.064C27.931 135.679 27.8007 135.619 20.5344 131.092L13.1804 126.511L13.1462 128.16C13.1274 129.067 13.3655 129.973 13.6753 130.172C13.985 130.372 14.2093 131.02 14.1734 131.613C14.0689 133.336 17.8742 138.556 20.8288 140.741C23.2961 142.565 23.8213 142.726 29.8943 143.513C33.4398 143.972 37.5741 144.801 39.0817 145.353C42.5844 146.638 45.2056 146.354 47.7313 144.416C50.6903 142.146 51.0966 141.32 49.526 140.767C48.8212 140.519 46.4787 139.585 44.3207 138.692Z" fill="white" fill-opacity="0.2"/>
</svg>
