<svg width="176" height="107" viewBox="0 0 176 107" fill="none" xmlns="http://www.w3.org/2000/svg">
<path d="M165.139 39.3624C161.914 40.9579 158.033 41.6545 154.519 41.2685C151.372 40.9227 146.745 38.8313 145.92 37.3814C145.589 36.7988 143.578 36.5158 139.374 36.4599C133.634 36.3835 133.097 36.4886 129.453 38.4014C124.958 40.761 113.73 47.1717 113.248 47.6538C113.066 47.8356 115.701 47.9205 119.103 47.8423C123.089 47.7507 125.938 47.3564 127.114 46.7334C133.407 43.3985 147.848 43.3215 151.132 46.6054C152.927 48.4006 148.81 52.2423 143.173 54.0313C137.757 55.7502 127.042 54.3853 124.282 51.625C122.274 49.6172 109.474 50.908 103.259 53.745C102.113 54.2682 96.6878 57.5506 91.2037 61.0393C85.7195 64.5279 80.4015 67.9061 79.3859 68.5464C78.3702 69.1867 77.5369 69.8046 77.5341 69.9196C77.5312 70.0348 79.677 69.6305 82.3024 69.0214C84.9277 68.4124 89.4449 67.6441 92.3404 67.3142C96.7541 66.8113 98.0258 66.4273 100.208 64.9381C105.688 61.1986 112.844 60.3916 124.089 62.245C133.192 63.7452 133.571 64.3166 127.915 68.0048C123.472 70.9012 118.53 73.1641 114.401 74.192C107.605 75.8839 100.419 74.7885 96.8891 71.5226C95.1168 69.8828 95.0242 69.8708 89.767 70.6053C83.8334 71.4342 74.6011 73.8198 71.5939 75.3013C70.5143 75.8331 68.8567 76.5185 67.9105 76.8243C66.4926 77.2826 51.5482 87.6815 49.8109 89.4188C49.5294 89.7003 50.5368 89.7032 52.0494 89.4255C53.5621 89.1476 57.3471 88.6986 60.4606 88.4276C64.7237 88.0565 66.6911 87.5913 68.4283 86.5434C74.6663 82.7807 82.0011 81.6748 89.7435 83.3297C92.248 83.865 95.848 84.5094 97.7436 84.7617C102.085 85.3394 102.514 86.2887 99.6215 88.9124C95.5401 92.6145 87.1336 96.3251 80.8142 97.2139C74.8365 98.0546 68.1685 96.2796 64.1594 92.7803C62.2374 91.1029 62.1857 91.0966 56.3108 91.8393C53.0582 92.2504 48.4493 93.2252 46.0689 94.0054C41.8945 95.3736 41.4727 95.6403 34.1806 101.522C30.0224 104.876 25.2434 108.804 23.5607 110.251C21.878 111.699 19.8218 113.399 18.9915 114.029C17.7053 115.006 18.0027 114.981 21.0024 113.866C22.9386 113.146 26.8523 112.011 29.6995 111.345C32.5467 110.678 35.1306 109.878 35.4416 109.567C35.7526 109.256 36.5206 109.22 37.1482 109.486C39.2427 110.375 42.2924 109.425 44.8625 107.083C49.5033 102.854 54.5464 100.865 61.5794 100.487C65.8084 100.26 67.6168 100.528 73.1541 102.203C76.7635 103.295 81.082 104.338 82.7508 104.522C85.8976 104.868 87.1125 105.751 86.2204 107.044C85.4627 108.141 70.3111 113.658 64.4352 114.975C54.4784 117.207 45.7384 116.904 39.6798 114.117C37.7994 113.252 36.3993 113.071 34.2531 113.415C29.5344 114.17 22.2954 116.412 16.3384 118.962C11.3761 121.086 10.2875 121.765 6.51377 125.094C2.8672 128.311 2.2804 128.992 2.34493 129.934C2.44608 131.41 1.63943 132.116 0.284788 131.736C-0.761501 131.443 -1.30928 131.888 -8.41376 138.809C-15.7048 145.912 -16.0234 146.168 -16.7181 145.473C-17.4191 144.772 -17.1722 144.48 -8.38295 135.597C-0.0558374 127.182 0.949904 126.015 4.08739 121.13C8.88827 113.655 11.2837 108.918 14.3445 100.845L17.0042 93.8305L15.242 92.0683C13.0638 89.8901 11.9681 87.1891 11.979 84.0244C11.9899 80.8374 12.7022 78.9249 16.756 71.1977C18.6229 67.6392 20.7097 63.0204 21.3934 60.9339C23.3051 55.1 24.7838 55.0477 26.2866 60.761C29.3448 72.3865 29.5456 80.778 26.9349 87.8448C25.1372 92.7112 23.7594 94.9964 19.9495 99.4316C18.0609 101.63 16.5226 104.058 15.241 106.864C14.1941 109.156 12.2446 113.011 10.9088 115.431C9.56221 117.871 8.94079 119.389 9.51406 118.839C11.6667 116.771 26.1543 104.474 31.4017 100.261C34.4107 97.8443 37.7054 95.1633 38.7231 94.303C39.7407 93.4426 42.3479 91.442 44.5166 89.857C48.1636 87.1916 48.4476 86.8954 48.2979 85.9127C48.209 85.3283 48.6562 83.9151 49.2918 82.7722C49.9274 81.6293 50.9607 79.4347 51.5878 77.8953C52.6415 75.3092 52.6317 74.8987 51.4596 72.4958C48.0258 65.4563 47.4068 60.4038 49.3102 54.952C50.8491 50.5444 60.2658 35.0454 61.8531 34.3075C63.2841 33.6423 64.311 35.6841 65.3126 41.1858C66.4912 47.6603 66.1778 55.2311 64.5379 59.8969C63.6184 62.5133 62.8395 63.7583 60.7432 65.9624C58.5855 68.231 57.8786 69.3884 56.8588 72.3218C56.1731 74.2942 54.7855 77.813 53.7753 80.1415C52.765 82.4699 52.0459 84.2736 52.1772 84.1495C52.8589 83.5053 70.4192 71.1591 72.9605 69.537C76.4424 67.3146 78.0453 65.0964 82.6067 56.1882C85.2862 50.9552 85.3057 50.8758 84.119 50.0061C81.5161 48.0986 81.109 39.4623 83.3465 33.6189C84.53 30.5282 84.6666 30.3627 92.5153 22.514L100.483 14.5466L101.519 15.3572C102.364 16.0183 102.504 17.4214 102.276 22.9629C102.122 26.7002 101.648 30.9856 101.223 32.4859C100.095 36.4592 96.8488 41.105 93.3201 43.7953C90.7329 45.7678 90.3756 46.2263 89.2329 49.0411C88.5443 50.7376 86.6873 54.6349 85.1065 57.7018L82.2322 63.278L96.5445 54.413L110.857 45.5481L113.762 41.2397C115.36 38.8702 117.415 35.3074 118.329 33.3226C119.985 29.7265 119.986 29.7081 118.615 28.1117C114.667 23.5159 115.872 18.672 123.704 7.64094C129.716 -0.827298 131.161 -1.71973 132.287 2.33914C133.153 5.46309 132.861 13.2551 131.758 16.4062C130.439 20.1772 127.976 24.257 125.557 26.676C124.291 27.9419 122.926 30.1499 121.486 33.2592C120.295 35.8324 118.741 38.894 118.031 40.0629C117.322 41.2317 116.97 42.0745 117.248 41.9355C120.071 40.5272 129.563 34.9506 130.169 34.3441C130.601 33.9127 131.268 33.55 131.653 33.5381C132.582 33.5094 146.165 26.4622 147.011 25.57C147.375 25.1866 148.321 23.728 149.113 22.329C150.39 20.0745 150.443 19.6781 149.579 18.8423C148.132 17.4428 148.754 15.0378 151.458 11.5778C158.662 2.36052 162.29 1.17619 161.103 8.42965C160.345 13.0637 159.507 14.6823 156.65 17.028C155.375 18.0747 153.922 19.534 153.421 20.2709L152.51 21.6106L153.878 21.1787C154.822 20.8805 156.013 19.8507 157.723 17.852C159.925 15.2798 160.572 14.8081 163.533 13.6198C167.793 11.9102 173.469 11.8229 174.743 13.4474C175.587 14.5241 175.543 14.6201 172.925 17.4475C169.385 21.2688 166.163 22.9299 161.801 23.1825C158.819 23.3553 157.408 23.9014 148.978 28.1459C143.768 30.769 139.503 33.0444 139.499 33.2024C139.479 34.0036 146.904 33.5544 149.536 32.5952C154.943 30.6245 168.222 31.3473 169.97 33.7074C170.57 34.518 170.436 34.9163 169.047 36.4448C168.153 37.4285 166.395 38.7416 165.139 39.3624ZM163.605 34.68C162.147 34.4496 160.184 34.3081 159.242 34.3657L157.531 34.4703L158.519 35.4304C160.265 37.1258 158.816 37.8285 154.72 37.2725C150.338 36.6777 149.608 37.1199 153.458 38.0362C157.442 38.9842 163.424 37.8662 165.566 35.7733C166.16 35.1931 165.887 35.0406 163.605 34.68ZM145.997 47.5928C143.234 46.9553 135.565 47.0057 133.169 47.677L131.361 48.1834L134.508 48.6235C137.906 49.0986 139.068 49.8082 138.489 51.0544C138.187 51.7039 138.307 51.8576 139.162 51.9175C140.471 52.0091 146.572 49.725 147.503 48.7952C148.15 48.1489 148.045 48.0652 145.997 47.5928ZM121.475 64.8913C115.367 63.8917 110.063 64.0514 106.102 65.354L102.991 66.3767L105.753 66.4246C111.006 66.5156 114.019 67.0467 114.729 68.0063C115.97 69.6851 114.608 70.3082 110.803 69.8022C108.778 69.5328 105.263 69.382 102.993 69.4671C99.6511 69.5924 99.0899 69.7408 100.047 70.2458C103.91 72.2852 109.771 72.5917 115.053 71.0306C117.705 70.2467 125.042 66.8498 125.969 65.9767C126.144 65.8131 124.121 65.3243 121.475 64.8913ZM168.649 15.3979C166.985 15.5221 164.575 16.1581 163.295 16.8112C160.352 18.3126 160.232 18.8729 163.132 17.5728C165.128 16.6779 165.38 16.7021 166.137 17.8621C167.043 19.25 167.566 19.0753 170.314 16.4655L171.676 15.172L168.649 15.3979ZM72.4944 105.14C63.5372 102.433 57.6576 102.747 50.8606 106.295C49.3519 107.083 47.9023 107.942 47.6393 108.205C47.3762 108.469 51.0913 108.545 55.8951 108.376C60.8791 108.201 64.9188 108.358 65.3035 108.743C66.9407 110.38 65.1109 110.962 57.3952 111.257C43.0084 111.807 40.6083 112.33 48.081 113.285C52.5459 113.856 57.0922 113.53 63.2735 112.196C67.6724 111.246 78.7023 107.712 78.7137 107.249C78.7168 107.123 75.9181 106.174 72.4944 105.14ZM96.1403 87.6972C91.4513 86.6153 84.6698 85.4937 82.7539 85.4832C79.7913 85.467 75.6146 86.2909 73.0432 87.3988L71.1078 88.2326L74.3747 88.4553C79.6369 88.814 84.601 89.8784 84.9613 90.7254C85.608 92.2454 83.9137 92.9406 81.0204 92.3424C77.9842 91.7146 68.2436 90.8054 67.2668 91.0585C66.2839 91.3132 68.9934 92.681 72.4889 93.6952C78.1071 95.3248 85.411 93.9853 93.12 89.9114C95.038 88.8979 96.6672 88.0232 96.7406 87.9676C96.8149 87.9125 96.5442 87.7899 96.1403 87.6972ZM157.81 10.1771C158.416 7.83985 157.719 7.83875 156.091 10.1744C155.246 11.3872 155.22 11.7683 155.957 12.1875C157.09 12.8321 157.135 12.7834 157.81 10.1771ZM121.96 23.6403C122.304 22.0316 122.753 19.4343 122.956 17.8684C123.171 16.2086 123.651 14.8697 124.108 14.6576C125.642 13.9442 126.299 15.6857 125.823 19.21L125.35 22.7204L126.413 21.1279C128.544 17.9367 129.8 13.5282 129.837 9.11039C129.857 6.68938 129.641 4.82919 129.356 4.97665C129.071 5.12412 127.183 7.58124 125.159 10.4369C121.666 15.3643 119.209 20.379 119.341 22.3089C119.423 23.4949 120.834 27.0642 121.112 26.7864C121.234 26.6646 121.615 25.2489 121.96 23.6403ZM90.1583 35.3792C90.8991 30.8174 91.4726 29.6866 92.766 30.2368C93.7524 30.6565 93.7884 32.2325 92.921 37.0212C92.1494 41.281 92.8536 41.5581 95.3526 37.978C97.8741 34.3655 98.9898 30.4791 99.2146 24.5256L99.4305 18.806L93.4656 24.9819C87.032 31.6434 86.0536 33.2349 84.868 38.9693C84.4395 41.0421 85.2556 47.5032 86.0457 48.2933C86.5688 48.8164 89.4407 39.7984 90.1583 35.3792ZM55.4631 66.6683C56.7983 61.6417 57.2623 58.5713 57.474 53.3615C57.6572 48.8534 58.4931 47.2988 59.9505 48.7562C60.685 49.4906 60.5544 57.0522 59.7316 61.4368C59.1124 64.7369 59.8711 63.7333 61.6764 58.8644C63.1566 54.8723 63.4865 48.8806 62.5507 42.9825C62.1323 40.3457 61.7194 38.4608 61.6331 38.7938C61.5469 39.1269 59.8738 41.8675 57.9153 44.884C52.5803 53.101 50.4043 59.2464 51.3184 63.515C51.8542 66.0167 53.8788 70.903 54.2329 70.5489C54.3821 70.3997 54.9358 68.6533 55.4631 66.6683ZM22.2126 91.4509C23.0528 89.9958 24.2106 87.1096 24.7853 85.037C26.4775 78.9347 26.3838 74.6071 24.3658 65.6727L23.8873 63.5543L19.9262 71.3149C15.3423 80.2954 14.4953 82.7263 14.9588 85.5702C15.2881 87.5913 17.2091 90.9576 17.7338 90.433C18.3388 89.8279 19.0701 84.596 19.1324 80.4271C19.1992 75.9539 19.8777 74.2928 21.3774 74.9308C21.9241 75.1636 22.1481 76.9083 22.0791 80.3988C21.9867 85.0734 21.5811 87.7634 20.0521 93.8432C19.4981 96.0459 19.6675 95.8583 22.2126 91.4509Z" fill="white" fill-opacity="0.2"/>
</svg>
