<svg width="89" height="110" viewBox="0 0 89 110" fill="none" xmlns="http://www.w3.org/2000/svg">
<path d="M87.3553 82.7411C85.2688 85.2373 81.5332 87.7054 76.995 89.5861C73.8164 90.9034 73.5304 91.1227 74.9701 91.1385C77.1329 91.1612 80.1151 92.4752 80.5192 93.5815C81.9433 97.4796 71.3562 101.956 62.822 101.064C58.8661 100.651 54.3015 99.1291 51.5542 97.3074C50.4581 96.5806 49.4492 95.986 49.3124 95.986C48.8437 95.986 43.4117 106.073 41.3221 110.823C33.3694 128.903 29.503 144.744 27.2639 168.42C26.6894 174.495 26.3753 183.992 26.2632 198.679C26.163 211.817 25.9049 220.29 25.5952 220.615C25.3178 220.907 24.7684 221.015 24.3744 220.856C22.0318 219.912 20.2196 178.861 20.1886 126.033C20.1734 98.1504 20.297 92.474 21.0753 85.7915C22.2338 75.8423 24.2999 62.7118 25.4656 57.8905L26.3735 54.1349H24.7401C20.8735 54.1349 20.019 53.6049 15.7623 48.5664C7.25826 38.5005 2.49301 30.4746 0.763692 23.3045C-0.663269 17.388 -0.158334 15.5031 2.85346 15.5031C5.7725 15.5031 11.1763 20.591 18.3537 30.097C18.5094 30.3034 18.6367 24.5086 18.6367 17.2198C18.6367 4.82643 18.7048 3.84553 19.6842 2.08937C20.8259 0.0424889 22.5299 -0.577037 23.856 0.57262C26.207 2.61096 27.9824 11.2046 28.4407 22.7648L28.7393 30.2948L30.762 26.2524C34.7857 18.2109 41.1801 9.30696 45.0414 6.3689C47.247 4.69068 49.8779 4.26786 50.9709 5.416C52.6387 7.16782 51.1112 13.7882 46.9901 22.6681L44.5364 27.955L46.4 26.0551C48.8558 23.5514 53.6883 20.5401 55.9727 20.0899C58.7744 19.5379 60.2676 20.8092 60.2676 23.7464C60.2676 32.2505 44.8732 48.4703 33.3111 52.1484L29.5963 53.3301L28.8426 55.9725C27.6737 60.0701 25.6886 71.2847 24.5616 80.1576C22.5584 95.931 22.3055 103.569 22.7147 135.959C23.0794 164.849 23.7081 187.709 23.9088 179.386C24.1889 167.771 26.5178 149.39 29.1527 137.997C32.1777 124.918 38.3986 108.661 44.2506 98.5416C46.027 95.4701 46.0908 95.2153 45.2187 94.6805C39.5852 91.2264 36.7479 86.3012 36.3624 79.3074C36.0812 74.2086 37.2854 67.2325 39.0036 64.0046C39.8758 62.3661 40.4619 61.8793 41.7185 61.7503C43.0303 61.6157 43.5784 61.9242 44.7388 63.4518C45.5184 64.4782 46.5426 66.3557 47.0147 67.6241L47.8732 69.9303L49.0342 67.5322C52.1567 61.083 56.3124 56.0753 58.297 56.3703C59.4301 56.5389 59.4972 56.7559 59.4301 60.037C59.3832 62.3102 58.6562 66.0837 57.3413 70.8742L55.3239 78.2239L58.5379 74.5776C67.414 64.5074 77.4841 58.7469 80.3655 62.0913C82.525 64.5978 80.5556 68.9782 74.4183 75.3198L69.7177 80.1769L74.315 78.9001C77.4293 78.0351 80.4776 77.5993 83.7649 77.5491L88.6176 77.4746L88.774 79.1654C88.8912 80.4338 88.5372 81.3276 87.3553 82.7411ZM82.8713 80.0972C74.9709 81.0536 63.4258 85.4513 55.926 90.3613L53.8827 91.6989L56.9477 91.3738C65.3926 90.4788 75.4582 87.5123 80.6308 84.394C82.8387 83.0628 85.8084 80.533 85.8084 79.9832C85.8084 79.8498 84.4867 79.9018 82.8713 80.0972ZM77.6208 63.7929C77.3317 63.7929 75.7527 64.5049 74.1115 65.375C70.2564 67.4192 64.3867 72.3347 60.5824 76.7048C57.5253 80.2165 52.4008 87.9012 52.8215 88.3431C53.1299 88.6666 61.2147 83.1203 65.376 79.7306C70.1199 75.8663 74.9643 70.8857 76.6743 68.1144C78.1641 65.7 78.5818 63.7929 77.6208 63.7929ZM70.7395 93.5161C68.4064 93.3298 64.5709 93.4783 61.8003 93.8664C59.1313 94.2387 56.0857 94.5544 55.0321 94.5678C53.9786 94.5829 53.1166 94.6774 53.1166 94.7821C53.1166 95.3862 59.2769 97.6795 61.9563 98.073C66.6597 98.7636 72.6706 97.6907 76.2481 95.522L77.6703 94.6598L76.2481 94.2512C75.466 94.0263 72.9871 93.6956 70.7395 93.5161ZM56.1683 23.2054C52.7264 23.9285 45.4701 30.3196 40.7034 36.8265C38.5036 39.8293 34.2402 47.4297 34.2238 48.3779C34.2163 48.6051 35.1935 48.2694 36.3875 47.6316C44.5497 43.2721 53.2481 34.4096 56.4457 27.195C58.1365 23.3801 58.0963 22.8005 56.1683 23.2054ZM55.667 62.1415C53.5443 64.7493 50.7261 70.5924 49.8108 74.2837C48.9716 77.6682 48.8456 82.0719 49.4892 85.5232L49.8895 87.6694L50.2868 86.0597C50.5053 85.1745 52.1424 79.1382 53.9247 72.6459C55.707 66.1536 57.1643 60.7211 57.1633 60.5735C57.1633 60.4258 56.489 61.1316 55.667 62.1415ZM48.4946 7.45491C47.3646 7.45491 40.7559 15.2047 37.6258 20.2004C33.3833 26.9717 31.4921 30.9733 29.3661 37.6781C27.647 43.0994 26.1995 50.185 26.703 50.7138C27.1886 51.2239 29.1085 49.5943 29.1085 48.672C29.1085 48.1702 29.307 47.6308 29.5494 47.4734C30.3052 46.9828 34.5144 40.189 38.0545 33.746C45.461 20.2656 50.5482 7.45491 48.4946 7.45491ZM46.0761 80.5378C46.1215 75.4299 45.9246 73.5885 45.0222 70.687C43.685 66.3879 42.1655 64.1748 41.3936 65.4025C40.6188 66.635 38.8139 75.188 38.8139 77.6277C38.8139 82.7441 41.739 88.9416 45.1521 91.0569L46.8126 92.0859L46.4164 89.4529C46.1983 88.0048 46.0452 83.993 46.0761 80.5378ZM24.7886 12.0616C24.3361 9.43102 23.5489 6.29222 23.0391 5.08647L22.1121 2.89417L21.4541 6.11354C20.5318 10.6256 21.0739 32.7067 22.2181 37.2323C22.6657 39.0023 22.9276 40.8688 22.8004 41.3802C22.4742 42.6907 23.7152 47.542 24.1763 46.7584C24.3815 46.4099 24.6614 44.2446 24.7983 41.9472C24.9351 39.6498 25.2583 36.6836 25.5163 35.3556C26.194 31.867 25.7499 17.6508 24.7886 12.0616ZM20.207 44.3654C19.7649 42.0908 19.4032 39.6904 19.4032 39.0312C19.4032 35.8513 10.1128 23.2168 5.32535 19.8858C3.98321 18.952 2.78279 18.2954 2.65784 18.4267C2.25339 18.8514 4.64102 26.3713 6.23805 29.7029C8.84381 35.1387 13.2817 41.3868 19.5898 48.5012C21.7575 50.9458 22.2719 51.333 21.7276 50.1107C21.3334 49.2254 20.6491 46.64 20.207 44.3654Z" fill="white" fill-opacity="0.2"/>
</svg>
