<svg width="202" height="118" viewBox="0 0 202 118" fill="none" xmlns="http://www.w3.org/2000/svg">
<path d="M109.964 109.337C110.01 108.842 110.389 108.338 110.806 108.217C111.89 107.901 112.939 109.244 112.265 110.084C111.513 111.019 109.856 110.481 109.964 109.337ZM92.4412 91.4662C91.9816 90.021 91.7728 87.8775 91.9771 86.7031C92.4327 84.0842 95.2561 78.5067 96.8055 77.165C97.8636 76.2486 97.8472 75.8801 96.5774 72.0565C92.2989 59.1738 87.0799 48.2648 80.5491 38.5535L77.0779 33.3917L67.9566 28.6763C62.056 25.6258 58.1771 23.8643 56.9711 23.6875C55.7752 23.5121 55.0233 23.1723 54.8737 22.7393C54.3966 21.3592 34.3712 13.0807 20.5168 8.5362C12.3295 5.85065 9.04099 4.96595 1.86402 3.518C-2.98668 2.53933 -4.384 1.7899 -3.72702 0.51909C-3.27095 -0.363103 -0.791235 -0.143952 5.68179 1.35091C17.6411 4.11264 35.064 10.3874 53.3903 18.5327C57.1003 20.1818 58.9885 20.7717 60.1505 20.6449C61.0373 20.5481 67.1366 20.3265 73.7047 20.1524C87.2396 19.7934 97.2483 18.944 100.753 17.8567L103.139 17.1166L101.631 14.2461C99.1271 9.48006 99.9254 5.56168 103.458 5.27635C105.514 5.11034 107.561 6.70606 108.479 9.19029L109.175 11.0721L110.816 10.3722C114.712 8.7109 121.574 10.7064 122.038 13.6354C122.468 16.3438 119.958 19.3674 116.62 20.1631L115.143 20.5153L116.806 22.2807C119.743 25.3988 119.025 28.3289 115.326 28.323C113.199 28.3197 107.788 25.0032 105.577 22.3481L103.769 20.1765L100.015 21.0418C95.4487 22.094 85.3853 22.8786 72.9042 23.1552L63.5831 23.3618L75.0006 29.6154C81.28 33.0553 89.7533 38.0061 93.8299 40.6182C98.3877 43.5385 101.538 45.3172 102.012 45.2371C102.436 45.1656 104.148 45.3577 105.817 45.6641C110.996 46.6153 120.327 46.5884 131.115 45.5914C140.077 44.7632 141.494 44.4865 141.654 43.5334C141.755 42.9277 142.418 41.0495 143.126 39.3598C144.813 35.3327 146.998 33.6861 149.375 34.65C151.218 35.3973 151.639 36.9857 150.771 39.9193L150.24 41.7147L152.403 41.7694C155.318 41.843 156.675 42.6395 157.385 44.6927C158.193 47.0289 157.421 48.2276 154.574 49.0577C152.382 49.6967 152.242 49.8224 152.955 50.514C154.176 51.6994 155.637 55.6153 155.185 56.49C154.573 57.6734 152.446 57.9788 150.788 57.1214C148.533 55.9557 144.498 51.8547 143.342 49.5537L142.305 47.4899L139.289 47.79C124.571 49.2541 119.442 49.5518 113.3 49.2982C107.785 49.0705 106.521 49.172 107.629 49.7535C111.443 51.7553 133.532 67.988 143.349 76.0026C147.898 79.7166 147.927 79.7328 151.36 80.4521C160.036 82.2701 173.034 83.4061 177.445 82.7318C178.57 82.5599 178.602 82.3861 178.032 79.5529C177.527 77.0455 177.619 76.1872 178.595 74.2993C180.473 70.6652 183.282 69.32 186.028 70.7394C187.286 71.3899 188.186 73.7379 187.875 75.5608C187.68 76.704 187.745 76.7158 190.228 75.9918C194.929 74.621 200.14 75.7599 200.884 78.3212C201.408 80.1204 200.608 81.2446 197.889 82.5354L195.483 83.6778L197.297 84.6157C200.258 86.1465 200.213 88.5438 197.198 89.8295C194.341 91.0479 189.667 90.6264 185.554 88.7796C183.43 87.8263 181.522 86.6866 181.158 86.1648C180.643 85.4188 179.921 85.3159 177.487 85.641C173.498 86.1738 164.898 85.6979 158.143 84.5705L152.717 83.665L160.027 90.1618C164.048 93.735 169.633 98.8497 172.439 101.528L177.54 106.397L181.466 106.219C183.626 106.122 186.371 106.267 187.567 106.542C192.179 107.603 195.783 111.34 194.791 114.032C194.191 115.66 192.926 116.187 190.12 115.98L187.941 115.819L189.62 118.798C192.239 123.444 191.815 126.145 188.493 125.982C187.213 125.919 186.306 125.503 184.687 124.239C182.798 122.763 182.557 122.679 182.523 123.489C182.503 123.99 182.188 125.209 181.823 126.198C181.244 127.766 180.964 127.984 179.642 127.894C177.348 127.738 175.003 125.243 173.524 121.385C172.172 117.859 172.238 114.332 173.735 110.04L174.602 107.554L168.452 101.719C165.069 98.5108 158.938 92.9482 154.827 89.3584C148.772 84.0714 146.883 82.6592 144.879 81.9244C142.722 81.1331 142.433 80.8915 142.615 80.0335C142.791 79.2029 141.568 78.075 134.776 72.8015C130.35 69.3649 125.928 65.9981 124.95 65.3195C123.403 64.2461 123.25 64.2219 123.773 65.1333C127.787 72.1219 131.816 80.6814 134.355 87.6108L135.771 91.4747L138.52 91.822C142.483 92.3226 147.822 95.1495 148.964 97.3504C150.856 101 147.513 103.902 143.162 102.385L140.935 101.609L141.783 104.684C142.487 107.234 142.465 108.021 141.655 109.298C140.697 110.81 140.637 110.818 138.302 109.785C136.742 109.094 135.656 108.282 135.145 107.421C134.374 106.123 134.357 106.126 133.575 107.637C132.702 109.327 130.822 110.053 129.324 109.279C128.113 108.653 126.971 105.041 126.936 101.719C126.898 98.2168 129.278 93.2813 131.352 92.5591C132.746 92.0739 132.756 92.048 132.229 90.278C131.069 86.3806 125.483 74.1981 122.601 69.278C117.358 60.3303 115.199 58.0366 106.42 52.0897C98.5853 46.7821 83.9909 37.4453 83.674 37.5377C83.5755 37.5663 84.8674 39.7637 86.5444 42.4205C90.6161 48.8718 93.4786 55.0864 97.7713 66.7952C101.337 76.52 101.351 76.5467 103.071 76.7219C106.266 77.0474 111.183 80.4525 114.55 84.6714C117.771 88.7085 118.541 90.4074 117.651 91.5157C116.854 92.5071 114.321 91.8145 111.121 89.7308L108.41 87.965L109.21 89.6549C110.71 92.826 110.164 96.2283 108.09 96.6304C106.63 96.9135 102.141 94.466 101.193 92.8709C100.457 91.6305 100.433 91.636 99.8586 93.1857C98.9193 95.7194 97.5355 96.2953 95.24 95.1086C93.5848 94.2529 93.1454 93.6815 92.4412 91.4662ZM97.4099 91.7742C97.5891 90.9971 97.7861 88.6521 97.8473 86.5627C97.9094 84.444 98.2775 82.4181 98.6795 81.9824C99.5997 80.9851 98.9859 79.342 98.0076 80.1838C96.9357 81.1059 95.0732 85.026 94.9099 86.7041C94.5229 90.6732 96.6624 95.0121 97.4099 91.7742ZM132.281 101.276C132.471 99.1849 132.915 96.9112 133.268 96.2237C134.103 94.5921 133.49 94.3199 132.02 95.6693C130.231 97.3114 129.459 101.974 130.401 105.447C130.731 106.664 130.755 106.675 131.337 105.887C131.666 105.443 132.09 103.368 132.281 101.276ZM106.896 92.3971C106.592 90.1035 103.315 84.5814 102.414 84.844C101.845 85.0099 101.944 86.0334 102.778 88.5977C103.703 91.4414 104.229 92.2808 105.5 92.9379C107.016 93.7214 107.069 93.7009 106.896 92.3971ZM139.326 107.028C139.603 106.492 136.912 99.8604 136.47 99.9893C136.284 100.043 136.229 101.061 136.346 102.251C136.604 104.851 138.708 108.224 139.326 107.028ZM179.391 124.166C179.779 123.415 178.473 116.307 177.426 113.477C176.659 111.403 176.451 111.162 176.068 111.912C175.336 113.345 175.462 118.346 176.281 120.396C177.523 123.505 178.881 125.152 179.391 124.166ZM113.141 87.4164C112.788 86.3958 107.54 81.3428 106.029 80.5694C103.624 79.3429 101.709 79.4479 104.021 80.6837C104.931 81.1715 106.871 82.6764 108.331 84.0299C110.825 86.3424 113.395 88.1522 113.141 87.4164ZM145.63 99.9437C148.182 99.4487 145.396 96.5212 141.263 95.3544C137.733 94.358 136.919 94.4602 137.261 95.8571C137.478 96.7469 138.205 97.2683 141.026 98.5591C143.02 99.4717 144.998 100.066 145.63 99.9437ZM187.939 121.653C187.129 119.821 183.386 115.095 181.544 113.577L180.273 112.53L180.951 114.722C181.806 117.484 184.773 121.262 186.961 122.376L188.636 123.225L187.939 121.653ZM189.409 112.962C190.666 113.105 191.779 113.055 191.884 112.852C192.253 112.139 189.515 109.908 187.842 109.558C185.31 109.029 180.619 108.94 180.373 109.416C180.048 110.044 186.699 112.653 189.409 112.962ZM192.183 87.496C197.185 87.6343 197.177 86.7999 192.163 85.4598C189.229 84.6755 184.289 84.3157 184.004 84.8657C183.61 85.6281 189.158 87.4126 192.183 87.496ZM183.502 79.9289C185.044 76.8535 185.321 74.1126 184.152 73.5082C183.008 72.9165 181.236 74.3774 180.817 76.259C180.495 77.7026 181.285 81.514 181.981 81.8736C182.22 81.9972 182.904 81.1219 183.502 79.9289ZM193.145 80.9133C195.832 80.4309 198.067 79.4389 197.854 78.8229C197.8 78.6669 196.37 78.4924 194.675 78.4345C192.478 78.3594 190.968 78.7058 189.414 79.6412C188.216 80.3628 187.153 81.112 187.053 81.3059C186.825 81.7467 189.442 81.578 193.145 80.9133ZM151.509 53.7394C150.879 52.4973 147.12 48.3257 146.205 47.8526C145.088 47.275 147.157 50.2629 149.367 52.4171C152.123 55.1045 152.237 55.1752 151.509 53.7394ZM146.79 42.333C147.714 40.5782 148.339 38.0301 147.904 37.8057C147.177 37.4295 145.543 39.9575 145.094 42.1538C144.761 43.7859 144.843 44.256 145.405 43.9437C145.824 43.711 146.447 42.9861 146.79 42.333ZM152.187 46.4229C153.166 46.4058 154.186 46.1842 154.455 45.9306C155.721 44.7345 150.608 44.1264 148.873 45.267C147.946 45.8765 147.969 45.9615 149.13 46.196C149.832 46.3379 151.208 46.4401 152.187 46.4229ZM114.725 25.3297C115.651 25.4401 115.652 25.3016 114.73 24.1511C113.65 22.8021 107.599 18.8495 107.35 19.3302C107.143 19.7315 108.605 21.6532 110.047 22.8758C111.69 24.2673 113.419 25.1718 114.725 25.3297ZM105.736 12.4352C105.89 11.1835 105.836 9.86569 105.616 9.50669C104.957 8.43139 103.579 7.93188 103.214 8.6366C102.863 9.31718 104.396 14.1629 105.074 14.5135C105.285 14.6223 105.582 13.6869 105.736 12.4352ZM113.841 17.5913C117.872 17.1988 120.647 14.5134 118.283 13.2918C115.483 11.8438 110.624 13.0129 109.365 15.4378C108.626 16.8631 110.762 17.8908 113.841 17.5913Z" fill="white" fill-opacity="0.2"/>
</svg>
