<svg width="202" height="118" viewBox="0 0 202 118" fill="none" xmlns="http://www.w3.org/2000/svg">
<path d="M109.964 109.338C110.01 108.843 110.389 108.339 110.806 108.217C111.89 107.901 112.939 109.245 112.265 110.084C111.513 111.019 109.856 110.482 109.964 109.338ZM92.4412 91.4667C91.9816 90.0214 91.7728 87.878 91.9771 86.7036C92.4327 84.0847 95.2561 78.5072 96.8055 77.1655C97.8636 76.2491 97.8472 75.8805 96.5774 72.057C92.2989 59.1743 87.0799 48.2653 80.5491 38.554L77.0779 33.3922L67.9566 28.6768C62.056 25.6263 58.1771 23.8648 56.9711 23.688C55.7752 23.5126 55.0233 23.1728 54.8737 22.7398C54.3966 21.3597 34.3712 13.0811 20.5168 8.53669C12.3295 5.85114 9.04099 4.96644 1.86402 3.51849C-2.98668 2.53982 -4.384 1.79039 -3.72702 0.519578C-3.27095 -0.362615 -0.791235 -0.143464 5.68179 1.3514C17.6411 4.11313 35.064 10.3879 53.3903 18.5332C57.1003 20.1822 58.9885 20.7721 60.1505 20.6454C61.0373 20.5486 67.1366 20.327 73.7047 20.1528C87.2396 19.7939 97.2483 18.9445 100.753 17.8572L103.139 17.1171L101.631 14.2466C99.1271 9.48055 99.9254 5.56217 103.458 5.27684C105.514 5.11082 107.561 6.70655 108.479 9.19078L109.175 11.0726L110.816 10.3727C114.712 8.71139 121.574 10.7068 122.038 13.6359C122.468 16.3443 119.958 19.3679 116.62 20.1636L115.143 20.5158L116.806 22.2812C119.743 25.3993 119.025 28.3294 115.326 28.3235C113.199 28.3202 107.788 25.0037 105.577 22.3486L103.769 20.177L100.015 21.0423C95.4487 22.0945 85.3853 22.8791 72.9042 23.1557L63.5831 23.3623L75.0006 29.6159C81.28 33.0558 89.7533 38.0066 93.8299 40.6187C98.3877 43.539 101.538 45.3176 102.012 45.2376C102.436 45.166 104.148 45.3582 105.817 45.6646C110.996 46.6158 120.327 46.5889 131.115 45.5919C140.077 44.7637 141.494 44.487 141.654 43.5339C141.755 42.9282 142.418 41.05 143.126 39.3603C144.813 35.3332 146.998 33.6866 149.375 34.6505C151.218 35.3978 151.639 36.9862 150.771 39.9198L150.24 41.7152L152.403 41.7699C155.318 41.8435 156.675 42.64 157.385 44.6932C158.193 47.0294 157.421 48.2281 154.574 49.0582C152.382 49.6972 152.242 49.8229 152.955 50.5145C154.176 51.6998 155.637 55.6158 155.185 56.4905C154.573 57.6738 152.446 57.9792 150.788 57.1219C148.533 55.9562 144.498 51.8552 143.342 49.5542L142.305 47.4904L139.289 47.7905C124.571 49.2546 119.442 49.5523 113.3 49.2987C107.785 49.071 106.521 49.1725 107.629 49.754C111.443 51.7558 133.532 67.9885 143.349 76.0031C147.898 79.7171 147.927 79.7333 151.36 80.4526C160.036 82.2706 173.034 83.4066 177.445 82.7323C178.57 82.5604 178.602 82.3866 178.032 79.5534C177.527 77.046 177.619 76.1877 178.595 74.2998C180.473 70.6657 183.282 69.3204 186.028 70.7399C187.286 71.3904 188.186 73.7384 187.875 75.5613C187.68 76.7045 187.745 76.7163 190.228 75.9923C194.929 74.6215 200.14 75.7604 200.884 78.3217C201.408 80.1209 200.608 81.2451 197.889 82.5359L195.483 83.6783L197.297 84.6162C200.258 86.147 200.213 88.5443 197.198 89.83C194.341 91.0484 189.667 90.6269 185.554 88.7801C183.43 87.8268 181.522 86.6871 181.158 86.1653C180.643 85.4193 179.921 85.3163 177.487 85.6415C173.498 86.1743 164.898 85.6984 158.143 84.571L152.717 83.6655L160.027 90.1623C164.048 93.7355 169.633 98.8502 172.439 101.528L177.54 106.397L181.466 106.22C183.626 106.122 186.371 106.267 187.567 106.543C192.179 107.604 195.783 111.341 194.791 114.033C194.191 115.66 192.926 116.188 190.12 115.98L187.941 115.819L189.62 118.799C192.239 123.444 191.815 126.145 188.493 125.982C187.213 125.919 186.306 125.504 184.687 124.239C182.798 122.763 182.557 122.68 182.523 123.489C182.503 123.99 182.188 125.209 181.823 126.199C181.244 127.767 180.964 127.984 179.642 127.894C177.348 127.738 175.003 125.244 173.524 121.385C172.172 117.86 172.238 114.333 173.735 110.041L174.602 107.554L168.452 101.72C165.069 98.5112 158.938 92.9487 154.827 89.3589C148.772 84.0718 146.883 82.6597 144.879 81.9249C142.722 81.1336 142.433 80.892 142.615 80.034C142.791 79.2034 141.568 78.0755 134.776 72.8019C130.35 69.3654 125.928 65.9985 124.95 65.32C123.403 64.2466 123.25 64.2224 123.773 65.1338C127.787 72.1224 131.816 80.6819 134.355 87.6113L135.771 91.4752L138.52 91.8225C142.483 92.3231 147.822 95.15 148.964 97.3509C150.856 101.001 147.513 103.902 143.162 102.386L140.935 101.61L141.783 104.685C142.487 107.235 142.465 108.022 141.655 109.298C140.697 110.81 140.637 110.819 138.302 109.785C136.742 109.095 135.656 108.282 135.145 107.421C134.374 106.124 134.357 106.126 133.575 107.637C132.702 109.328 130.822 110.054 129.324 109.28C128.113 108.653 126.971 105.041 126.936 101.72C126.898 98.2172 129.278 93.2818 131.352 92.5596C132.746 92.0744 132.756 92.0485 132.229 90.2785C131.069 86.3811 125.483 74.1986 122.601 69.2785C117.358 60.3307 115.199 58.037 106.42 52.0902C98.5853 46.7826 83.9909 37.4458 83.674 37.5382C83.5755 37.5668 84.8674 39.7642 86.5444 42.421C90.6161 48.8723 93.4786 55.0869 97.7713 66.7957C101.337 76.5205 101.351 76.5472 103.071 76.7224C106.266 77.0479 111.183 80.453 114.55 84.6719C117.771 88.709 118.541 90.4079 117.651 91.5162C116.854 92.5076 114.321 91.815 111.121 89.7313L108.41 87.9655L109.21 89.6554C110.71 92.8265 110.164 96.2287 108.09 96.6309C106.63 96.9139 102.141 94.4665 101.193 92.8714C100.457 91.6309 100.433 91.6364 99.8586 93.1862C98.9193 95.7199 97.5355 96.2958 95.24 95.1091C93.5848 94.2534 93.1454 93.682 92.4412 91.4667ZM97.4099 91.7747C97.5891 90.9976 97.7861 88.6525 97.8473 86.5631C97.9094 84.4445 98.2775 82.4186 98.6795 81.9829C99.5997 80.9856 98.9859 79.3424 98.0076 80.1843C96.9357 81.1064 95.0732 85.0265 94.9099 86.7046C94.5229 90.6737 96.6624 95.0126 97.4099 91.7747ZM132.281 101.277C132.471 99.1854 132.915 96.9117 133.268 96.2241C134.103 94.5926 133.49 94.3203 132.02 95.6698C130.231 97.3119 129.459 101.975 130.401 105.448C130.731 106.665 130.755 106.676 131.337 105.888C131.666 105.443 132.09 103.368 132.281 101.277ZM106.896 92.3976C106.592 90.104 103.315 84.5818 102.414 84.8445C101.845 85.0104 101.944 86.0339 102.778 88.5982C103.703 91.4418 104.229 92.2813 105.5 92.9383C107.016 93.7219 107.069 93.7013 106.896 92.3976ZM139.326 107.029C139.603 106.492 136.912 99.8609 136.47 99.9898C136.284 100.044 136.229 101.062 136.346 102.251C136.604 104.851 138.708 108.225 139.326 107.029ZM179.391 124.167C179.779 123.416 178.473 116.307 177.426 113.477C176.659 111.403 176.451 111.163 176.068 111.913C175.336 113.345 175.462 118.346 176.281 120.396C177.523 123.505 178.881 125.153 179.391 124.167ZM113.141 87.4168C112.788 86.3963 107.54 81.3433 106.029 80.5699C103.624 79.3434 101.709 79.4484 104.021 80.6842C104.931 81.1719 106.871 82.6769 108.331 84.0303C110.825 86.3429 113.395 88.1527 113.141 87.4168ZM145.63 99.9442C148.182 99.4492 145.396 96.5217 141.263 95.3549C137.733 94.3584 136.919 94.4607 137.261 95.8575C137.478 96.7474 138.205 97.2688 141.026 98.5596C143.02 99.4722 144.998 100.067 145.63 99.9442ZM187.939 121.653C187.129 119.822 183.386 115.096 181.544 113.577L180.273 112.53L180.951 114.723C181.806 117.484 184.773 121.263 186.961 122.376L188.636 123.225L187.939 121.653ZM189.409 112.962C190.666 113.105 191.779 113.056 191.884 112.853C192.253 112.14 189.515 109.909 187.842 109.559C185.31 109.03 180.619 108.94 180.373 109.416C180.048 110.045 186.699 112.653 189.409 112.962ZM192.183 87.4965C197.185 87.6348 197.177 86.8004 192.163 85.4603C189.229 84.676 184.289 84.3162 184.004 84.8662C183.61 85.6286 189.158 87.4131 192.183 87.4965ZM183.502 79.9294C185.044 76.854 185.321 74.113 184.152 73.5087C183.008 72.917 181.236 74.3779 180.817 76.2594C180.495 77.7031 181.285 81.5145 181.981 81.8741C182.22 81.9977 182.904 81.1224 183.502 79.9294ZM193.145 80.9138C195.832 80.4314 198.067 79.4394 197.854 78.8234C197.8 78.6674 196.37 78.4929 194.675 78.4349C192.478 78.3599 190.968 78.7063 189.414 79.6417C188.216 80.3633 187.153 81.1125 187.053 81.3064C186.825 81.7472 189.442 81.5785 193.145 80.9138ZM151.509 53.7399C150.879 52.4978 147.12 48.3262 146.205 47.8531C145.088 47.2755 147.157 50.2634 149.367 52.4176C152.123 55.105 152.237 55.1757 151.509 53.7399ZM146.79 42.3335C147.714 40.5787 148.339 38.0306 147.904 37.8061C147.177 37.4299 145.543 39.958 145.094 42.1543C144.761 43.7864 144.843 44.2564 145.405 43.9442C145.824 43.7115 146.447 42.9866 146.79 42.3335ZM152.187 46.4234C153.166 46.4063 154.186 46.1847 154.455 45.9311C155.721 44.7349 150.608 44.1269 148.873 45.2675C147.946 45.8769 147.969 45.962 149.13 46.1965C149.832 46.3384 151.208 46.4406 152.187 46.4234ZM114.725 25.3302C115.651 25.4406 115.652 25.302 114.73 24.1516C113.65 22.8026 107.599 18.8499 107.35 19.3307C107.143 19.732 108.605 21.6537 110.047 22.8763C111.69 24.2678 113.419 25.1723 114.725 25.3302ZM105.736 12.4357C105.89 11.184 105.836 9.86618 105.616 9.50718C104.957 8.43188 103.579 7.93237 103.214 8.63709C102.863 9.31767 104.396 14.1634 105.074 14.5139C105.285 14.6228 105.582 13.6874 105.736 12.4357ZM113.841 17.5918C117.872 17.1992 120.647 14.5139 118.283 13.2922C115.483 11.8443 110.624 13.0134 109.365 15.4383C108.626 16.8636 110.762 17.8913 113.841 17.5918Z" fill="white" fill-opacity="0.2"/>
</svg>
