<svg width="171" height="91" viewBox="0 0 171 91" fill="none" xmlns="http://www.w3.org/2000/svg">
<path d="M153.474 82.0185C149.496 80.7123 145.122 77.0436 136.717 67.9637L134.276 65.3263L135.576 68.1846C140.355 78.6935 141.143 90.5372 137.256 93.4681C136.125 94.321 135.392 94.4768 134.269 94.1022C131.197 93.0779 125.609 82.7128 123.945 74.9525C123.58 73.2508 123.198 71.7483 123.097 71.6136C122.995 71.4787 122.497 73.7252 121.989 76.6054C120.13 87.1549 117.189 94.5641 113.316 98.4564C109.573 102.219 106.541 99.3572 106.364 91.8939C106.271 87.9529 107.644 78.6449 109.075 73.5161C109.425 72.264 109.478 71.5609 109.193 71.9537C108.908 72.3464 107.431 74.3969 105.909 76.5102C103.511 79.8404 102.276 81.0438 96.6402 85.5428C89.1391 91.5304 87.5956 92.2631 86.248 90.4761C85.7361 89.7972 85.5026 88.6535 85.6868 87.7268C86.2397 84.9457 90.1244 78.5529 94.1583 73.786C96.3082 71.2454 98.5419 68.5933 99.1222 67.8924C100.844 65.8129 85.9041 76.3069 78.2549 82.5501C52.0303 103.955 15.636 143.725 -0.588831 168.708C-2.51059 171.667 -2.92027 172.689 -2.49701 173.468C-2.14789 174.111 -2.25998 174.688 -2.81479 175.106C-3.52881 175.645 -3.87663 175.481 -4.90183 174.121C-6.05462 172.592 -6.05324 172.342 -4.88088 170.139C-4.19266 168.846 -1.425 164.696 1.26951 160.917C13.7952 143.351 30.1329 124.518 49.6218 105.178C65.3168 89.6031 68.3314 86.9611 83.4498 75.5315L97.6187 64.8181L93.4738 66.2552C83.6995 69.6438 74.1663 69.9993 71.9482 67.058C70.4612 65.0861 70.8119 64.2409 74.1671 61.7107C78.8508 58.1786 91.202 54.4186 100.236 53.7746L103.106 53.5701L98.7529 52.8836C88.7598 51.3077 79.692 47.4587 74.8794 42.75C72.6439 40.5628 72.1314 39.8198 71.9955 38.5693C71.7325 36.1487 72.3198 35.2471 74.7778 34.2986C78.9829 32.6759 89.6122 35.0125 100.578 39.9702L105.167 42.0446L99.1229 34.0303C92.2727 24.9466 90.2085 20.9407 89.6527 15.6672C89.2822 12.1519 89.7821 10.747 91.8604 9.46307C93.5357 8.42839 96.2568 9.05916 99.1349 11.1498C101.294 12.7186 108.222 21.949 110.339 26.078C111.177 27.7126 111.98 29.0635 112.124 29.08C112.267 29.0963 112.212 27.5717 112.001 25.6915C111.261 19.0967 111.32 12.858 112.173 7.6187C112.959 2.78876 113.184 2.21796 114.771 1.02093C117.156 -0.77766 118.601 -0.289029 121.238 3.20767C124.812 7.94598 125.928 13.4287 125.181 22.5768L124.877 26.3011L125.87 23.6074C128.7 15.9273 133.476 8.30504 138.041 4.18335C141.431 1.12324 142.91 0.756222 144.32 2.62617C146.594 5.6408 145.543 12.4257 141.541 20.5698L139.625 24.47L144.577 20.7546C148.846 17.554 149.887 16.9656 152.131 16.514C154.28 16.0816 154.926 16.1968 155.832 17.1732C156.716 18.1263 156.807 18.7132 156.302 20.194C155.516 22.4957 151.535 27.374 147.355 31.1558L144.159 34.0472L149.719 31.6182C158.948 27.5869 165.272 26.1133 168.592 27.2206C170.511 27.8604 170.959 28.8957 170.264 31.0821C169.763 32.6557 169.159 33.253 164.873 36.4096C161.67 38.7686 158.764 40.5141 156.237 41.5975L152.428 43.2303L157.278 43.777C167.831 44.9666 170.991 48.9827 164.018 52.3429C158.474 55.0142 152.64 55.5619 140.25 54.5745L132.994 53.9963L137.013 55.9412C139.223 57.0109 143.263 59.6105 145.989 61.718C150.085 64.8836 151.598 66.3943 154.689 70.4057C157.92 74.5987 158.476 75.5761 158.767 77.5665C159.067 79.6185 158.921 80.0307 157.438 81.3229C155.897 82.6657 155.601 82.7173 153.474 82.0185ZM155.635 77.2093C154.033 72.0035 143.95 62.6798 135.54 58.6274L131.389 56.6273L133.82 59.9119C137.469 64.8403 144.092 71.971 147.888 75.0578C151.336 77.8617 155.157 79.969 155.847 79.4482C156.06 79.288 155.964 78.2804 155.635 77.2093ZM136.696 86.6937C137.146 79.1729 132.81 66.6957 127.117 59.1272C126.224 57.943 125.644 56.6847 125.775 56.2287C126.157 54.9074 127.968 53.028 128.84 53.0476C129.435 53.061 129.427 52.7742 128.81 51.9785C128.162 51.1408 128.173 50.6866 128.864 50.0029C129.717 49.1585 129.697 49.1038 128.453 48.8974C126.986 48.6537 126.358 47.3056 127.36 46.5502C128.165 45.9427 128.167 45.9453 126.213 45.0181C125.009 44.4482 124.448 44.4778 123.913 45.1395C123.394 45.7806 122.962 45.8276 122.301 45.318C121.6 44.7782 121.345 44.8213 121.165 45.5098C121.037 45.9982 120.15 47.0784 119.193 47.9102C118.237 48.742 117.226 49.6215 116.947 49.8648C116.661 50.1135 116.847 50.8461 117.373 51.543C118.478 53.0086 117.815 54.5035 116.252 54.0714C115.684 53.9144 114.768 54.1451 114.216 54.5839L113.213 55.3831L114.467 55.0213C116.06 54.5616 117.263 55.276 117.359 56.7383C117.413 57.5594 117.567 57.7761 117.912 57.5159C118.175 57.3174 119.144 57.2271 120.065 57.3155C120.986 57.4038 122.189 57.1447 122.738 56.7396C124.466 55.4649 125.121 57.0083 125.415 63.0459C125.571 66.2422 126.05 70.5488 126.481 72.6162C127.996 79.8942 131.882 88.7418 134.452 90.7646C135.353 91.4741 135.602 91.4442 136.026 90.5748C136.302 90.0068 136.602 88.2602 136.696 86.6937ZM114.747 90.9134C116.857 86.6629 118.751 79.6011 119.598 72.8257C120.214 67.8949 120.427 60.9436 119.979 60.3504C119.253 59.387 114.606 67.2318 112.375 73.1879C109.706 80.3134 108.4 96.3693 110.429 97.1074C111.105 97.3532 112.65 95.1369 114.747 90.9134ZM161.986 47.7422C158.672 46.4458 152.779 46.0997 146.977 46.8607C142.058 47.5059 133.874 49.7185 133.273 50.566C132.763 51.2847 148.282 52.4042 153.388 52.0172C157.207 51.7278 164.239 49.781 164.399 48.9688C164.428 48.8243 163.342 48.2725 161.986 47.7422ZM166.484 31.7111C167.724 30.1341 167.728 30.0235 166.552 29.8282C164.748 29.5287 158.387 31.1577 153.004 33.2977C147.379 35.5337 136.648 40.9627 132.181 43.8325L128.925 45.9242L131.011 46.0167C136.254 46.2493 151.509 41.2296 160.893 36.1843C163.231 34.9273 165.186 33.3635 166.484 31.7111ZM100.605 78.5102C103.498 75.2902 108.273 68.1018 111.215 62.5407L112.877 59.398L108.983 62.7003C104.119 66.8259 97.5464 73.6544 94.4765 77.7724C91.6551 81.5569 88.4901 87.2113 88.8937 87.7464C89.3656 88.3722 97.5316 81.9322 100.605 78.5102ZM111.149 56.2157C110.834 56.1009 110.395 56.1444 110.174 56.3116C109.952 56.4788 109.909 56.7991 110.078 57.0234C110.247 57.2479 110.686 57.2046 111.054 56.9276C111.421 56.6506 111.464 56.3303 111.149 56.2157ZM146.306 28.4024C149.704 25.1606 152.726 21.3866 153.168 19.8317C153.936 17.1271 145.077 22.9122 139.553 28.7225C133.624 34.9586 128.334 41.4422 129.253 41.3468C130.445 41.223 142.293 32.23 146.306 28.4024ZM108.182 56.2915C107.89 55.9039 96.4655 57.118 92.0061 58.0106C83.6452 59.6841 73.0833 64.1075 74.131 65.4968C74.2784 65.6924 75.8166 65.958 77.5489 66.0867C83.268 66.5115 93.272 63.8763 102.54 59.5037C106.765 57.5107 108.4 56.5799 108.182 56.2915ZM110.366 49.0265C104.42 44.579 94.8819 40.2563 85.6101 37.8069C81.1403 36.6261 76.4018 36.3555 75.2608 37.2159C72.8923 39.002 80.9538 44.7161 90.0567 47.7052C94.6524 49.2139 112.891 52.1059 113.017 51.3458C113.044 51.1812 111.851 50.1373 110.366 49.0265ZM130.13 33.2495C139.329 20.3543 143.747 10.0972 142.298 4.99506C142.044 4.10094 141.861 4.18144 140.01 5.99945C133.989 11.912 129.026 21.4977 126.187 32.6997C125.141 36.8289 124.796 40.1668 125.467 39.6602C125.574 39.5794 127.673 36.6946 130.13 33.2495ZM113.598 42.0532C111.147 32.8813 104.472 20.2065 99.7218 15.7063C96.7068 12.8497 93.4395 11.2399 92.7667 12.2794C92.1281 13.2662 92.8654 17.6749 94.2771 21.3108C95.8356 25.3246 102.375 34.7942 106.785 39.424C110.289 43.1023 114.33 46.7794 114.625 46.5573C114.706 46.4961 114.244 44.4692 113.598 42.0532ZM120.893 32.3936C123.367 17.7917 122.75 9.23533 118.896 4.73621C117.864 3.53152 116.956 2.88601 116.514 3.04329C115.397 3.44098 114.256 12.62 114.515 19.1299C114.734 24.6437 116.931 39.5171 117.894 42.0124C118.132 42.6284 118.517 42.9823 118.754 42.8034C118.99 42.6252 119.953 37.9408 120.893 32.3936Z" fill="white" fill-opacity="0.2"/>
</svg>
