<svg width="210" height="120" viewBox="0 0 210 120" fill="none" xmlns="http://www.w3.org/2000/svg">
<path d="M70.073 15.826C70.9798 16.725 73.8642 20.9108 76.4825 25.1281C80.45 31.5185 81.4235 33.5354 82.3257 37.2358C82.9483 39.7892 83.2715 43.1178 83.0862 45.069C82.6349 49.8225 79.7166 54.3615 75.1522 57.411C73.4209 58.5674 72.0387 59.6269 72.0806 59.7657C72.1228 59.9042 73.841 60.7464 75.8996 61.637C81.7107 64.1509 97.1353 72.0253 105.673 76.8368C115.756 82.5186 149.506 104.197 159.075 111.136C175.858 123.309 208.283 150.16 209.783 153.127C210.174 153.899 209.316 154.914 208.439 154.717C208.008 154.621 203.758 151.073 198.995 146.834C175.938 126.314 158.799 113.368 131.441 95.8095C107.628 80.5279 91.8913 71.7413 74.4547 63.9981C68.1553 61.2007 68.9495 60.7799 61.8373 70.6865C56.133 78.6321 55.8142 78.8641 50.6567 78.8247C42.9767 78.7661 35.9418 76.2887 25.0595 69.8104C16.2073 64.5408 11.8906 61.0392 8.13878 56.0843C3.53074 49.9991 0.245912 41.8287 0.026332 35.9062C-0.175012 30.475 0.717784 27.5529 4.80788 20.2578C15.9528 0.379514 16.1895 0.0726238 20.9959 -0.730719C24.7501 -1.35817 31.3175 -0.931289 35.9569 0.241644C38.0589 0.773095 41.646 1.57624 43.9282 2.02638C46.2104 2.47652 49.8981 3.59759 52.123 4.51769C56.627 6.3804 67.3757 13.1522 70.073 15.826ZM53.851 9.71223C50.0353 12.3291 44.6509 21.6738 42.0426 30.2059L40.8016 34.2654L43.9604 30.6105C50.7802 22.7199 55.6774 19.3739 62.5549 17.906C65.5126 17.2747 66.897 16.7397 66.6032 16.3417C66.3579 16.0085 63.7221 14.1521 60.7469 12.2147L55.337 8.69292L53.851 9.71223ZM42.5616 4.64942C40.4355 4.22963 37.5145 3.6032 36.0707 3.25738C34.6269 2.91158 33.37 2.74651 33.2776 2.89052C32.9105 3.46215 32.9993 11.8993 33.4187 16.2911C33.8589 20.9027 36.7651 33.7982 37.4655 34.2479C37.6655 34.3763 37.9549 33.8109 38.1094 32.9919C39.2468 26.9501 46.6752 12.3016 50.3871 8.78115L51.9594 7.28998L49.1934 6.35128C47.6721 5.83504 44.6879 5.06924 42.5616 4.64942ZM67.0379 20.1788C61.9336 20.4713 56.6063 22.6433 52.4737 26.1168C49.833 28.3365 44.4529 34.1362 43.2446 36.0656L42.2648 37.6335L43.7017 36.7108C46.9547 34.6219 55.4862 31.1872 59.193 30.4743C63.3659 29.6717 68.6563 29.9461 72.2594 31.1521C73.4406 31.5472 74.9808 31.7303 75.6824 31.5587C76.9068 31.2592 76.8277 31.0386 73.7201 26.0833C71.9392 23.2435 70.204 20.7249 69.8641 20.4866C69.5233 20.2498 68.2516 20.1092 67.0379 20.1788ZM26.0817 1.94189L22.4368 1.91822L22.4855 4.81583C22.5815 10.5219 25.6552 19.1348 30.2789 26.6542C31.6046 28.8102 32.8156 30.6554 32.97 30.7546C33.1246 30.8538 32.7083 28.5947 32.0454 25.7346C30.5851 19.4345 29.9133 13.045 30.0621 6.8732C30.1232 4.33775 30.0728 2.1963 29.95 2.11442C29.8267 2.03295 28.0865 1.95493 26.0817 1.94189ZM71.1313 33.8772C64.7298 31.7345 59.0485 32.6396 48.7282 37.4463L46.6158 38.4301L49.1881 38.5064C53.2831 38.6279 60.8893 40.3193 64.3717 41.8828C66.1329 42.6737 69.9287 44.7146 72.8068 46.4184C77.1995 49.0189 78.0143 49.6491 77.8826 50.343C77.5764 51.9556 75.5142 51.3954 70.9367 48.4561C68.5349 46.9138 65.4117 45.1729 63.9964 44.5875C60.5491 43.1617 53.1039 41.6045 49.1644 41.4855L45.9684 41.3891L54.5416 47.3166C59.2569 50.5766 64.6571 54.1444 66.5423 55.2444L69.9701 57.2446L73.4152 54.9039C79.7684 50.5875 81.367 45.9815 79.396 37.6713L78.5105 33.9377L76.0831 34.33C74.7007 34.5533 72.5689 34.3584 71.1313 33.8772ZM14.4912 8.81098C12.363 12.1254 11.1451 14.444 11.2248 15.0292C11.406 16.3599 7.68735 23.3701 6.81833 23.3362C6.44401 23.3218 5.74776 23.9308 5.27088 24.6901C4.51602 25.8936 4.53309 26.0077 5.40973 25.5821C7.418 24.6069 24.0391 28.0551 27.2412 30.1112C29.0012 31.2414 28.8717 30.2193 26.8005 26.6325C25.5964 24.5474 23.8746 21.0287 22.9742 18.813C21.2011 14.4498 18.8382 4.52384 19.3739 3.68951C19.6225 3.3025 19.4788 3.21843 18.7932 3.35254C18.1641 3.47387 16.8379 5.15637 14.4912 8.81098ZM43.2078 43.0353C42.9627 43.417 45.5853 47.779 52.2432 58.0634C56.0905 64.0062 59.2965 68.9059 59.3676 68.9516C59.4385 68.9971 60.7731 67.3272 62.333 65.2405C63.8926 63.1536 65.6955 60.9031 66.3389 60.2393L67.5088 59.0323L59.7538 53.8706C55.4883 51.032 50.0455 47.3938 47.6586 45.786C45.2715 44.1783 43.2687 42.9406 43.2078 43.0353ZM25.9007 32.5509C21.5023 30.8289 15.3444 29.3067 10.115 28.6489C7.84474 28.3633 5.72996 27.7959 5.32161 27.3628C4.67812 26.6801 4.5228 26.774 4.02098 28.1479C3.27317 30.1949 2.83483 34.9216 3.16432 37.3856L3.42633 39.3454L5.23379 38.7145C8.90416 37.4334 21.8598 35.3006 26.4918 35.2148C31.7469 35.1175 31.6794 34.8134 25.9007 32.5509ZM28.137 38.2044C22.6655 38.1967 7.52084 40.5881 5.22556 41.822C4.27623 42.3324 4.29709 42.7481 5.40933 45.5165C6.7656 48.8918 11.1392 55.8245 13.1184 57.7363L14.3444 58.9207L18.1144 53.5713C22.2275 47.7352 26.5063 43.6935 32.3033 40.1683C33.9824 39.1473 35.0219 38.2895 34.6134 38.2621C34.2048 38.2346 31.2906 38.2088 28.137 38.2044ZM38.7081 47.35C37.9211 55.8829 40.1436 66.7226 43.8456 72.4067L45.9083 75.5739L49.2838 75.8175C53.146 76.0963 54.4785 75.6439 56.4937 73.3696C57.7646 71.9352 57.8362 71.6445 57.1261 70.8125C55.727 69.1732 43.0306 49.354 41.3229 46.1435C40.4214 44.4486 39.5509 43.0869 39.3885 43.1175C39.2261 43.148 38.92 45.0528 38.7081 47.35ZM29.4825 45.8017C24.9334 49.2423 21.8754 52.461 19.1669 56.6599C16.7702 60.3715 16.7535 60.4464 17.6792 61.6903C19.6033 64.2718 38.0578 74.2944 41.1058 74.4132C41.3856 74.4245 41.0361 73.5098 40.329 72.3814C38.5886 69.6041 36.2626 61.0721 35.7695 55.6563C35.3579 51.1354 35.5925 44.8805 36.2599 42.5798C36.6233 41.327 36.5887 41.3232 34.5813 42.398C33.4539 43.0016 31.1595 44.5333 29.4825 45.8017Z" fill="white" fill-opacity="0.2"/>
</svg>
