<svg width="171" height="91" viewBox="0 0 171 91" fill="none" xmlns="http://www.w3.org/2000/svg">
<path d="M153.475 82.0183C149.497 80.712 145.122 77.0433 136.718 67.9635L134.277 65.3261L135.577 68.1843C140.356 78.6933 141.144 90.5369 137.257 93.4678C136.126 94.3208 135.393 94.4766 134.27 94.102C131.198 93.0777 125.61 82.7126 123.946 74.9522C123.581 73.2505 123.199 71.7481 123.098 71.6133C122.996 71.4785 122.498 73.725 121.99 76.6052C120.131 87.1546 117.19 94.5639 113.317 98.4561C109.574 102.219 106.542 99.3569 106.365 91.8936C106.272 87.9527 107.645 78.6446 109.076 73.5159C109.426 72.2638 109.479 71.5606 109.194 71.9535C108.909 72.3461 107.432 74.3967 105.91 76.5099C103.512 79.8402 102.277 81.0436 96.6411 85.5426C89.1401 91.5301 87.5966 92.2628 86.249 90.4759C85.737 89.7969 85.5036 88.6532 85.6878 87.7266C86.2407 84.9455 90.1254 78.5527 94.1593 73.7857C96.3091 71.2452 98.5428 68.5931 99.1231 67.8922C100.845 65.8127 85.9051 76.3067 78.2559 82.5499C52.0313 103.954 15.637 143.725 -0.587852 168.708C-2.50961 171.667 -2.91929 172.689 -2.49603 173.468C-2.14692 174.11 -2.25901 174.688 -2.81382 175.106C-3.52784 175.645 -3.87565 175.48 -4.90086 174.121C-6.05364 172.592 -6.05226 172.341 -4.87989 170.139C-4.19168 168.846 -1.42403 164.696 1.27048 160.917C13.7962 143.351 30.1339 124.518 49.6227 105.178C65.3178 89.6029 68.3324 86.9609 83.4508 75.5313L97.6197 64.8179L93.4747 66.2549C83.7004 69.6435 74.1673 69.9991 71.9492 67.0578C70.4621 65.0859 70.8129 64.2407 74.1681 61.7104C78.8517 58.1784 91.203 54.4183 100.237 53.7743L103.107 53.5698L98.7538 52.8833C88.7607 51.3074 79.693 47.4585 74.8803 42.7498C72.6448 40.5626 72.1323 39.8196 71.9965 38.5691C71.7334 36.1484 72.3208 35.2468 74.7788 34.2983C78.9839 32.6756 89.6132 35.0123 100.579 39.9699L105.168 42.0443L99.1239 34.0301C92.2737 24.9464 90.2095 20.9404 89.6537 15.667C89.2831 12.1516 89.783 10.7468 91.8614 9.46283C93.5367 8.42815 96.2577 9.05891 99.1358 11.1496C101.295 12.7183 108.223 21.9488 110.34 26.0777C111.178 27.7123 111.981 29.0633 112.125 29.0797C112.268 29.0961 112.213 27.5715 112.002 25.6912C111.262 19.0965 111.321 12.8578 112.174 7.61846C112.96 2.78852 113.185 2.21771 114.772 1.02069C117.157 -0.777903 118.602 -0.289272 121.239 3.20743C124.813 7.94574 125.929 13.4284 125.182 22.5765L124.878 26.3009L125.871 23.6071C128.701 15.9271 133.477 8.30479 138.042 4.18311C141.432 1.12299 142.911 0.755979 144.321 2.62592C146.595 5.64056 145.544 12.4254 141.542 20.5696L139.626 24.4697L144.578 20.7543C148.847 17.5538 149.888 16.9653 152.132 16.5137C154.281 16.0814 154.927 16.1965 155.833 17.1729C156.717 18.126 156.808 18.7129 156.303 20.1937C155.517 22.4955 151.536 27.3737 147.356 31.1556L144.16 34.0469L149.72 31.6179C158.949 27.5866 165.273 26.113 168.593 27.2203C170.512 27.8602 170.96 28.8954 170.265 31.0819C169.764 32.6555 169.16 33.2528 164.874 36.4093C161.671 38.7684 158.765 40.5138 156.238 41.5973L152.429 43.2301L157.279 43.7768C167.832 44.9663 170.992 48.9825 164.019 52.3427C158.475 55.0139 152.641 55.5617 140.251 54.5743L132.995 53.996L137.014 55.9409C139.224 57.0106 143.264 59.6102 145.99 61.7177C150.086 64.8833 151.599 66.3941 154.69 70.4055C157.92 74.5985 158.477 75.5759 158.768 77.5662C159.068 79.6182 158.922 80.0305 157.439 81.3227C155.898 82.6655 155.602 82.717 153.475 82.0183ZM155.636 77.2091C154.034 72.0033 143.951 62.6795 135.541 58.6271L131.39 56.6271L133.821 59.9116C137.47 64.8401 144.093 71.9708 147.889 75.0575C151.337 77.8614 155.158 79.9688 155.848 79.4479C156.061 79.2878 155.965 78.2801 155.636 77.2091ZM136.697 86.6934C137.147 79.1726 132.811 66.6954 127.118 59.127C126.225 57.9427 125.645 56.6844 125.776 56.2285C126.158 54.9071 127.969 53.0277 128.841 53.0474C129.436 53.0608 129.428 52.7739 128.811 51.9783C128.163 51.1405 128.174 50.6863 128.865 50.0027C129.718 49.1583 129.698 49.1036 128.454 48.8971C126.987 48.6535 126.359 47.3054 127.361 46.55C128.166 45.9425 128.168 45.945 126.214 45.0178C125.01 44.448 124.449 44.4775 123.914 45.1393C123.395 45.7804 122.963 45.8274 122.302 45.3177C121.601 44.7779 121.346 44.821 121.166 45.5095C121.038 45.9979 120.151 47.0781 119.194 47.91C118.237 48.7417 117.227 49.6213 116.948 49.8645C116.662 50.1133 116.848 50.8458 117.374 51.5427C118.479 53.0084 117.816 54.5033 116.253 54.0711C115.685 53.9142 114.769 54.1449 114.217 54.5837L113.213 55.3829L114.468 55.021C116.061 54.5614 117.264 55.2758 117.36 56.7381C117.414 57.5591 117.568 57.7758 117.913 57.5157C118.176 57.3172 119.145 57.2269 120.066 57.3152C120.987 57.4035 122.19 57.1444 122.739 56.7394C124.467 55.4646 125.122 57.0081 125.416 63.0456C125.572 66.242 126.051 70.5486 126.482 72.616C127.997 79.8939 131.883 88.7415 134.453 90.7644C135.354 91.4739 135.603 91.4439 136.027 90.5745C136.303 90.0066 136.603 88.26 136.697 86.6934ZM114.748 90.9132C116.858 86.6626 118.752 79.6008 119.599 72.8254C120.215 67.8947 120.428 60.9434 119.98 60.3502C119.254 59.3867 114.607 67.2316 112.376 73.1876C109.707 80.3132 108.401 96.369 110.43 97.1071C111.106 97.353 112.651 95.1366 114.748 90.9132ZM161.987 47.742C158.673 46.4455 152.78 46.0995 146.978 46.8605C142.059 47.5056 133.875 49.7183 133.273 50.5657C132.764 51.2845 148.283 52.404 153.389 52.017C157.208 51.7275 164.24 49.7808 164.4 48.9686C164.429 48.8241 163.343 48.2722 161.987 47.742ZM166.485 31.7108C167.725 30.1338 167.729 30.0233 166.553 29.828C164.749 29.5284 158.388 31.1574 153.005 33.2975C147.38 35.5335 136.649 40.9625 132.182 43.8323L128.926 45.924L131.012 46.0165C136.255 46.2491 151.51 41.2293 160.894 36.1841C163.232 34.927 165.187 33.3633 166.485 31.7108ZM100.606 78.51C103.499 75.2899 108.274 68.1015 111.216 62.5404L112.878 59.3977L108.984 62.7C104.12 66.8256 97.5473 73.6542 94.4775 77.7721C91.6561 81.5566 88.4911 87.211 88.8947 87.7462C89.3665 88.3719 97.5325 81.932 100.606 78.51ZM111.15 56.2155C110.835 56.1007 110.396 56.1442 110.175 56.3113C109.953 56.4785 109.91 56.7988 110.079 57.0232C110.248 57.2477 110.687 57.2044 111.055 56.9274C111.422 56.6504 111.465 56.3301 111.15 56.2155ZM146.307 28.4021C149.705 25.1603 152.727 21.3863 153.169 19.8314C153.937 17.1268 145.078 22.9119 139.554 28.7223C133.625 34.9584 128.335 41.442 129.254 41.3466C130.446 41.2227 142.294 32.2298 146.307 28.4021ZM108.183 56.2912C107.891 55.9037 96.4664 57.1178 92.0071 58.0104C83.6461 59.6839 73.0842 64.1073 74.132 65.4966C74.2794 65.6921 75.8176 65.9577 77.5499 66.0864C83.2689 66.5112 93.2729 63.876 102.541 59.5034C106.766 57.5104 108.401 56.5796 108.183 56.2912ZM110.367 49.0263C104.421 44.5787 94.8829 40.256 85.6111 37.8067C81.1413 36.6258 76.4027 36.3552 75.2618 37.2156C72.8933 39.0018 80.9548 44.7159 90.0577 47.705C94.6534 49.2136 112.892 52.1056 113.018 51.3455C113.045 51.181 111.852 50.1371 110.367 49.0263ZM130.131 33.2493C139.33 20.3541 143.747 10.097 142.299 4.99482C142.045 4.10069 141.862 4.1812 140.011 5.9992C133.99 11.9117 129.027 21.4975 126.188 32.6995C125.142 36.8287 124.797 40.1665 125.468 39.66C125.575 39.5792 127.674 36.6944 130.131 33.2493ZM113.599 42.0529C111.148 32.881 104.473 20.2062 99.7228 15.7061C96.7078 12.8494 93.4405 11.2396 92.7677 12.2791C92.129 13.2659 92.8664 17.6747 94.2781 21.3106C95.8366 25.3244 102.376 34.794 106.786 39.4238C110.29 43.1021 114.331 46.7791 114.626 46.5571C114.707 46.4958 114.245 44.469 113.599 42.0529ZM120.894 32.3933C123.368 17.7915 122.751 9.23509 118.897 4.73596C117.865 3.53128 116.957 2.88577 116.515 3.04305C115.398 3.44074 114.257 12.6197 114.516 19.1297C114.735 24.6434 116.932 39.5168 117.895 42.0122C118.133 42.6281 118.518 42.982 118.755 42.8031C118.991 42.625 119.954 37.9405 120.894 32.3933Z" fill="white" fill-opacity="0.2"/>
</svg>
