<svg width="161" height="100" viewBox="0 0 161 100" fill="none" xmlns="http://www.w3.org/2000/svg">
<path d="M152.593 72.1843C150.677 73.9087 146.83 76.3693 144.499 77.3612C141.231 78.7524 139.971 78.2001 137.443 74.269L135.655 71.4883L130.421 74.2128C114.178 82.6676 103.177 89.4794 87.9826 100.491C53.917 125.179 33.0276 148.038 18.393 176.643C15.3236 182.643 13.3542 186.006 11.8846 187.759C9.22201 190.934 7.71502 193.523 4.531 200.393C2.25248 205.31 1.89359 205.868 1.07263 205.766C0.568781 205.704 0.0879908 205.372 0.00403785 205.027C-0.0799334 204.683 1.15324 201.534 2.74428 198.03C4.33531 194.526 6.80622 188.58 8.23516 184.817C9.66413 181.054 11.9635 175.014 13.345 171.393C14.7264 167.773 18.1964 159.62 21.0561 153.277C35.9995 120.127 40.141 106.879 42.5073 84.6577C43.4927 75.4035 43.5387 68.1861 42.659 60.8165C42.0329 55.5704 41.8406 54.9961 40.4527 54.2273L38.9323 53.385L39.2892 55.4699C39.6769 57.735 38.389 60.8367 36.8618 61.316C35.5708 61.7212 32.2786 59.656 30.9618 57.6151C29.6475 55.5781 28.3067 50.2208 28.2269 46.6881C28.192 45.1423 27.8458 44.1768 27.1974 43.8176C25.6898 42.9825 24.2618 39.4483 24.4586 37.0396C24.585 35.4938 25.1004 34.1674 26.2492 32.4315C28.4901 29.0458 30.8317 28.3394 35.3511 29.6857C37.3513 30.2816 39.5956 30.5248 40.9517 30.2926C43.7253 29.8177 48.2774 30.3465 50.0984 31.3552C52.1864 32.5118 52.9645 34.5661 51.9847 36.3349C51.5292 37.1571 50.808 37.9392 50.382 38.0729C49.8204 38.2492 50.0905 38.7039 51.3639 39.7263C54.8402 42.5176 54.2423 45.6765 50.0713 46.5557L47.7037 47.0547L48.9291 48.8811C50.0125 50.4961 50.0484 50.9351 49.2388 52.6733C48.5051 54.249 47.9815 54.7347 46.6015 55.1209L44.8799 55.6027L45.5291 60.0278C46.4403 66.2377 46.5286 71.5628 45.8601 79.9869C43.9861 103.602 39.1712 119.993 25.0347 150.88C20.7198 160.308 15.947 171.883 13.2992 179.342C11.8612 183.392 11.8977 183.338 16.2911 174.865C25.8765 156.38 39.3615 138.445 54.0581 124.635L58.1646 120.776L64.6335 109.332C73.2294 94.1246 76.2672 86.6982 78.8501 74.5774C80.7605 65.6128 82.1009 55.666 83.0483 43.423C83.5135 37.4116 84.0891 32.1411 84.3275 31.7108C84.6316 31.1618 84.3773 30.716 83.4751 30.2162C82.7679 29.8244 82.1118 29.032 82.017 28.4552C81.8661 27.5368 81.6737 27.5458 80.4699 28.5276C79.7138 29.1443 78.7002 29.6001 78.2175 29.5406C76.7961 29.3653 75.7228 27.3295 75.8976 25.1407C76.0312 23.4681 75.7956 22.9246 74.5791 22.0992C72.5078 20.6938 72.3346 18.3063 74.0395 14.6577C75.679 11.1489 78.7812 8.47359 81.3182 8.38059C82.953 8.32065 83.0356 8.23368 84.7407 4.77324C86.4689 1.26581 86.515 1.21885 88.9681 0.448921C91.1616 -0.239477 91.7142 -0.182125 93.7493 0.945209C97.1297 2.81775 99.9667 7.69513 98.8491 9.71262C98.5185 10.3095 98.5175 10.947 98.8469 11.1295C100.417 11.9993 103.376 17.6301 104.137 21.1957C105.043 25.4447 104.787 27.2554 103.096 28.5562C102.159 29.2772 101.65 29.2436 100.045 28.3545C98.9862 27.7678 97.5959 26.4767 96.956 25.4854L95.7925 23.6831L95.4378 25.1044C95.2427 25.8862 94.381 27.7929 93.523 29.3418C91.9676 32.1496 91.9592 32.1563 90.4945 31.5302C89.4535 31.0854 88.8173 30.3152 88.3099 28.8854L87.5939 26.8683L86.9511 28.0287C86.527 28.7943 86.5661 29.441 87.066 29.9296C87.4827 30.3369 87.625 31.0288 87.3822 31.4671C87.1394 31.9055 86.4548 37.8315 85.8608 44.6361C83.2475 74.5772 80.7269 84.3548 70.7105 103.404L64.6292 114.97L69.6857 110.81C86.99 96.5757 106.013 83.8173 124.601 73.9803C133.554 69.2421 134.405 68.6756 134.532 67.3673C134.608 66.5803 134.428 65.8021 134.132 65.6381C133.836 65.4741 133.295 64.5792 132.93 63.6493C132.481 62.5082 131.599 61.5708 130.215 60.7654C128.333 59.6699 128.21 59.4628 128.721 58.2405C129.028 57.5081 130.174 56.2797 131.267 55.5106L133.256 54.1122L131.996 53.4141C130.378 52.5176 130.092 51.3488 131.062 49.5968C132.807 46.448 141.533 45.8161 146.358 48.4892C148.247 49.5353 148.879 49.6289 150.164 49.0517C152.318 48.0844 154.714 48.211 156.871 49.4058C158.955 50.5601 159.832 51.7321 160.641 54.4436C161.126 56.073 161.004 56.6802 159.737 58.9283C158.931 60.3587 157.63 62.3076 156.847 63.2598C155.832 64.4935 155.458 65.3336 155.545 66.1829C155.665 67.3522 153.84 71.0624 152.593 72.1843ZM152.567 66.6091C152.629 64.8259 152.142 64.911 149.776 67.0968C148.578 68.2041 145.983 70.1122 144.011 71.3371C141.161 73.1066 140.504 73.7168 140.81 74.3081C141.022 74.7174 141.342 75.1379 141.522 75.2426C142.129 75.5973 147.428 72.7179 149.62 70.8437C152.169 68.6635 152.513 68.1691 152.567 66.6091ZM158.089 55.8716C157.984 54.5354 156.687 52.3704 155.645 51.7935C154.244 51.0171 151.037 51.4884 150.444 52.5577C150.127 53.1301 150.371 53.7488 151.195 54.4613C151.959 55.1218 152.308 55.918 152.129 56.5885C151.942 57.2866 152.216 57.8678 152.916 58.2555C153.629 58.6502 153.943 59.341 153.85 60.306C153.772 61.1065 153.864 61.8475 154.054 61.9527C154.697 62.3092 158.182 57.0576 158.089 55.8716ZM150.661 60.073C150.292 59.8688 149.883 59.895 149.753 60.1311C149.462 60.6556 140.727 65.4249 138.795 66.1138C138.03 66.3866 137.311 66.778 137.198 66.9836C137.084 67.189 137.628 67.0818 138.407 66.7448C140.95 65.6448 141.583 68.0747 139.176 69.6993C138.583 70.1 138.376 70.4427 138.641 70.5892C139.206 70.902 145.011 67.4033 147.58 65.2018C150.126 63.0202 151.588 60.5866 150.661 60.073ZM147.866 55.6997C147.012 55.4834 144.62 56.304 140.849 58.1066L135.128 60.8416L135.675 62.2944C136.367 64.1332 136.855 64.0456 142.322 61.1024C146.336 58.9409 149.368 56.8298 149.229 56.2927C149.191 56.1468 148.578 55.8802 147.866 55.6997ZM141.18 53.9593C138.82 54.3633 137.419 54.9865 133.868 57.2109L131.789 58.5129L133.598 57.9817C135.161 57.5227 143.064 54.0517 143.357 53.6955C143.415 53.6263 142.434 53.7445 141.18 53.9593ZM140.737 49.8562C137.306 49.7009 133.666 50.3422 133.852 51.0693C133.92 51.3367 134.623 51.5437 135.413 51.5291C138.101 51.4796 143.933 50.6411 143.849 50.3165C143.802 50.1386 142.402 49.9315 140.737 49.8562ZM101.344 22.1164C100.749 19.3872 97.9668 13.8587 97.2938 14.0699C96.7233 14.249 98.0756 21.7369 98.9119 23.0299C101.46 26.9698 102.329 26.6434 101.344 22.1164ZM92.5068 24.7498C93.3085 21.3721 93.7546 13.8289 93.1717 13.506C92.5537 13.1637 92.1467 14.2488 91.3369 18.3985C90.4032 23.1833 90.2838 25.373 90.857 27.1947C91.3906 28.8906 91.5962 28.5859 92.5068 24.7498ZM95.2679 6.53241C94.9171 5.70251 93.885 4.46185 92.9742 3.77544C91.6071 2.74508 91.0467 2.62327 89.7621 3.07678C88.0778 3.67136 86.6709 5.71647 86.2847 8.13177C86.0867 9.36995 86.2641 9.64646 87.4599 9.96339C89.7805 10.5784 92.1988 10.507 93.9965 9.77022C95.9745 8.95961 96.1282 8.56804 95.2679 6.53241ZM87.673 19.1854C87.9627 17.4144 88.5031 15.3715 88.874 14.6455C89.3293 13.7542 89.312 13.2963 88.8204 13.2357C88.4201 13.1863 87.8767 13.0265 87.6129 12.8804C87.3491 12.7343 87.2468 13.1607 87.3857 13.8279C87.5314 14.5288 86.9005 16.9229 85.8915 19.4973C84.7948 22.2956 84.236 24.4962 84.3894 25.4123C84.6316 26.8583 84.6447 26.8516 85.8901 24.6382C86.5815 23.4104 87.3834 20.9563 87.673 19.1854ZM83.4212 16.8452C84.8693 12.6927 84.9646 12.0264 84.173 11.5879C83.3632 11.1394 83.3083 11.1908 83.6586 12.0697C83.9622 12.8315 83.4726 14.188 81.4909 18.0761C79.8947 21.2078 78.9242 23.672 78.9129 24.6219L78.8947 26.1453L79.985 24.9091C80.5846 24.2292 81.23 23.2065 81.4191 22.6366C81.6081 22.0666 82.5092 19.4605 83.4212 16.8452ZM81.6279 11.3762C81.0113 11.3801 79.6105 12.1635 78.5147 13.1172C76.7268 14.6734 76.4781 15.0859 76.089 17.1408C75.8436 18.4366 75.9508 19.6811 76.3358 20.008C76.9339 20.5158 77.3424 20.0383 79.7148 16.0594C81.1991 13.5701 82.4889 11.4964 82.5811 11.4512C82.6734 11.4061 82.2444 11.3723 81.6279 11.3762ZM46.2272 50.1544C44.4224 47.8669 42.0923 46.2153 37.0024 43.6157C32.9594 41.551 31.8041 41.1407 31.5126 41.6669C31.2101 42.213 31.3607 42.3172 32.3461 42.2434C33.3775 42.1662 33.8652 42.674 35.7717 45.8102C37.7204 49.0157 38.3604 49.671 40.9575 51.1205C43.2541 52.4005 44.2437 52.6902 45.3572 52.4018C47.2351 51.9152 47.3606 51.5909 46.2272 50.1544ZM47.6877 41.1928C45.6025 40.235 43.436 39.7002 41.2468 39.603C38.6652 39.4884 37.8772 39.2616 37.6229 38.5604C37.1676 37.3051 35.1973 36.6879 34.4731 37.5737C33.9305 38.2372 34.3218 38.5633 38.314 40.7748C42.8055 43.2628 45.5696 44.0529 48.7134 43.7472C51.3819 43.4877 51.0875 42.7544 47.6877 41.1928ZM44.8162 33.2172C42.8332 33.1636 40.1438 33.3857 38.8397 33.7107L36.4684 34.3017L38.3207 34.9539C40.7737 35.8175 44.9045 36.1323 47.6392 35.664C49.7862 35.2964 49.8284 35.2579 49.135 34.3002C48.5788 33.5319 47.6268 33.2931 44.8162 33.2172ZM36.3603 56.0272C36.0203 53.5593 33.9281 49.3104 32.3419 47.8664C31.0034 46.648 31.0024 46.6482 31.2418 48.1055C32.1461 53.6104 33.6479 57.2046 35.4638 58.2106C36.3961 58.727 36.6478 58.114 36.3603 56.0272ZM31.4063 44.2306C31.0131 43.234 30.9914 43.2509 31.1167 44.4551C31.1912 45.1711 31.2604 45.8764 31.2703 46.0225C31.2804 46.1686 31.4111 46.0668 31.56 45.798C31.7093 45.5285 31.6401 44.8231 31.4063 44.2306ZM33.8192 32.1511C32.6512 31.5041 28.9245 32.6349 28.2577 33.8387C27.3341 35.506 27.1077 38.1575 27.7746 39.4964C28.138 40.226 28.543 40.8825 28.6745 40.9554C28.806 41.0282 29.5516 39.9922 30.3315 38.653C31.1113 37.3139 32.2538 35.6697 32.8704 34.9991C34.685 33.0259 34.7961 32.6923 33.8192 32.1511Z" fill="white" fill-opacity="0.2"/>
</svg>
