<svg width="202" height="118" viewBox="0 0 202 118" fill="none" xmlns="http://www.w3.org/2000/svg">
<path d="M109.965 109.338C110.011 108.843 110.39 108.338 110.807 108.217C111.891 107.901 112.94 109.244 112.266 110.084C111.514 111.019 109.857 110.482 109.965 109.338ZM92.4421 91.4665C91.9826 90.0212 91.7738 87.8778 91.9781 86.7033C92.4337 84.0844 95.2571 78.507 96.8064 77.1652C97.8646 76.2488 97.8481 75.8803 96.5784 72.0568C92.2998 59.174 87.0808 48.2651 80.5501 38.5538L77.0789 33.392L67.9576 28.6765C62.057 25.626 58.1781 23.8645 56.9721 23.6877C55.7762 23.5124 55.0243 23.1725 54.8747 22.7396C54.3976 21.3594 34.3722 13.0809 20.5178 8.53644C12.3305 5.85089 9.04196 4.96619 1.86499 3.51824C-2.9857 2.53958 -4.38303 1.79014 -3.72605 0.51933C-3.26998 -0.362861 -0.790255 -0.143708 5.68276 1.35115C17.6421 4.11289 35.065 10.3876 53.3913 18.5329C57.1013 20.182 58.9895 20.7719 60.1515 20.6451C61.0382 20.5484 67.1376 20.3267 73.7056 20.1526C87.2406 19.7937 97.2493 18.9442 100.754 17.857L103.14 17.1169L101.632 14.2463C99.128 9.4803 99.9264 5.56192 103.459 5.27659C105.515 5.11058 107.562 6.70631 108.48 9.19053L109.176 11.0724L110.817 10.3725C114.713 8.71115 121.575 10.7066 122.039 13.6357C122.469 16.3441 119.959 19.3677 116.621 20.1634L115.144 20.5155L116.807 22.2809C119.744 25.399 119.026 28.3291 115.327 28.3233C113.2 28.3199 107.789 25.0035 105.578 22.3484L103.77 20.1768L100.016 21.042C95.4497 22.0943 85.3863 22.8789 72.9052 23.1555L63.5841 23.3621L75.0016 29.6157C81.281 33.0555 89.7543 38.0064 93.8308 40.6184C98.3886 43.5387 101.539 45.3174 102.013 45.2373C102.437 45.1658 104.149 45.358 105.818 45.6644C110.997 46.6156 120.328 46.5886 131.116 45.5916C140.078 44.7635 141.495 44.4868 141.655 43.5336C141.756 42.9279 142.419 41.0498 143.127 39.36C144.814 35.3329 146.999 33.6864 149.376 34.6503C151.219 35.3976 151.64 36.9859 150.772 39.9195L150.241 41.7149L152.404 41.7696C155.319 41.8433 156.676 42.6397 157.386 44.693C158.194 47.0291 157.422 48.2279 154.575 49.0579C152.383 49.6969 152.243 49.8227 152.956 50.5142C154.177 51.6996 155.638 55.6155 155.186 56.4902C154.574 57.6736 152.447 57.979 150.789 57.1216C148.534 55.956 144.499 51.855 143.343 49.554L142.306 47.4901L139.29 47.7902C124.572 49.2544 119.443 49.552 113.301 49.2985C107.786 49.0708 106.522 49.1722 107.63 49.7537C111.444 51.7555 133.533 67.9882 143.35 76.0029C147.899 79.7168 147.928 79.733 151.361 80.4523C160.037 82.2704 173.035 83.4064 177.446 82.732C178.571 82.5601 178.603 82.3863 178.033 79.5531C177.528 77.0457 177.62 76.1874 178.596 74.2995C180.474 70.6654 183.283 69.3202 186.029 70.7397C187.287 71.3902 188.187 73.7382 187.876 75.561C187.681 76.7042 187.745 76.716 190.229 75.9921C194.93 74.6212 200.141 75.7601 200.885 78.3214C201.408 80.1206 200.609 81.2449 197.89 82.5357L195.484 83.678L197.298 84.6159C200.259 86.1468 200.214 88.544 197.199 89.8297C194.342 91.0482 189.668 90.6267 185.555 88.7799C183.431 87.8265 181.523 86.6869 181.159 86.165C180.644 85.4191 179.922 85.3161 177.488 85.6412C173.499 86.1741 164.899 85.6982 158.144 84.5708L152.718 83.6652L160.028 90.162C164.049 93.7352 169.634 98.8499 172.44 101.528L177.541 106.397L181.467 106.22C183.627 106.122 186.372 106.267 187.568 106.542C192.18 107.604 195.784 111.341 194.792 114.033C194.192 115.66 192.927 116.187 190.121 115.98L187.942 115.819L189.621 118.798C192.24 123.444 191.816 126.145 188.494 125.982C187.214 125.919 186.307 125.504 184.688 124.239C182.799 122.763 182.558 122.68 182.524 123.489C182.504 123.99 182.189 125.209 181.824 126.198C181.245 127.766 180.965 127.984 179.643 127.894C177.349 127.738 175.004 125.244 173.525 121.385C172.173 117.859 172.239 114.332 173.736 110.04L174.603 107.554L168.453 101.72C165.07 98.511 158.939 92.9485 154.828 89.3587C148.773 84.0716 146.884 82.6594 144.88 81.9247C142.723 81.1334 142.434 80.8918 142.616 80.0337C142.792 79.2031 141.569 78.0752 134.777 72.8017C130.351 69.3652 125.929 65.9983 124.951 65.3197C123.404 64.2464 123.251 64.2222 123.774 65.1335C127.788 72.1221 131.817 80.6817 134.356 87.611L135.772 91.4749L138.521 91.8222C142.484 92.3228 147.823 95.1497 148.965 97.3507C150.857 101.001 147.514 103.902 143.163 102.386L140.936 101.61L141.784 104.684C142.488 107.235 142.466 108.021 141.656 109.298C140.698 110.81 140.638 110.818 138.303 109.785C136.742 109.095 135.657 108.282 135.146 107.421C134.375 106.123 134.358 106.126 133.576 107.637C132.702 109.327 130.823 110.054 129.325 109.279C128.114 108.653 126.972 105.041 126.937 101.719C126.899 98.217 129.279 93.2815 131.353 92.5593C132.747 92.0741 132.757 92.0482 132.23 90.2783C131.07 86.3809 125.484 74.1983 122.602 69.2783C117.359 60.3305 115.2 58.0368 106.421 52.09C98.5862 46.7823 83.9919 37.4456 83.675 37.538C83.5764 37.5666 84.8684 39.7639 86.5454 42.4208C90.617 48.8721 93.4795 55.0867 97.7723 66.7955C101.338 76.5203 101.352 76.547 103.072 76.7222C106.267 77.0477 111.184 80.4527 114.551 84.6717C117.772 88.7087 118.542 90.4077 117.652 91.516C116.855 92.5074 114.322 91.8147 111.122 89.7311L108.411 87.9652L109.211 89.6552C110.711 92.8262 110.165 96.2285 108.091 96.6307C106.631 96.9137 102.142 94.4663 101.194 92.8711C100.458 91.6307 100.434 91.6362 99.8596 93.1859C98.9203 95.7197 97.5365 96.2956 95.241 95.1089C93.5858 94.2532 93.1464 93.6818 92.4421 91.4665ZM97.4109 91.7745C97.5901 90.9974 97.7871 88.6523 97.8483 86.5629C97.9104 84.4442 98.2785 82.4184 98.6804 81.9827C99.6007 80.9853 98.9869 79.3422 98.0086 80.184C96.9367 81.1062 95.0742 85.0262 94.9108 86.7044C94.5239 90.6734 96.6634 95.0124 97.4109 91.7745ZM132.282 101.277C132.472 99.1851 132.916 96.9115 133.269 96.2239C134.104 94.5923 133.491 94.3201 132.021 95.6695C130.232 97.3116 129.46 101.975 130.402 105.447C130.732 106.664 130.756 106.676 131.338 105.887C131.667 105.443 132.091 103.368 132.282 101.277ZM106.897 92.3974C106.593 90.1037 103.316 84.5816 102.415 84.8443C101.846 85.0102 101.945 86.0337 102.779 88.598C103.704 91.4416 104.23 92.2811 105.501 92.9381C107.017 93.7216 107.07 93.7011 106.897 92.3974ZM139.327 107.028C139.604 106.492 136.913 99.8606 136.471 99.9895C136.285 100.044 136.23 101.061 136.347 102.251C136.605 104.851 138.709 108.225 139.327 107.028ZM179.392 124.167C179.78 123.415 178.474 116.307 177.427 113.477C176.66 111.403 176.452 111.163 176.069 111.912C175.337 113.345 175.463 118.346 176.282 120.396C177.524 123.505 178.882 125.152 179.392 124.167ZM113.142 87.4166C112.789 86.3961 107.541 81.3431 106.03 80.5696C103.625 79.3431 101.71 79.4482 104.022 80.6839C104.932 81.1717 106.872 82.6766 108.332 84.0301C110.826 86.3427 113.396 88.1524 113.142 87.4166ZM145.631 99.9439C148.183 99.449 145.397 96.5215 141.264 95.3547C137.734 94.3582 136.92 94.4604 137.262 95.8573C137.479 96.7472 138.206 97.2685 141.027 98.5594C143.021 99.4719 144.999 100.066 145.631 99.9439ZM187.94 121.653C187.13 119.822 183.387 115.095 181.545 113.577L180.274 112.53L180.952 114.722C181.807 117.484 184.774 121.262 186.962 122.376L188.637 123.225L187.94 121.653ZM189.41 112.962C190.667 113.105 191.78 113.056 191.885 112.852C192.254 112.139 189.516 109.908 187.843 109.559C185.311 109.03 180.62 108.94 180.374 109.416C180.049 110.044 186.7 112.653 189.41 112.962ZM192.184 87.4963C197.186 87.6346 197.178 86.8001 192.164 85.46C189.23 84.6757 184.29 84.316 184.005 84.866C183.611 85.6284 189.159 87.4128 192.184 87.4963ZM183.503 79.9291C185.045 76.8538 185.322 74.1128 184.153 73.5084C183.009 72.9167 181.237 74.3777 180.818 76.2592C180.496 77.7029 181.286 81.5142 181.982 81.8739C182.221 81.9974 182.905 81.1221 183.503 79.9291ZM193.146 80.9135C195.833 80.4311 198.068 79.4392 197.855 78.8232C197.801 78.6671 196.371 78.4927 194.676 78.4347C192.479 78.3597 190.969 78.7061 189.415 79.6414C188.217 80.3631 187.154 81.1122 187.054 81.3062C186.826 81.7469 189.443 81.5783 193.146 80.9135ZM151.51 53.7397C150.88 52.4975 147.121 48.3259 146.206 47.8528C145.089 47.2753 147.158 50.2631 149.368 52.4174C152.124 55.1047 152.238 55.1754 151.51 53.7397ZM146.791 42.3332C147.715 40.5784 148.34 38.0303 147.905 37.8059C147.178 37.4297 145.544 39.9578 145.095 42.1541C144.762 43.7862 144.843 44.2562 145.406 43.9439C145.825 43.7113 146.448 42.9863 146.791 42.3332ZM152.188 46.4231C153.166 46.406 154.187 46.1844 154.456 45.9308C155.722 44.7347 150.609 44.1267 148.874 45.2672C147.947 45.8767 147.97 45.9617 149.131 46.1962C149.833 46.3382 151.209 46.4403 152.188 46.4231ZM114.726 25.33C115.652 25.4403 115.653 25.3018 114.731 24.1514C113.651 22.8024 107.6 18.8497 107.351 19.3305C107.144 19.7318 108.606 21.6534 110.048 22.8761C111.691 24.2675 113.42 25.1721 114.726 25.33ZM105.737 12.4355C105.891 11.1838 105.837 9.86594 105.617 9.50693C104.958 8.43164 103.58 7.93212 103.215 8.63684C102.864 9.31742 104.397 14.1631 105.075 14.5137C105.286 14.6225 105.583 13.6871 105.737 12.4355ZM113.842 17.5916C117.873 17.199 120.648 14.5137 118.284 13.292C115.484 11.844 110.625 13.0132 109.366 15.438C108.627 16.8634 110.763 17.8911 113.842 17.5916Z" fill="white" fill-opacity="0.2"/>
</svg>
