<svg width="25" height="28" viewBox="0 0 25 28" fill="none" xmlns="http://www.w3.org/2000/svg">
<path d="M23.5573 10.1784C22.6351 7.99992 21.1012 6.15375 19.1677 4.84711C17.2367 3.54055 14.8913 2.77476 12.3886 2.77539H8.93376L9.73024 0.882108C9.83454 0.633983 9.77173 0.348202 9.57446 0.16664C9.37595 -0.014298 9.08579 -0.0519544 8.84829 0.0736706L0.337978 4.57195C0.129384 4.68125 -0.00124111 4.89797 8.89198e-06 5.13289C8.89198e-06 5.36844 0.129384 5.58578 0.337978 5.69453L8.84829 10.1934C9.08446 10.319 9.3747 10.2813 9.57321 10.1011C9.77173 9.91953 9.83446 9.63305 9.73024 9.38562L8.93251 7.48984H12.3886C13.4188 7.49047 14.3862 7.69719 15.2719 8.07094C16.5986 8.63125 17.7342 9.57406 18.5333 10.7576C19.3324 11.9429 19.7959 13.3551 19.7971 14.8977C19.7959 15.9266 19.5899 16.8953 19.2155 17.7798C18.6552 19.1065 17.713 20.2421 16.5295 21.0412C15.3435 21.8402 13.9314 22.3037 12.3886 22.305V27.0194C14.0558 27.0194 15.6563 26.6802 17.1086 26.0658C19.2859 25.1437 21.1327 23.6097 22.4391 21.6769C23.7458 19.7447 24.5121 17.3997 24.5109 14.8977C24.5108 13.2306 24.1716 11.6301 23.5573 10.1784Z" fill="#D2A3CB"/>
</svg>
