<svg width="25" height="28" viewBox="0 0 25 28" fill="none" xmlns="http://www.w3.org/2000/svg">
<path d="M24.1729 21.3248L15.6626 16.8259C15.4264 16.7003 15.1362 16.738 14.9377 16.9183C14.7392 17.0998 14.6764 17.3869 14.7807 17.6338L15.5784 19.5295H12.1223C11.0921 19.5288 10.1248 19.3222 9.23906 18.9484C7.91235 18.3881 6.77672 17.4453 5.97766 16.2618C5.1786 15.0771 4.71508 13.6644 4.71375 12.1223C4.715 11.0927 4.9211 10.1241 5.29539 9.23969C5.8557 7.91297 6.79805 6.77727 7.98141 5.9782C9.16735 5.17922 10.5795 4.7157 12.1223 4.71438V0C10.4552 0 8.85453 0.339219 7.40227 0.953516C5.225 1.8757 3.3782 3.40969 2.07172 5.34313C0.76508 7.27477 -0.00124847 9.61969 1.52684e-06 12.1223C1.52684e-06 13.7895 0.33922 15.3893 0.953517 16.841C1.8757 19.0195 3.40961 20.8657 5.34313 22.1723C7.27406 23.4788 9.61969 24.2446 12.1223 24.244H15.5771L14.7806 26.1373C14.6763 26.3854 14.7392 26.6718 14.9364 26.8527C15.1349 27.0336 15.4252 27.0713 15.6626 26.9457L24.1729 22.448C24.3814 22.3381 24.5121 22.1214 24.5109 21.8865C24.5109 21.6509 24.3814 21.4335 24.1729 21.3248Z" fill="#D2A3CB"/>
</svg>
