<svg width="39" height="40" viewBox="0 0 39 40" fill="none" xmlns="http://www.w3.org/2000/svg">
<path d="M35.4457 23.8512V17.228H34.7129C31.6105 17.228 28.8435 17.7649 26.5667 18.4555C26.2959 17.9069 25.9992 17.3476 25.7108 16.8212C25.835 16.7086 25.9581 16.5931 26.0766 16.4747C27.8212 14.7313 28.9034 12.3143 28.9022 9.65102C28.9034 6.98781 27.8212 4.57086 26.0766 2.82789C24.332 1.08102 21.9144 0 19.2517 0C16.5891 0 14.1715 1.08102 12.428 2.82797C10.6834 4.57086 9.60133 6.98781 9.60133 9.65109C9.60133 12.3144 10.6834 14.7313 12.428 16.4748C12.5465 16.5932 12.6684 16.7105 12.7938 16.8212C12.5043 17.3477 12.2077 17.907 11.9368 18.4556C9.65875 17.765 6.89406 17.228 3.79172 17.228H3.05891V23.8512C0.846562 23.8923 0 25.7166 0 27.963C0 30.2095 0.846562 32.0338 3.05891 32.0748V37.3468L3.76477 37.3714H3.78469C4.00625 37.3791 6.02172 37.4658 8.75234 37.8316C11.4819 38.1962 14.9277 38.8439 17.9902 39.956L18.1109 40H20.3937L20.5144 39.956C23.6741 38.8082 27.2455 38.1557 30.0136 37.7975C31.3995 37.6188 32.5836 37.5115 33.4207 37.4494C33.8393 37.4183 34.171 37.3989 34.3973 37.386C34.5099 37.3807 34.5955 37.376 34.6541 37.3743C34.6822 37.3725 34.7045 37.3713 34.7174 37.3713H34.7385L35.4455 37.3467V32.0748C37.6579 32.032 38.502 30.2094 38.502 27.963C38.5023 25.7166 37.6581 23.8934 35.4457 23.8512ZM3.13758 30.611C3.11297 30.611 3.08711 30.611 3.05898 30.6098C2.55602 30.6045 1.46562 30.4727 1.46562 27.963C1.46562 25.4528 2.55602 25.3209 3.05898 25.3162C3.08711 25.3145 3.11297 25.3145 3.13758 25.3145C3.64523 25.3145 4.12008 25.4598 4.52344 25.7084C5.28078 26.1739 5.78492 27.011 5.78492 27.963C5.78492 28.9151 5.28078 29.7516 4.52344 30.2171C4.12008 30.4662 3.64523 30.611 3.13758 30.611ZM17.2691 22.364V38.1657C14.2934 37.2184 11.17 36.6696 8.67742 36.3443C6.84133 36.1063 5.35117 35.9943 4.52344 35.9439V31.8367C6.11445 31.267 7.25047 29.7486 7.25047 27.963C7.25047 26.1773 6.11437 24.6584 4.52344 24.0892V18.7048C8.34086 18.8138 11.5933 19.7623 13.9288 20.7149C15.1705 21.2191 16.153 21.7238 16.8177 22.1002C16.989 22.1975 17.1402 22.2854 17.2691 22.3634V22.364ZM20.2577 38.4928C20.2191 38.5057 20.1791 38.5204 20.1405 38.5351H18.3642C18.3255 38.5204 18.2869 38.5057 18.2458 38.4928V22.8434H20.2577V38.4928ZM19.2517 17.8658C17.0194 17.8658 15.0016 16.9788 13.522 15.5367C13.4962 15.5109 13.4704 15.4863 13.4434 15.4605C12.6402 14.6562 12.0048 13.6895 11.5885 12.6121C13.0306 12.3401 14.3555 11.7961 15.5373 11.1254C17.5294 9.99633 19.1251 8.51141 20.2319 7.30906C20.7102 6.78961 21.096 6.32242 21.3821 5.95781C21.8429 6.55172 22.5381 7.42281 23.3307 8.32617C24.0424 9.13695 24.8315 9.97352 25.6147 10.6682C26.0051 11.0165 26.3955 11.3295 26.7824 11.588C26.9137 11.6741 27.0439 11.7527 27.1741 11.8271C26.793 13.2205 26.0555 14.4657 25.0613 15.4605C25.0343 15.4863 25.0086 15.5127 24.9816 15.5385C23.4995 16.9806 21.4818 17.8658 19.2517 17.8658ZM33.9812 35.9439C33.1535 35.9943 31.6633 36.1063 29.8249 36.3443C27.3347 36.6679 24.2112 37.2184 21.2355 38.1657C21.2355 38.1657 21.2355 38.1657 21.2345 38.1657V22.3622C21.2355 22.3622 21.2355 22.3622 21.2355 22.3622C21.8734 21.9795 23.0447 21.3334 24.6334 20.6903C26.9641 19.7477 30.1943 18.812 33.9813 18.7048V24.0892C32.3903 24.6584 31.253 26.1773 31.253 27.963C31.253 29.7486 32.3903 31.267 33.9813 31.8367L33.9812 35.9439ZM35.4457 30.6098C35.4164 30.611 35.3906 30.611 35.366 30.611C34.8584 30.611 34.3846 30.468 33.9813 30.2188C33.2239 29.7516 32.7174 28.9151 32.7174 27.963C32.7174 27.011 33.2239 26.1739 33.9813 25.7066C34.3846 25.4581 34.8584 25.3145 35.366 25.3145C35.3906 25.3145 35.4165 25.3145 35.4457 25.3162C35.9498 25.3227 37.0379 25.4563 37.0379 27.963C37.0378 30.4697 35.9498 30.6034 35.4457 30.6098Z" fill="#D2A3CB"/>
</svg>
