<svg width="40" height="40" viewBox="0 0 40 40" fill="none" xmlns="http://www.w3.org/2000/svg">
<path d="M38.9127 10.1901L33.4785 1.07957C33.0646 0.308325 32.2276 -0.0880815 31.4082 0.0165279C31.389 0.0180904 31.37 0.0226216 31.3517 0.0241841C31.2913 0.034106 31.2302 0.0471529 31.17 0.061606C31.134 0.0715279 31.0974 0.0791841 31.0623 0.0905904C30.937 0.129653 30.8141 0.179965 30.695 0.244106C30.4735 0.363325 30.2238 0.526762 30.0664 0.705434L24.0893 5.33481L19.7402 8.67661C17.9135 9.85801 16.4983 9.80075 14.8511 9.42348L2.03129 5.78528C1.19816 5.53403 0.317616 6.00598 0.0671472 6.83989C-0.183322 7.67301 0.288554 8.55356 1.12254 8.80481L13.3405 13.5411C13.8782 13.6984 14.7815 14.9829 15.4 15.6686C16.3035 16.6736 19.7453 21.8009 27.8922 21.9842C28.3924 21.9957 28.5169 22.1217 28.5788 22.4654L30.1161 38.1496C30.1161 39.1713 30.9446 39.9999 31.9664 39.9999C32.9875 39.9999 33.8168 39.1713 33.8168 38.1496C33.8168 38.1496 33.9993 18.0711 34.0222 17.729C34.0497 17.3082 34.3139 17.0693 34.6882 16.7363C34.6882 16.7363 37.8322 13.6418 37.8871 13.606C39.471 12.5575 39.5458 11.2303 38.9127 10.1901ZM28.717 14.1597C28.3352 14.4361 26.9521 14.7027 26.3839 14.6927C23.0528 14.6393 22.7672 11.9397 23.7745 10.9324L26.5802 8.29778L30.6132 4.59168L33.4404 10.4475L28.717 14.1597Z" fill="#D2A3CB"/>
</svg>
